<svg version="1.2" xmlns="http://www.w3.org/2000/svg" viewBox="0 0 1483 347" width="1483" height="347"><style>.a{fill:#437bbe}.b{fill:#192857}.c{fill:#ccda28}</style><path class="a" d="m229.6 195.7l-7.4-4.3-54.8-31.6-3.9-2.2-3.5 2-119.1 68.8-6.8 3.9-34.1 19.7c17.3 30.1 39 51.8 69.1 69.1 29.7 17.2 62.2 25.4 94.3 25.4 44.6 0 88.5-15.9 122.9-45.4q3-2.5 5.9-5.2c13.4-12.5 25.3-27.2 34.9-43.9z"/><path class="b" d="m159.8 151.1l0.2-0.1v-116-7.4h7.4c20 0 39.5 2.9 58.3 8.8v-35.9c-34.7 0-64.3 8-94.4 25.3-70.2 40.6-104.5 119.3-91.9 194.8z"/><path class="c" d="m233.1 46.8q-3.6-1.4-7.4-2.6c-18.3-6-37.9-9.2-58.3-9.2v116.2l58.3 33.7 7.4 4.3 97.7 56.4 6.5 3.7-3.8 6.4c-9.4 16.4-21.1 31.2-34.6 44.1l32.1 18.5c17.4-30.1 25.3-59.7 25.3-94.4 0-81.2-51.2-150.5-123.2-177.1z"/><path class="b" d="m399.7 26.7q0.5 0.2 1.1 0.9l29.8 38.9q-0.1-0.9-0.1-1.8 0-0.9 0-1.7v-36.6h6.1v51.6h-3.6q-0.8 0-1.3-0.3-0.6-0.3-1.1-0.9l-29.9-38.9q0.1 0.9 0.1 1.8 0.1 0.8 0.1 1.6v36.7h-6.2v-51.6h3.6q1 0 1.4 0.3z"/><path fill-rule="evenodd" class="b" d="m461.1 41q4 0 7.2 1.3 3.3 1.3 5.5 3.8 2.3 2.4 3.5 5.9 1.2 3.5 1.2 7.8 0 4.3-1.2 7.7-1.2 3.5-3.5 5.9-2.2 2.5-5.5 3.8-3.2 1.3-7.2 1.3-4 0-7.2-1.3-3.2-1.3-5.5-3.8-2.3-2.4-3.5-5.9-1.2-3.4-1.2-7.7 0-4.3 1.2-7.8 1.2-3.5 3.5-5.9 2.3-2.5 5.5-3.8 3.2-1.3 7.2-1.3zm0 32.5q5.4 0 8.1-3.6 2.7-3.6 2.7-10.1 0-6.5-2.7-10.2-2.7-3.6-8.1-3.6-2.7 0-4.7 0.9-2 1-3.4 2.7-1.3 1.8-2 4.4-0.7 2.6-0.7 5.8 0 3.2 0.7 5.8 0.7 2.6 2 4.3 1.4 1.7 3.4 2.7 2 0.9 4.7 0.9z"/><path class="b" d="m484.6 78v-36.5h3.7q1 0 1.4 0.4 0.4 0.4 0.5 1.4l0.5 5.7q1.8-3.8 4.6-6 2.8-2.1 6.5-2.1 1.5 0 2.7 0.3 1.2 0.4 2.3 1l-0.9 4.8q-0.2 0.9-1.1 0.9-0.5 0-1.5-0.4-1.1-0.3-2.9-0.3-3.4 0-5.6 1.9-2.3 2-3.8 5.7v23.2z"/><path class="b" d="m522.9 78.6q-4.4 0-6.7-2.4-2.3-2.4-2.3-7v-22.3h-4.4q-0.6 0-1-0.3-0.4-0.4-0.4-1.1v-2.5l6-0.8 1.5-11.3q0.1-0.5 0.5-0.9 0.4-0.3 1-0.3h3.2v12.6h10.4v4.6h-10.4v21.9q0 2.3 1.1 3.4 1.1 1.1 2.9 1.1 1 0 1.7-0.2 0.8-0.3 1.3-0.6 0.6-0.4 0.9-0.6 0.4-0.3 0.7-0.3 0.5 0 0.9 0.6l1.9 3.1q-1.7 1.5-4 2.4-2.4 0.9-4.8 0.9z"/><path class="b" d="m536.9 78v-53h6.4v21.4q2.3-2.4 5.2-3.9 2.8-1.5 6.5-1.5 3 0 5.3 1 2.3 1 3.8 2.8 1.5 1.8 2.3 4.3 0.8 2.6 0.8 5.7v23.2h-6.4v-23.2q0-4.1-1.9-6.4-1.9-2.3-5.8-2.3-2.8 0-5.3 1.4-2.4 1.3-4.5 3.7v26.8z"/><path fill-rule="evenodd" class="b" d="m589.5 41q3.3 0 6.1 1.1 2.8 1.1 4.8 3.1 2 2.1 3.1 5.2 1.2 3 1.2 6.9 0 1.5-0.4 2-0.3 0.5-1.2 0.5h-24.3q0.1 3.5 1 6 0.8 2.6 2.4 4.3 1.5 1.7 3.6 2.5 2 0.9 4.6 0.9 2.4 0 4.2-0.6 1.7-0.5 3-1.2 1.3-0.6 2.1-1.2 0.8-0.5 1.5-0.5 0.8 0 1.2 0.6l1.8 2.3q-1.2 1.4-2.9 2.5-1.6 1.1-3.5 1.8-1.9 0.6-3.9 1-2 0.3-4 0.3-3.8 0-7-1.3-3.2-1.2-5.5-3.7-2.3-2.5-3.6-6.1-1.3-3.6-1.3-8.4 0-3.8 1.2-7.1 1.1-3.3 3.3-5.7 2.2-2.5 5.4-3.8 3.2-1.4 7.1-1.4zm0.2 4.7q-4.7 0-7.3 2.7-2.7 2.7-3.3 7.4h19.8q0-2.2-0.6-4.1-0.6-1.8-1.8-3.2-1.2-1.3-2.9-2.1-1.7-0.7-3.9-0.7z"/><path class="b" d="m611 78v-36.5h3.7q1 0 1.4 0.4 0.4 0.4 0.6 1.4l0.4 5.7q1.9-3.8 4.6-6 2.8-2.1 6.5-2.1 1.5 0 2.7 0.3 1.3 0.4 2.3 1l-0.8 4.8q-0.3 0.9-1.1 0.9-0.5 0-1.6-0.4-1-0.3-2.9-0.3-3.4 0-5.6 1.9-2.3 2-3.8 5.7v23.2z"/><path class="b" d="m638.2 78v-36.5h3.9q1.3 0 1.7 1.4l0.5 3.9q2.4-2.6 5.3-4.2 2.9-1.6 6.8-1.6 3 0 5.3 1 2.2 1 3.8 2.8 1.5 1.8 2.3 4.3 0.8 2.6 0.8 5.7v23.2h-6.4v-23.2q0-4.1-1.9-6.4-1.9-2.3-5.8-2.3-2.8 0-5.3 1.4-2.5 1.3-4.6 3.7v26.8z"/><path class="b" d="m697.9 78h-7v-51.6h7z"/><path class="b" d="m708.9 78v-36.5h3.6q1.1 0 1.5 0.4 0.4 0.4 0.5 1.4l0.5 5.7q1.8-3.8 4.6-6 2.7-2.1 6.4-2.1 1.6 0 2.8 0.3 1.2 0.4 2.2 1l-0.8 4.8q-0.2 0.9-1.1 0.9-0.5 0-1.5-0.4-1.1-0.3-3-0.3-3.3 0-5.6 1.9-2.2 2-3.7 5.7v23.2z"/><path fill-rule="evenodd" class="b" d="m750.5 41q3.3 0 6.1 1.1 2.7 1.1 4.8 3.1 2 2.1 3.1 5.2 1.1 3 1.1 6.9 0 1.5-0.3 2-0.3 0.5-1.2 0.5h-24.3q0.1 3.5 1 6 0.8 2.6 2.3 4.3 1.6 1.7 3.6 2.5 2.1 0.9 4.7 0.9 2.4 0 4.2-0.6 1.7-0.5 3-1.2 1.2-0.6 2.1-1.2 0.8-0.5 1.5-0.5 0.7 0 1.2 0.6l1.8 2.3q-1.2 1.4-2.9 2.5-1.6 1.1-3.5 1.8-1.9 0.6-3.9 1-2 0.3-4 0.3-3.8 0-7-1.3-3.2-1.2-5.5-3.7-2.3-2.5-3.6-6.1-1.3-3.6-1.3-8.4 0-3.8 1.2-7.1 1.1-3.3 3.3-5.7 2.2-2.5 5.4-3.8 3.2-1.4 7.1-1.4zm0.2 4.7q-4.7 0-7.3 2.7-2.7 2.7-3.4 7.4h19.9q0-2.2-0.6-4.1-0.6-1.8-1.8-3.2-1.2-1.3-2.9-2.1-1.7-0.7-3.9-0.7z"/><path class="b" d="m779.1 25v53h-6.4v-53z"/><path fill-rule="evenodd" class="b" d="m815.4 78h-2.8q-1 0-1.5-0.3-0.6-0.3-0.8-1.2l-0.7-3.4q-1.4 1.3-2.8 2.3-1.4 1.1-2.9 1.8-1.5 0.7-3.2 1-1.7 0.4-3.8 0.4-2.1 0-4-0.6-1.8-0.6-3.2-1.8-1.4-1.2-2.2-3-0.8-1.8-0.8-4.3 0-2.2 1.2-4.2 1.2-2 3.8-3.6 2.7-1.5 7-2.5 4.2-1 10.4-1v-2.9q0-4.2-1.8-6.4-1.8-2.2-5.4-2.2-2.3 0-3.9 0.6-1.6 0.6-2.8 1.3-1.2 0.7-2 1.3-0.8 0.6-1.7 0.6-0.6 0-1.1-0.3-0.5-0.3-0.8-0.9l-1.1-2q3-2.9 6.5-4.4 3.5-1.4 7.7-1.4 3.1 0 5.5 1 2.3 1 4 2.8 1.6 1.8 2.4 4.4 0.8 2.5 0.8 5.6zm-16.6-3.9q1.7 0 3.1-0.4 1.4-0.3 2.6-0.9 1.3-0.7 2.4-1.6 1.2-0.9 2.2-2v-7.6q-4.4 0-7.5 0.6-3.1 0.6-5 1.5-2 0.9-2.9 2.1-0.8 1.2-0.8 2.8 0 1.4 0.4 2.5 0.5 1 1.3 1.7 0.8 0.6 1.9 1 1 0.3 2.3 0.3z"/><path class="b" d="m823.3 78v-36.5h3.9q1.3 0 1.7 1.4l0.5 3.9q2.4-2.6 5.3-4.2 2.9-1.6 6.8-1.6 3 0 5.3 1 2.3 1 3.8 2.8 1.5 1.8 2.3 4.3 0.8 2.6 0.8 5.7v23.2h-6.4v-23.2q0-4.1-1.9-6.4-1.9-2.3-5.8-2.3-2.8 0-5.3 1.4-2.5 1.3-4.5 3.7v26.8z"/><path fill-rule="evenodd" class="b" d="m887.2 78q-1.3 0-1.7-1.3l-0.6-4.4q-2.3 2.8-5.3 4.5-3 1.7-6.9 1.7-3.1 0-5.7-1.2-2.5-1.2-4.3-3.5-1.8-2.4-2.8-5.9-1-3.5-1-8 0-4 1.1-7.5 1.1-3.5 3.1-6 2-2.6 5-4 2.9-1.5 6.6-1.5 3.3 0 5.7 1.1 2.4 1.2 4.3 3.2v-20.2h6.4v53zm-12.5-4.7q3.2 0 5.5-1.4 2.4-1.4 4.4-4.1v-17.6q-1.8-2.4-3.9-3.3-2.1-1-4.7-1-5.1 0-7.8 3.6-2.7 3.7-2.7 10.4 0 3.6 0.6 6.1 0.6 2.5 1.8 4.2 1.2 1.6 2.9 2.4 1.7 0.7 3.9 0.7z"/><path class="b" d="m421.2 104.5q-0.4 0.5-0.7 0.8-0.4 0.3-1 0.3-0.6 0-1.4-0.6-0.8-0.7-2-1.4-1.3-0.7-3-1.3-1.8-0.7-4.2-0.7-2.4 0-4.2 0.7-1.8 0.6-3 1.7-1.2 1.1-1.8 2.5-0.6 1.5-0.6 3.2 0 2.1 1 3.6 1.1 1.4 2.8 2.4 1.8 1 4 1.7 2.2 0.8 4.5 1.6 2.4 0.8 4.6 1.7 2.2 1 3.9 2.5 1.8 1.6 2.8 3.8 1.1 2.2 1.1 5.4 0 3.3-1.1 6.3-1.2 3-3.4 5.2-2.2 2.2-5.4 3.4-3.3 1.3-7.4 1.3-5 0-9.1-1.8-4.1-1.8-7-4.9l2-3.4q0.3-0.3 0.7-0.6 0.4-0.3 0.9-0.3 0.8 0 1.7 0.8 1 0.8 2.5 1.8 1.4 1 3.5 1.8 2.1 0.8 5 0.8 2.5 0 4.5-0.7 1.9-0.7 3.3-1.9 1.3-1.3 2-3 0.8-1.7 0.8-3.8 0-2.4-1.1-3.9-1.1-1.5-2.8-2.5-1.7-1-3.9-1.7-2.3-0.7-4.6-1.4-2.3-0.8-4.5-1.7-2.2-1-4-2.6-1.7-1.5-2.7-3.8-1.1-2.3-1.1-5.8 0-2.7 1.1-5.3 1-2.5 3-4.5 2.1-2 5-3.2 3-1.1 6.8-1.1 4.4 0 7.9 1.3 3.6 1.4 6.3 4z"/><path class="b" d="m441.1 148.6q-4.3 0-6.6-2.4-2.3-2.4-2.3-7v-22.3h-4.4q-0.6 0-1-0.3-0.4-0.4-0.4-1.1v-2.5l6-0.8 1.5-11.3q0-0.5 0.4-0.9 0.4-0.3 1-0.3h3.3v12.6h10.4v4.6h-10.4v21.9q0 2.3 1.1 3.4 1.1 1.1 2.9 1.1 1 0 1.7-0.2 0.8-0.3 1.3-0.6 0.5-0.4 0.9-0.6 0.4-0.3 0.7-0.3 0.5 0 0.9 0.6l1.9 3.1q-1.7 1.5-4 2.4-2.4 0.9-4.9 0.9z"/><path fill-rule="evenodd" class="b" d="m481.9 148h-2.8q-1 0-1.5-0.3-0.6-0.3-0.8-1.2l-0.7-3.4q-1.4 1.3-2.8 2.3-1.4 1.1-2.9 1.8-1.5 0.7-3.2 1-1.7 0.4-3.8 0.4-2.1 0-4-0.6-1.8-0.6-3.2-1.8-1.4-1.2-2.2-3-0.8-1.8-0.8-4.3 0-2.2 1.2-4.2 1.2-2 3.8-3.6 2.7-1.5 7-2.5 4.2-1 10.4-1v-2.9q0-4.2-1.8-6.4-1.8-2.2-5.4-2.2-2.3 0-3.9 0.6-1.6 0.6-2.8 1.3-1.2 0.7-2 1.3-0.8 0.6-1.7 0.6-0.6 0-1.1-0.3-0.5-0.3-0.8-0.9l-1.1-2q3-2.9 6.5-4.4 3.5-1.4 7.7-1.4 3.1 0 5.5 1 2.3 1 4 2.8 1.6 1.8 2.4 4.4 0.8 2.5 0.8 5.6zm-16.6-3.9q1.7 0 3.1-0.4 1.4-0.3 2.6-0.9 1.3-0.7 2.4-1.6 1.1-0.9 2.2-2v-7.6q-4.4 0-7.5 0.6-3.1 0.6-5 1.5-2 0.9-2.9 2.1-0.8 1.2-0.8 2.8 0 1.4 0.4 2.5 0.5 1 1.3 1.7 0.8 0.6 1.9 1 1 0.3 2.3 0.3z"/><path class="b" d="m500.9 148.6q-4.3 0-6.6-2.4-2.4-2.4-2.4-7v-22.3h-4.4q-0.5 0-0.9-0.3-0.4-0.4-0.4-1.1v-2.5l6-0.8 1.4-11.3q0.1-0.5 0.5-0.9 0.4-0.3 1-0.3h3.2v12.6h10.5v4.6h-10.5v21.9q0 2.3 1.2 3.4 1.1 1.1 2.8 1.1 1 0 1.8-0.2 0.7-0.3 1.3-0.6 0.5-0.4 0.9-0.6 0.4-0.3 0.6-0.3 0.6 0 0.9 0.6l1.9 3.1q-1.6 1.5-4 2.4-2.3 0.9-4.8 0.9z"/><path class="b" d="m523.5 100.1q0 0.9-0.4 1.7-0.4 0.9-1 1.5-0.6 0.6-1.5 1-0.8 0.3-1.7 0.3-1 0-1.8-0.3-0.8-0.4-1.4-1-0.7-0.6-1-1.5-0.4-0.8-0.4-1.7 0-0.9 0.4-1.8 0.3-0.8 1-1.5 0.6-0.6 1.4-0.9 0.8-0.4 1.8-0.4 0.9 0 1.7 0.4 0.9 0.3 1.5 0.9 0.6 0.7 1 1.5 0.4 0.9 0.4 1.8zm-1.5 11.4v36.5h-6.4v-36.5z"/><path class="b" d="m552.4 117.6q-0.4 0.8-1.3 0.8-0.6 0-1.2-0.4-0.7-0.4-1.7-0.9-1-0.5-2.4-0.9-1.3-0.4-3.2-0.4-1.6 0-2.9 0.4-1.3 0.4-2.2 1.1-1 0.7-1.4 1.7-0.5 0.9-0.5 2.1 0 1.4 0.8 2.3 0.8 0.9 2.1 1.6 1.4 0.7 3 1.2 1.7 0.5 3.5 1.1 1.8 0.6 3.5 1.3 1.7 0.8 3 1.8 1.3 1.1 2.2 2.7 0.8 1.6 0.8 3.8 0 2.5-0.9 4.6-0.9 2.2-2.7 3.7-1.8 1.6-4.3 2.5-2.6 0.9-5.9 0.9-3.8 0-6.9-1.2-3.1-1.3-5.3-3.2l1.5-2.5q0.3-0.5 0.7-0.7 0.4-0.3 1.1-0.3 0.6 0 1.3 0.5 0.7 0.6 1.8 1.2 1 0.6 2.4 1.1 1.5 0.5 3.7 0.5 1.9 0 3.3-0.5 1.4-0.5 2.3-1.3 1-0.8 1.4-1.9 0.5-1.1 0.5-2.3 0-1.5-0.9-2.5-0.8-1-2.1-1.7-1.3-0.7-3-1.2-1.7-0.6-3.5-1.1-1.8-0.6-3.5-1.4-1.7-0.7-3.1-1.8-1.3-1.1-2.1-2.8-0.8-1.6-0.8-3.9 0-2.1 0.8-4.1 0.9-1.9 2.6-3.3 1.6-1.5 4-2.4 2.4-0.8 5.5-0.8 3.6 0 6.5 1.1 2.9 1.1 5 3.1z"/><path class="b" d="m572 148.6q-4.3 0-6.6-2.4-2.3-2.4-2.3-7v-22.3h-4.4q-0.6 0-1-0.3-0.4-0.4-0.4-1.1v-2.5l6-0.8 1.5-11.3q0-0.5 0.4-0.9 0.4-0.3 1-0.3h3.3v12.6h10.4v4.6h-10.4v21.9q0 2.3 1.1 3.4 1.1 1.1 2.9 1.1 1 0 1.7-0.2 0.8-0.3 1.3-0.6 0.5-0.4 0.9-0.6 0.4-0.3 0.7-0.3 0.5 0 0.9 0.6l1.9 3.1q-1.7 1.5-4 2.4-2.4 0.9-4.9 0.9z"/><path class="b" d="m594.6 100.1q0 0.9-0.4 1.7-0.4 0.9-1 1.5-0.6 0.6-1.4 1-0.9 0.3-1.8 0.3-0.9 0-1.7-0.3-0.9-0.4-1.5-1-0.6-0.6-1-1.5-0.3-0.8-0.3-1.7 0-0.9 0.3-1.8 0.4-0.8 1-1.5 0.6-0.6 1.5-0.9 0.8-0.4 1.7-0.4 0.9 0 1.8 0.4 0.8 0.3 1.4 0.9 0.6 0.7 1 1.5 0.4 0.9 0.4 1.8zm-1.4 11.4v36.5h-6.4v-36.5z"/><path class="b" d="m627.5 118q-0.2 0.4-0.5 0.6-0.3 0.3-0.9 0.3-0.5 0-1.1-0.5-0.7-0.4-1.6-1-1-0.5-2.4-1-1.4-0.4-3.4-0.4-2.7 0-4.7 0.9-2.1 1-3.4 2.8-1.4 1.8-2.1 4.3-0.7 2.6-0.7 5.8 0 3.3 0.7 5.9 0.8 2.5 2.1 4.3 1.4 1.7 3.4 2.6 1.9 1 4.4 1 2.3 0 3.8-0.6 1.6-0.6 2.6-1.2 1-0.7 1.6-1.3 0.7-0.5 1.3-0.5 0.8 0 1.2 0.6l1.8 2.3q-2.3 2.9-5.9 4.3-3.6 1.3-7.5 1.3-3.5 0-6.4-1.2-2.9-1.3-5.1-3.7-2.1-2.4-3.4-5.9-1.2-3.5-1.2-7.9 0-4.1 1.1-7.6 1.1-3.4 3.3-5.9 2.2-2.5 5.4-3.9 3.2-1.4 7.3-1.4 3.9 0 6.8 1.2 3 1.3 5.2 3.5z"/><path class="b" d="m655.4 117.6q-0.5 0.8-1.4 0.8-0.5 0-1.2-0.4-0.7-0.4-1.7-0.9-0.9-0.5-2.3-0.9-1.4-0.4-3.3-0.4-1.6 0-2.9 0.4-1.3 0.4-2.2 1.1-0.9 0.7-1.4 1.7-0.5 0.9-0.5 2.1 0 1.4 0.8 2.3 0.8 0.9 2.2 1.6 1.3 0.7 3 1.2 1.7 0.5 3.5 1.1 1.8 0.6 3.4 1.3 1.7 0.8 3.1 1.8 1.3 1.1 2.1 2.7 0.8 1.6 0.8 3.8 0 2.5-0.9 4.6-0.9 2.2-2.6 3.7-1.8 1.6-4.4 2.5-2.5 0.9-5.9 0.9-3.8 0-6.9-1.2-3.1-1.3-5.2-3.2l1.5-2.5q0.3-0.5 0.7-0.7 0.4-0.3 1-0.3 0.7 0 1.4 0.5 0.7 0.6 1.7 1.2 1 0.6 2.5 1.1 1.5 0.5 3.7 0.5 1.8 0 3.2-0.5 1.4-0.5 2.4-1.3 0.9-0.8 1.4-1.9 0.4-1.1 0.4-2.3 0-1.5-0.8-2.5-0.8-1-2.1-1.7-1.4-0.7-3.1-1.2-1.7-0.6-3.5-1.1-1.8-0.6-3.5-1.4-1.7-0.7-3-1.8-1.3-1.1-2.1-2.8-0.9-1.6-0.9-3.9 0-2.1 0.9-4.1 0.9-1.9 2.5-3.3 1.7-1.5 4.1-2.4 2.4-0.8 5.5-0.8 3.6 0 6.5 1.1 2.8 1.1 4.9 3.1z"/><path fill-rule="evenodd" class="b" d="m702.8 148h-2.8q-1 0-1.5-0.3-0.6-0.3-0.8-1.2l-0.7-3.4q-1.5 1.3-2.8 2.3-1.4 1.1-2.9 1.8-1.5 0.7-3.2 1-1.7 0.4-3.8 0.4-2.1 0-4-0.6-1.9-0.6-3.2-1.8-1.4-1.2-2.2-3-0.8-1.8-0.8-4.3 0-2.2 1.2-4.2 1.2-2 3.8-3.6 2.7-1.5 6.9-2.5 4.3-1 10.5-1v-2.9q0-4.2-1.8-6.4-1.8-2.2-5.4-2.2-2.3 0-3.9 0.6-1.6 0.6-2.8 1.3-1.2 0.7-2 1.3-0.9 0.6-1.7 0.6-0.6 0-1.1-0.3-0.5-0.3-0.8-0.9l-1.1-2q3-2.9 6.5-4.4 3.5-1.4 7.7-1.4 3.1 0 5.4 1 2.4 1 4 2.8 1.7 1.8 2.5 4.4 0.8 2.5 0.8 5.6zm-16.6-3.9q1.7 0 3.1-0.4 1.4-0.3 2.6-0.9 1.3-0.7 2.4-1.6 1.1-0.9 2.2-2v-7.6q-4.4 0-7.5 0.6-3.1 0.6-5 1.5-2 0.9-2.9 2.1-0.9 1.2-0.9 2.8 0 1.4 0.5 2.5 0.5 1 1.3 1.7 0.8 0.6 1.8 1 1.1 0.3 2.4 0.3z"/><path class="b" d="m710.7 148v-36.5h3.9q1.3 0 1.7 1.4l0.5 3.9q2.4-2.6 5.3-4.2 2.9-1.6 6.8-1.6 3 0 5.3 1 2.2 1 3.8 2.8 1.5 1.8 2.3 4.3 0.8 2.6 0.8 5.7v23.2h-6.4v-23.2q0-4.1-1.9-6.4-1.9-2.3-5.8-2.3-2.8 0-5.3 1.4-2.5 1.3-4.6 3.7v26.8z"/><path fill-rule="evenodd" class="b" d="m774.6 148q-1.3 0-1.7-1.3l-0.6-4.4q-2.3 2.8-5.3 4.5-3 1.7-6.9 1.7-3.1 0-5.7-1.2-2.5-1.2-4.3-3.5-1.8-2.4-2.8-5.9-1-3.5-1-8 0-4 1.1-7.5 1.1-3.5 3.1-6 2-2.6 5-4 2.9-1.5 6.6-1.5 3.3 0 5.7 1.1 2.4 1.2 4.2 3.2v-20.2h6.5v53zm-12.5-4.7q3.2 0 5.5-1.4 2.4-1.4 4.4-4.1v-17.6q-1.8-2.4-3.9-3.3-2.1-1-4.7-1-5.1 0-7.8 3.6-2.8 3.7-2.8 10.4 0 3.6 0.7 6.1 0.6 2.5 1.8 4.2 1.1 1.6 2.9 2.4 1.7 0.7 3.9 0.7z"/><path fill-rule="evenodd" class="b" d="m808.2 126.5v21.5h-7v-51.6h14.6q4.9 0 8.5 1 3.5 1 5.9 2.9 2.3 1.9 3.4 4.5 1.1 2.6 1.1 5.9 0 2.8-0.8 5.1-0.9 2.4-2.5 4.3-1.7 1.9-4 3.2-2.4 1.4-5.4 2 1.3 0.8 2.3 2.2l15.1 20.5h-6.2q-1.9 0-2.8-1.5l-13.4-18.4q-0.6-0.9-1.4-1.2-0.7-0.4-2.1-0.4zm0-5.1h7.3q3.1 0 5.4-0.7 2.3-0.8 3.9-2.1 1.5-1.4 2.3-3.2 0.8-1.9 0.8-4.2 0-4.6-3-6.9-3.1-2.4-9.1-2.4h-7.6z"/><path fill-rule="evenodd" class="b" d="m858.5 111q3.3 0 6.1 1.1 2.7 1.1 4.8 3.1 2 2.1 3.1 5.2 1.1 3 1.1 6.9 0 1.5-0.3 2-0.3 0.5-1.2 0.5h-24.3q0.1 3.5 1 6 0.8 2.6 2.3 4.3 1.6 1.7 3.6 2.5 2.1 0.9 4.7 0.9 2.4 0 4.2-0.6 1.7-0.5 3-1.2 1.2-0.6 2.1-1.2 0.8-0.5 1.4-0.5 0.8 0 1.3 0.6l1.8 2.3q-1.2 1.4-2.9 2.5-1.6 1.1-3.5 1.8-1.9 0.6-3.9 1-2 0.3-4 0.3-3.8 0-7-1.3-3.2-1.2-5.5-3.7-2.3-2.5-3.6-6.1-1.3-3.6-1.3-8.4 0-3.8 1.2-7.1 1.1-3.3 3.3-5.7 2.2-2.5 5.4-3.8 3.2-1.4 7.1-1.4zm0.2 4.7q-4.7 0-7.3 2.7-2.7 2.7-3.4 7.4h19.9q0-2.2-0.6-4.1-0.6-1.8-1.8-3.2-1.2-1.3-2.9-2.1-1.7-0.7-3.9-0.7z"/><path class="b" d="m900.9 117.6q-0.4 0.8-1.3 0.8-0.6 0-1.3-0.4-0.7-0.4-1.6-0.9-1-0.5-2.4-0.9-1.4-0.4-3.2-0.4-1.7 0-3 0.4-1.3 0.4-2.2 1.1-0.9 0.7-1.4 1.7-0.5 0.9-0.5 2.1 0 1.4 0.9 2.3 0.8 0.9 2.1 1.6 1.3 0.7 3 1.2 1.7 0.5 3.5 1.1 1.8 0.6 3.5 1.3 1.7 0.8 3 1.8 1.3 1.1 2.1 2.7 0.8 1.6 0.8 3.8 0 2.5-0.9 4.6-0.9 2.2-2.6 3.7-1.8 1.6-4.3 2.5-2.6 0.9-5.9 0.9-3.9 0-7-1.2-3.1-1.3-5.2-3.2l1.5-2.5q0.3-0.5 0.7-0.7 0.4-0.3 1-0.3 0.7 0 1.4 0.5 0.7 0.6 1.7 1.2 1.1 0.6 2.5 1.1 1.5 0.5 3.7 0.5 1.8 0 3.3-0.5 1.4-0.5 2.3-1.3 0.9-0.8 1.4-1.9 0.4-1.1 0.4-2.3 0-1.5-0.8-2.5-0.8-1-2.1-1.7-1.4-0.7-3.1-1.2-1.7-0.6-3.5-1.1-1.7-0.6-3.4-1.4-1.8-0.7-3.1-1.8-1.3-1.1-2.1-2.8-0.8-1.6-0.8-3.9 0-2.1 0.8-4.1 0.9-1.9 2.5-3.3 1.7-1.5 4.1-2.4 2.4-0.8 5.5-0.8 3.6 0 6.5 1.1 2.8 1.1 4.9 3.1z"/><path fill-rule="evenodd" class="b" d="m923.9 111q3.3 0 6 1.1 2.8 1.1 4.8 3.1 2 2.1 3.2 5.2 1.1 3 1.1 6.9 0 1.5-0.3 2-0.3 0.5-1.2 0.5h-24.3q0.1 3.5 0.9 6 0.9 2.6 2.4 4.3 1.5 1.7 3.6 2.5 2.1 0.9 4.7 0.9 2.4 0 4.2-0.6 1.7-0.5 3-1.2 1.2-0.6 2.1-1.2 0.8-0.5 1.4-0.5 0.8 0 1.2 0.6l1.8 2.3q-1.1 1.4-2.8 2.5-1.7 1.1-3.5 1.8-1.9 0.6-4 1-2 0.3-3.9 0.3-3.8 0-7-1.3-3.2-1.2-5.5-3.7-2.3-2.5-3.6-6.1-1.3-3.6-1.3-8.4 0-3.8 1.1-7.1 1.2-3.3 3.4-5.7 2.2-2.5 5.4-3.8 3.1-1.4 7.1-1.4zm0.1 4.7q-4.6 0-7.3 2.7-2.6 2.7-3.3 7.4h19.9q0-2.2-0.7-4.1-0.6-1.8-1.8-3.2-1.1-1.3-2.9-2.1-1.7-0.7-3.9-0.7z"/><path fill-rule="evenodd" class="b" d="m972.2 148h-2.9q-0.9 0-1.5-0.3-0.6-0.3-0.7-1.2l-0.8-3.4q-1.4 1.3-2.8 2.3-1.3 1.1-2.9 1.8-1.5 0.7-3.2 1-1.7 0.4-3.8 0.4-2.1 0-3.9-0.6-1.9-0.6-3.3-1.8-1.3-1.2-2.2-3-0.8-1.8-0.8-4.3 0-2.2 1.2-4.2 1.2-2 3.9-3.6 2.6-1.5 6.9-2.5 4.3-1 10.5-1v-2.9q0-4.2-1.9-6.4-1.8-2.2-5.3-2.2-2.4 0-4 0.6-1.6 0.6-2.7 1.3-1.2 0.7-2.1 1.3-0.8 0.6-1.6 0.6-0.7 0-1.2-0.3-0.5-0.3-0.7-0.9l-1.2-2q3-2.9 6.5-4.4 3.5-1.4 7.8-1.4 3 0 5.4 1 2.4 1 4 2.8 1.6 1.8 2.4 4.4 0.9 2.5 0.9 5.6zm-16.7-3.9q1.7 0 3.1-0.4 1.4-0.3 2.7-0.9 1.2-0.7 2.4-1.6 1.1-0.9 2.2-2v-7.6q-4.5 0-7.6 0.6-3.1 0.6-5 1.5-1.9 0.9-2.8 2.1-0.9 1.2-0.9 2.8 0 1.4 0.5 2.5 0.4 1 1.2 1.7 0.8 0.6 1.9 1 1.1 0.3 2.3 0.3z"/><path class="b" d="m980.1 148v-36.5h3.7q1 0 1.4 0.4 0.4 0.4 0.5 1.4l0.5 5.7q1.8-3.8 4.6-6 2.8-2.1 6.5-2.1 1.5 0 2.7 0.3 1.2 0.4 2.3 1l-0.9 4.8q-0.2 0.9-1.1 0.9-0.5 0-1.5-0.4-1.1-0.3-2.9-0.3-3.4 0-5.6 1.9-2.3 2-3.8 5.7v23.2z"/><path class="b" d="m1032.2 118q-0.3 0.4-0.6 0.6-0.3 0.3-0.8 0.3-0.6 0-1.2-0.5-0.6-0.4-1.6-1-1-0.5-2.4-1-1.3-0.4-3.4-0.4-2.6 0-4.7 0.9-2 1-3.4 2.8-1.4 1.8-2.1 4.3-0.7 2.6-0.7 5.8 0 3.3 0.8 5.9 0.7 2.5 2.1 4.3 1.3 1.7 3.3 2.6 2 1 4.4 1 2.4 0 3.9-0.6 1.5-0.6 2.5-1.2 1-0.7 1.6-1.3 0.7-0.5 1.3-0.5 0.9 0 1.3 0.6l1.8 2.3q-2.4 2.9-6 4.3-3.5 1.3-7.5 1.3-3.4 0-6.4-1.2-2.9-1.3-5-3.7-2.2-2.4-3.4-5.9-1.3-3.5-1.3-7.9 0-4.1 1.1-7.6 1.2-3.4 3.4-5.9 2.1-2.5 5.3-3.9 3.2-1.4 7.4-1.4 3.8 0 6.8 1.2 2.9 1.3 5.2 3.5z"/><path class="b" d="m1039.1 148v-53h6.4v21.4q2.4-2.4 5.2-3.9 2.9-1.5 6.6-1.5 3 0 5.2 1 2.3 1 3.9 2.8 1.5 1.8 2.3 4.3 0.8 2.6 0.8 5.7v23.2h-6.4v-23.2q0-4.1-1.9-6.4-1.9-2.3-5.8-2.3-2.8 0-5.3 1.4-2.5 1.3-4.6 3.7v26.8z"/><path fill-rule="evenodd" class="b" d="m1132.9 148h-5.4q-0.9 0-1.5-0.5-0.6-0.4-0.9-1.1l-4.8-12.5h-23.1l-4.9 12.5q-0.2 0.6-0.8 1.1-0.6 0.5-1.5 0.5h-5.4l20.6-51.6h7.1zm-33.8-19.1h19.2l-8.1-21q-0.8-2-1.5-4.9-0.4 1.5-0.8 2.7-0.4 1.3-0.7 2.2z"/><path fill-rule="evenodd" class="b" d="m1148.9 110.9q2.4 0 4.4 0.6 2.1 0.5 3.8 1.5h9.9v2.4q0 1.2-1.5 1.5l-4.2 0.6q1.3 2.3 1.3 5.2 0 2.6-1.1 4.8-1 2.2-2.8 3.7-1.8 1.6-4.3 2.4-2.5 0.8-5.5 0.8-2.6 0-4.8-0.6-1.2 0.8-1.8 1.6-0.6 0.9-0.6 1.7 0 1.3 1.1 2 1 0.7 2.7 1 1.8 0.3 4 0.3 2.2 0 4.4 0 2.3 0 4.5 0.4 2.2 0.4 4 1.3 1.7 0.9 2.7 2.5 1.1 1.7 1.1 4.2 0 2.4-1.2 4.6-1.2 2.2-3.4 3.9-2.2 1.8-5.3 2.8-3.2 1.1-7.2 1.1-4 0-7-0.8-3-0.8-5-2.2-2-1.3-3-3-0.9-1.8-0.9-3.7 0-2.7 1.7-4.6 1.7-1.9 4.7-3-1.6-0.7-2.5-1.9-0.9-1.2-0.9-3.2 0-0.8 0.3-1.7 0.3-0.8 0.9-1.7 0.5-0.8 1.4-1.5 0.9-0.8 2-1.4-2.7-1.5-4.2-4-1.5-2.5-1.5-5.8 0-2.7 1-4.9 1-2.1 2.9-3.7 1.8-1.5 4.3-2.3 2.6-0.9 5.6-0.9zm11.4 39q0-1.4-0.8-2.3-0.7-0.8-2-1.3-1.3-0.4-3-0.7-1.7-0.2-3.6-0.2-1.9 0-3.8 0-2 0-3.7-0.5-2.1 1-3.3 2.4-1.3 1.4-1.3 3.4 0 1.2 0.6 2.3 0.6 1 1.9 1.8 1.3 0.8 3.3 1.2 1.9 0.5 4.6 0.5 2.6 0 4.7-0.5 2-0.5 3.4-1.4 1.5-0.8 2.2-2.1 0.8-1.2 0.8-2.6zm-11.4-19.7q1.9 0 3.4-0.5 1.5-0.6 2.5-1.6 1-0.9 1.5-2.3 0.5-1.3 0.5-2.9 0-3.4-2-5.4-2-2-5.9-2-3.9 0-5.9 2-2 2-2 5.4 0 1.6 0.5 2.9 0.5 1.4 1.5 2.3 1 1 2.5 1.6 1.5 0.5 3.4 0.5z"/><path fill-rule="evenodd" class="b" d="m1186 111q3.3 0 6.1 1.1 2.8 1.1 4.8 3.1 2 2.1 3.1 5.2 1.2 3 1.2 6.9 0 1.5-0.4 2-0.3 0.5-1.2 0.5h-24.3q0.1 3.5 1 6 0.8 2.6 2.4 4.3 1.5 1.7 3.6 2.5 2 0.9 4.6 0.9 2.5 0 4.2-0.6 1.7-0.5 3-1.2 1.3-0.6 2.1-1.2 0.9-0.5 1.5-0.5 0.8 0 1.2 0.6l1.8 2.3q-1.2 1.4-2.9 2.5-1.6 1.1-3.5 1.8-1.9 0.6-3.9 1-2 0.3-4 0.3-3.8 0-7-1.3-3.2-1.2-5.5-3.7-2.3-2.5-3.6-6.1-1.3-3.6-1.3-8.4 0-3.8 1.2-7.1 1.2-3.3 3.3-5.7 2.2-2.5 5.4-3.8 3.2-1.4 7.1-1.4zm0.2 4.7q-4.7 0-7.3 2.7-2.7 2.7-3.3 7.4h19.8q0-2.2-0.6-4.1-0.6-1.8-1.8-3.2-1.2-1.3-2.9-2.1-1.7-0.7-3.9-0.7z"/><path class="b" d="m1207.5 148v-36.5h3.8q1.4 0 1.8 1.4l0.5 3.9q2.4-2.6 5.3-4.2 2.9-1.6 6.8-1.6 3 0 5.2 1 2.3 1 3.9 2.8 1.5 1.8 2.3 4.3 0.8 2.6 0.8 5.7v23.2h-6.4v-23.2q0-4.1-1.9-6.4-1.9-2.3-5.8-2.3-2.8 0-5.3 1.4-2.5 1.3-4.6 3.7v26.8z"/><path class="b" d="m1270.6 118q-0.2 0.4-0.5 0.6-0.3 0.3-0.9 0.3-0.5 0-1.1-0.5-0.7-0.4-1.6-1-1-0.5-2.4-1-1.4-0.4-3.4-0.4-2.7 0-4.7 0.9-2.1 1-3.5 2.8-1.3 1.8-2 4.3-0.7 2.6-0.7 5.8 0 3.3 0.7 5.9 0.8 2.5 2.1 4.3 1.4 1.7 3.4 2.6 1.9 1 4.4 1 2.3 0 3.8-0.6 1.5-0.6 2.6-1.2 1-0.7 1.6-1.3 0.7-0.5 1.3-0.5 0.8 0 1.2 0.6l1.8 2.3q-2.3 2.9-5.9 4.3-3.6 1.3-7.5 1.3-3.5 0-6.4-1.2-2.9-1.3-5.1-3.7-2.1-2.4-3.4-5.9-1.2-3.5-1.2-7.9 0-4.1 1.1-7.6 1.1-3.4 3.3-5.9 2.2-2.5 5.4-3.9 3.2-1.4 7.3-1.4 3.9 0 6.8 1.2 3 1.3 5.2 3.5z"/><path class="b" d="m1288.3 158.8q-0.3 0.7-0.8 1.1-0.5 0.5-1.5 0.5h-4.8l6.7-14.5-15.1-34.4h5.6q0.8 0 1.3 0.5 0.4 0.4 0.7 0.9l9.7 22.9q0.3 0.8 0.6 1.6 0.2 0.8 0.4 1.7 0.2-0.9 0.5-1.7 0.2-0.8 0.6-1.6l9.4-22.9q0.3-0.6 0.8-1 0.5-0.4 1.1-0.4h5.1z"/><path class="b" d="m417.7 258.5q2.1 0 3.9-0.1 1.7-0.2 3.3-0.6 1.5-0.4 2.9-1 1.4-0.6 2.7-1.3v-11.4h-8q-0.7 0-1.1-0.3-0.4-0.4-0.4-1v-4h15.9v19.8q-2 1.4-4.1 2.5-2.1 1-4.5 1.7-2.4 0.7-5.1 1.1-2.8 0.3-6 0.3-5.6 0-10.3-1.9-4.6-2-8-5.4-3.4-3.5-5.3-8.4-1.9-4.8-1.9-10.7 0-5.9 1.9-10.7 1.8-4.9 5.3-8.3 3.4-3.5 8.3-5.4 4.9-1.9 10.9-1.9 3.1 0 5.7 0.4 2.6 0.5 4.9 1.3 2.2 0.9 4.1 2.1 1.9 1.2 3.6 2.7l-2 3.1q-0.6 1-1.6 1-0.6 0-1.2-0.4-0.9-0.5-2-1.2-1.2-0.7-2.8-1.4-1.6-0.7-3.7-1.1-2.2-0.5-5.2-0.5-4.4 0-7.9 1.4-3.5 1.5-6 4.1-2.5 2.6-3.8 6.4-1.4 3.8-1.4 8.4 0 4.9 1.4 8.8 1.4 3.8 3.9 6.5 2.6 2.6 6 4 3.5 1.4 7.6 1.4z"/><path class="b" d="m444.8 263.6v-36.4h3.8q1.4 0 1.7 1.3l0.5 3.9q2.4-2.6 5.3-4.2 3-1.6 6.8-1.6 3 0 5.3 1 2.3 1 3.8 2.8 1.5 1.8 2.3 4.4 0.8 2.5 0.8 5.6v23.2h-6.4v-23.2q0-4.1-1.9-6.4-1.9-2.3-5.8-2.3-2.8 0-5.3 1.4-2.4 1.3-4.5 3.7v26.8z"/><path class="b" d="m497.6 211.5l-8.4 9.2q-0.5 0.6-1 0.8-0.4 0.3-1.2 0.3h-3.8l5.3-8.8q0.5-0.8 1.1-1.2 0.6-0.3 1.8-0.3zm-7.5 15.7v36.4h-6.4v-36.4z"/><path fill-rule="evenodd" class="b" d="m514.4 226.6q4 0 7.2 1.3 3.2 1.3 5.5 3.8 2.2 2.4 3.4 5.9 1.3 3.5 1.3 7.8 0 4.3-1.3 7.7-1.2 3.5-3.4 6-2.3 2.4-5.5 3.7-3.2 1.3-7.2 1.3-4 0-7.2-1.3-3.2-1.3-5.5-3.7-2.3-2.5-3.5-6-1.2-3.4-1.2-7.7 0-4.3 1.2-7.8 1.2-3.5 3.5-5.9 2.3-2.5 5.5-3.8 3.2-1.3 7.2-1.3zm0 32.5q5.4 0 8.1-3.6 2.6-3.6 2.6-10.1 0-6.5-2.6-10.1-2.7-3.7-8.1-3.7-2.7 0-4.8 1-2 0.9-3.3 2.7-1.4 1.7-2 4.3-0.7 2.6-0.7 5.8 0 3.2 0.7 5.8 0.6 2.6 2 4.3 1.3 1.8 3.3 2.7 2.1 0.9 4.8 0.9z"/><path class="b" d="m537.9 263.6v-36.4h3.8q1.4 0 1.7 1.3l0.5 3.7q2-2.5 4.5-4 2.5-1.6 5.8-1.6 3.7 0 6 2 2.3 2.1 3.3 5.6 0.8-2 2-3.4 1.2-1.5 2.8-2.4 1.5-1 3.3-1.4 1.7-0.4 3.5-0.4 2.9 0 5.2 0.9 2.2 0.9 3.8 2.7 1.5 1.7 2.4 4.3 0.8 2.6 0.8 5.9v23.2h-6.4v-23.2q0-4.3-1.9-6.5-1.9-2.2-5.4-2.2-1.6 0-3 0.6-1.4 0.5-2.5 1.6-1.1 1.1-1.7 2.7-0.7 1.6-0.7 3.8v23.2h-6.4v-23.2q0-4.4-1.7-6.5-1.8-2.2-5.2-2.2-2.4 0-4.4 1.3-2 1.2-3.7 3.4v27.2z"/><path class="b" d="m595.2 263.6v-53h6.4v21.5q2.3-2.5 5.2-4 2.8-1.5 6.5-1.5 3 0 5.3 1 2.3 1 3.8 2.8 1.5 1.8 2.3 4.4 0.8 2.5 0.8 5.6v23.2h-6.4v-23.2q0-4.1-1.9-6.4-1.9-2.3-5.7-2.3-2.9 0-5.4 1.4-2.4 1.3-4.5 3.7v26.8z"/><path fill-rule="evenodd" class="b" d="m660.2 263.6h-2.8q-1 0-1.6-0.3-0.5-0.3-0.7-1.2l-0.7-3.4q-1.5 1.3-2.8 2.3-1.4 1.1-2.9 1.8-1.5 0.7-3.2 1-1.8 0.4-3.8 0.4-2.2 0-4-0.6-1.9-0.6-3.2-1.8-1.4-1.2-2.2-3-0.8-1.8-0.8-4.3 0-2.2 1.2-4.2 1.1-2 3.8-3.5 2.6-1.6 6.9-2.6 4.3-1 10.5-1v-2.8q0-4.3-1.8-6.5-1.8-2.2-5.4-2.2-2.3 0-3.9 0.6-1.6 0.6-2.8 1.3-1.2 0.8-2 1.4-0.9 0.5-1.7 0.5-0.7 0-1.1-0.3-0.5-0.3-0.8-0.8l-1.2-2.1q3.1-2.9 6.6-4.4 3.4-1.4 7.7-1.4 3.1 0 5.4 1 2.4 1 4 2.8 1.6 1.8 2.5 4.4 0.8 2.5 0.8 5.6zm-16.6-3.9q1.7 0 3.1-0.4 1.4-0.3 2.6-0.9 1.3-0.7 2.4-1.6 1.1-0.9 2.2-2v-7.5q-4.4 0-7.5 0.5-3.1 0.6-5.1 1.5-1.9 0.9-2.8 2.1-0.9 1.2-0.9 2.8 0 1.4 0.5 2.5 0.5 1 1.3 1.7 0.7 0.7 1.8 1 1.1 0.3 2.4 0.3z"/><path class="b" d="m676.7 215.7q0 0.9-0.4 1.8-0.4 0.8-1 1.4-0.6 0.6-1.5 1-0.8 0.3-1.7 0.3-1 0-1.8-0.3-0.8-0.4-1.4-1-0.6-0.6-1-1.4-0.4-0.9-0.4-1.8 0-0.9 0.4-1.8 0.4-0.8 1-1.4 0.6-0.7 1.4-1 0.8-0.4 1.8-0.4 0.9 0 1.7 0.4 0.9 0.3 1.5 1 0.6 0.6 1 1.4 0.4 0.9 0.4 1.8zm-1.5 11.5v36.4h-6.4v-36.4z"/><path class="b" d="m684.8 263.6v-36.4h3.6q1.1 0 1.5 0.4 0.4 0.3 0.5 1.3l0.4 5.7q1.9-3.8 4.7-6 2.7-2.1 6.4-2.1 1.5 0 2.8 0.4 1.2 0.3 2.2 0.9l-0.8 4.8q-0.3 0.9-1.1 0.9-0.5 0-1.6-0.4-1-0.3-2.9-0.3-3.3 0-5.6 2-2.2 1.9-3.7 5.6v23.2z"/><path fill-rule="evenodd" class="b" d="m726.4 226.6q3.3 0 6.1 1.1 2.7 1.1 4.7 3.1 2.1 2.1 3.2 5.2 1.1 3 1.1 6.9 0 1.5-0.3 2-0.3 0.5-1.2 0.5h-24.3q0.1 3.5 0.9 6 0.9 2.6 2.4 4.3 1.5 1.7 3.6 2.5 2.1 0.9 4.7 0.9 2.4 0 4.2-0.6 1.7-0.5 3-1.2 1.2-0.6 2.1-1.2 0.8-0.5 1.4-0.5 0.8 0 1.3 0.6l1.8 2.3q-1.2 1.5-2.9 2.5-1.6 1.1-3.5 1.8-1.9 0.6-3.9 1-2.1 0.3-4 0.3-3.8 0-7-1.2-3.2-1.3-5.5-3.8-2.3-2.5-3.6-6.1-1.3-3.6-1.3-8.3 0-3.9 1.1-7.2 1.2-3.3 3.4-5.7 2.2-2.4 5.4-3.8 3.1-1.4 7.1-1.4zm0.1 4.7q-4.6 0-7.3 2.7-2.6 2.7-3.3 7.4h19.9q0-2.2-0.6-4.1-0.7-1.8-1.8-3.2-1.2-1.3-2.9-2.1-1.8-0.7-4-0.7z"/><path fill-rule="evenodd" class="b" d="m774.7 263.6h-2.9q-0.9 0-1.5-0.3-0.6-0.3-0.7-1.2l-0.8-3.4q-1.4 1.3-2.8 2.3-1.3 1.1-2.8 1.8-1.6 0.7-3.3 1-1.7 0.4-3.8 0.4-2.1 0-3.9-0.6-1.9-0.6-3.3-1.8-1.3-1.2-2.1-3-0.8-1.8-0.8-4.3 0-2.2 1.1-4.2 1.2-2 3.9-3.5 2.6-1.6 6.9-2.6 4.3-1 10.5-1v-2.8q0-4.3-1.8-6.5-1.9-2.2-5.4-2.2-2.4 0-4 0.6-1.6 0.6-2.7 1.3-1.2 0.8-2.1 1.4-0.8 0.5-1.6 0.5-0.7 0-1.2-0.3-0.4-0.3-0.7-0.8l-1.2-2.1q3-2.9 6.5-4.4 3.5-1.4 7.8-1.4 3 0 5.4 1 2.4 1 4 2.8 1.6 1.8 2.5 4.4 0.8 2.5 0.8 5.6zm-16.7-3.9q1.7 0 3.1-0.4 1.4-0.3 2.7-0.9 1.2-0.7 2.4-1.6 1.1-0.9 2.2-2v-7.5q-4.4 0-7.5 0.5-3.1 0.6-5.1 1.5-1.9 0.9-2.8 2.1-0.9 1.2-0.9 2.8 0 1.4 0.5 2.5 0.4 1 1.2 1.7 0.8 0.7 1.9 1 1.1 0.3 2.3 0.3z"/><path class="b" d="m807.5 233.6q-0.3 0.4-0.6 0.6-0.3 0.3-0.8 0.3-0.6 0-1.2-0.5-0.6-0.4-1.6-1-1-0.5-2.4-1-1.3-0.4-3.4-0.4-2.6 0-4.7 0.9-2 1-3.4 2.8-1.4 1.8-2.1 4.3-0.7 2.6-0.7 5.8 0 3.3 0.7 5.9 0.8 2.5 2.2 4.3 1.3 1.7 3.3 2.6 2 1 4.4 1 2.4 0 3.9-0.6 1.5-0.6 2.5-1.2 1-0.7 1.6-1.3 0.7-0.5 1.3-0.5 0.9 0 1.3 0.6l1.8 2.3q-2.4 2.9-6 4.3-3.5 1.3-7.5 1.3-3.4 0-6.4-1.2-2.9-1.3-5.1-3.7-2.1-2.4-3.4-5.9-1.2-3.5-1.2-7.9 0-4.1 1.1-7.6 1.2-3.4 3.4-5.9 2.1-2.5 5.3-3.9 3.2-1.4 7.4-1.4 3.8 0 6.7 1.2 3 1.3 5.3 3.5z"/><path class="b" d="m814.4 263.6v-53h6.4v21.5q2.4-2.5 5.2-4 2.9-1.5 6.6-1.5 3 0 5.2 1 2.3 1 3.9 2.8 1.5 1.8 2.3 4.4 0.8 2.5 0.8 5.6v23.2h-6.4v-23.2q0-4.1-1.9-6.4-1.9-2.3-5.8-2.3-2.9 0-5.3 1.4-2.5 1.3-4.6 3.7v26.8z"/><path class="b" d="m863.7 264.2q-4.3 0-6.6-2.4-2.4-2.4-2.4-7v-22.3h-4.4q-0.5 0-0.9-0.3-0.4-0.4-0.4-1.1v-2.5l6-0.8 1.4-11.3q0.1-0.5 0.5-0.8 0.4-0.4 1-0.4h3.2v12.6h10.5v4.6h-10.5v21.9q0 2.3 1.2 3.4 1.1 1.1 2.8 1.1 1.1 0 1.8-0.2 0.7-0.3 1.3-0.6 0.5-0.3 0.9-0.6 0.4-0.3 0.7-0.3 0.5 0 0.9 0.6l1.8 3.1q-1.6 1.5-4 2.4-2.3 0.9-4.8 0.9z"/><path class="b" d="m925.9 212v5.9h-16.6v45.7h-7v-45.7h-16.7v-5.9z"/><path class="b" d="m930.5 263.6v-53h6.4v21.5q2.3-2.5 5.2-4 2.8-1.5 6.5-1.5 3 0 5.3 1 2.3 1 3.8 2.8 1.5 1.8 2.3 4.4 0.8 2.5 0.8 5.6v23.2h-6.4v-23.2q0-4.1-1.9-6.4-1.9-2.3-5.7-2.3-2.9 0-5.4 1.4-2.4 1.3-4.5 3.7v26.8z"/><path class="b" d="m974.3 227.2v23.2q0 4.2 1.9 6.4 1.9 2.3 5.7 2.3 2.8 0 5.3-1.3 2.5-1.4 4.6-3.8v-26.8h6.4v36.4h-3.8q-1.4 0-1.7-1.3l-0.5-3.9q-2.4 2.6-5.4 4.2-2.9 1.6-6.7 1.6-3 0-5.3-1-2.3-1-3.9-2.8-1.5-1.8-2.3-4.3-0.7-2.6-0.7-5.7v-23.2z"/><path fill-rule="evenodd" class="b" d="m1033.7 263.6h-2.8q-0.9 0-1.5-0.3-0.6-0.3-0.8-1.2l-0.7-3.4q-1.4 1.3-2.8 2.3-1.4 1.1-2.9 1.8-1.5 0.7-3.2 1-1.7 0.4-3.8 0.4-2.1 0-4-0.6-1.8-0.6-3.2-1.8-1.4-1.2-2.2-3-0.8-1.8-0.8-4.3 0-2.2 1.2-4.2 1.2-2 3.8-3.5 2.7-1.6 7-2.6 4.2-1 10.4-1v-2.8q0-4.3-1.8-6.5-1.8-2.2-5.4-2.2-2.3 0-3.9 0.6-1.6 0.6-2.8 1.3-1.2 0.8-2 1.4-0.8 0.5-1.7 0.5-0.6 0-1.1-0.3-0.5-0.3-0.8-0.8l-1.1-2.1q3-2.9 6.5-4.4 3.5-1.4 7.7-1.4 3.1 0 5.5 1 2.3 1 4 2.8 1.6 1.8 2.4 4.4 0.8 2.5 0.8 5.6zm-16.6-3.9q1.7 0 3.1-0.4 1.4-0.3 2.6-0.9 1.3-0.7 2.4-1.6 1.2-0.9 2.2-2v-7.5q-4.4 0-7.5 0.5-3.1 0.6-5 1.5-2 0.9-2.9 2.1-0.8 1.2-0.8 2.8 0 1.4 0.4 2.5 0.5 1 1.3 1.7 0.8 0.7 1.9 1 1 0.3 2.3 0.3z"/><path class="b" d="m1050.2 215.7q0 0.9-0.4 1.8-0.3 0.8-1 1.4-0.6 0.6-1.4 1-0.9 0.3-1.8 0.3-0.9 0-1.7-0.3-0.8-0.4-1.5-1-0.6-0.6-1-1.4-0.3-0.9-0.3-1.8 0-0.9 0.3-1.8 0.4-0.8 1-1.4 0.7-0.7 1.5-1 0.8-0.4 1.7-0.4 0.9 0 1.8 0.4 0.8 0.3 1.4 1 0.7 0.6 1 1.4 0.4 0.9 0.4 1.8zm-1.4 11.5v36.4h-6.4v-36.4z"/><path class="b" d="m1079.2 233.2q-0.5 0.8-1.4 0.8-0.5 0-1.2-0.4-0.7-0.4-1.7-0.9-1-0.5-2.3-0.9-1.4-0.4-3.3-0.4-1.6 0-2.9 0.4-1.3 0.4-2.2 1.1-0.9 0.7-1.4 1.7-0.5 0.9-0.5 2.1 0 1.4 0.8 2.3 0.8 0.9 2.2 1.6 1.3 0.7 3 1.2 1.7 0.5 3.5 1.1 1.7 0.6 3.4 1.4 1.7 0.7 3.1 1.8 1.3 1 2.1 2.6 0.8 1.6 0.8 3.8 0 2.5-0.9 4.6-0.9 2.2-2.6 3.7-1.8 1.6-4.4 2.5-2.5 0.9-5.9 0.9-3.8 0-6.9-1.2-3.1-1.3-5.2-3.2l1.5-2.5q0.3-0.4 0.7-0.7 0.3-0.2 1-0.2 0.6 0 1.4 0.5 0.7 0.5 1.7 1.1 1 0.6 2.5 1.1 1.5 0.5 3.6 0.5 1.9 0 3.3-0.5 1.4-0.5 2.4-1.3 0.9-0.8 1.4-1.9 0.4-1.1 0.4-2.3 0-1.5-0.8-2.5-0.8-1-2.2-1.7-1.3-0.7-3-1.2-1.7-0.6-3.5-1.1-1.8-0.6-3.5-1.3-1.7-0.8-3-1.9-1.4-1.1-2.2-2.8-0.8-1.6-0.8-3.9 0-2.1 0.9-4.1 0.9-1.9 2.5-3.3 1.7-1.5 4.1-2.4 2.4-0.8 5.5-0.8 3.6 0 6.5 1.1 2.8 1.1 4.9 3.1z"/><path class="b" d="m1112.6 233.6q-0.3 0.4-0.6 0.6-0.3 0.3-0.8 0.3-0.5 0-1.2-0.5-0.6-0.4-1.6-1-0.9-0.5-2.3-1-1.4-0.4-3.4-0.4-2.7 0-4.7 0.9-2.1 1-3.5 2.8-1.4 1.8-2.1 4.3-0.7 2.6-0.7 5.8 0 3.3 0.8 5.9 0.7 2.5 2.1 4.3 1.4 1.7 3.3 2.6 2 1 4.4 1 2.4 0 3.9-0.6 1.5-0.6 2.5-1.2 1-0.7 1.7-1.3 0.6-0.5 1.3-0.5 0.8 0 1.2 0.6l1.8 2.3q-2.4 2.9-5.9 4.3-3.6 1.3-7.6 1.3-3.4 0-6.3-1.2-3-1.3-5.1-3.7-2.2-2.4-3.4-5.9-1.3-3.5-1.3-7.9 0-4.1 1.2-7.6 1.1-3.4 3.3-5.9 2.2-2.5 5.4-3.9 3.2-1.4 7.3-1.4 3.8 0 6.8 1.2 2.9 1.3 5.2 3.5z"/><path fill-rule="evenodd" class="b" d="m1134 226.6q3.3 0 6 1.1 2.8 1.1 4.8 3.1 2 2.1 3.2 5.2 1.1 3 1.1 6.9 0 1.5-0.3 2-0.3 0.5-1.2 0.5h-24.3q0.1 3.5 0.9 6 0.9 2.6 2.4 4.3 1.5 1.7 3.6 2.5 2.1 0.9 4.7 0.9 2.4 0 4.1-0.6 1.8-0.5 3.1-1.2 1.2-0.6 2.1-1.2 0.8-0.5 1.4-0.5 0.8 0 1.2 0.6l1.8 2.3q-1.1 1.5-2.8 2.5-1.7 1.1-3.5 1.8-1.9 0.6-4 1-2 0.3-4 0.3-3.7 0-6.9-1.2-3.2-1.3-5.5-3.8-2.3-2.5-3.6-6.1-1.3-3.6-1.3-8.3 0-3.9 1.1-7.2 1.2-3.3 3.4-5.7 2.2-2.4 5.4-3.8 3.1-1.4 7.1-1.4zm0.1 4.7q-4.6 0-7.3 2.7-2.6 2.7-3.3 7.4h19.8q0-2.2-0.6-4.1-0.6-1.8-1.8-3.2-1.2-1.3-2.9-2.1-1.7-0.7-3.9-0.7z"/><path fill-rule="evenodd" class="b" d="m1182.3 263.6h-2.9q-0.9 0-1.5-0.3-0.6-0.3-0.7-1.2l-0.8-3.4q-1.4 1.3-2.8 2.3-1.3 1.1-2.9 1.8-1.5 0.7-3.2 1-1.7 0.4-3.8 0.4-2.1 0-4-0.6-1.8-0.6-3.2-1.8-1.3-1.2-2.2-3-0.8-1.8-0.8-4.3 0-2.2 1.2-4.2 1.2-2 3.9-3.5 2.6-1.6 6.9-2.6 4.3-1 10.5-1v-2.8q0-4.3-1.9-6.5-1.8-2.2-5.3-2.2-2.4 0-4 0.6-1.6 0.6-2.7 1.3-1.2 0.8-2.1 1.4-0.8 0.5-1.6 0.5-0.7 0-1.2-0.3-0.5-0.3-0.7-0.8l-1.2-2.1q3-2.9 6.5-4.4 3.5-1.4 7.8-1.4 3 0 5.4 1 2.4 1 4 2.8 1.6 1.8 2.4 4.4 0.9 2.5 0.9 5.6zm-16.7-3.9q1.7 0 3.1-0.4 1.4-0.3 2.7-0.9 1.2-0.7 2.4-1.6 1.1-0.9 2.2-2v-7.5q-4.5 0-7.6 0.5-3.1 0.6-5 1.5-1.9 0.9-2.8 2.1-0.9 1.2-0.9 2.8 0 1.4 0.5 2.5 0.4 1 1.2 1.7 0.8 0.7 1.9 1 1.1 0.3 2.3 0.3z"/><path class="b" d="m1190.2 263.6v-36.4h3.7q1 0 1.4 0.4 0.4 0.3 0.5 1.3l0.5 5.7q1.8-3.8 4.6-6 2.7-2.1 6.5-2.1 1.5 0 2.7 0.4 1.2 0.3 2.3 0.9l-0.9 4.8q-0.2 0.9-1.1 0.9-0.5 0-1.5-0.4-1.1-0.3-2.9-0.3-3.4 0-5.6 2-2.3 1.9-3.8 5.6v23.2z"/><path class="b" d="m1228.5 264.2q-4.4 0-6.7-2.4-2.3-2.4-2.3-7v-22.3h-4.4q-0.6 0-1-0.3-0.4-0.4-0.4-1.1v-2.5l6-0.8 1.5-11.3q0.1-0.5 0.4-0.8 0.4-0.4 1.1-0.4h3.2v12.6h10.4v4.6h-10.4v21.9q0 2.3 1.1 3.4 1.1 1.1 2.9 1.1 1 0 1.7-0.2 0.8-0.3 1.3-0.6 0.6-0.3 0.9-0.6 0.4-0.3 0.7-0.3 0.5 0 0.9 0.6l1.9 3.1q-1.7 1.5-4 2.4-2.4 0.9-4.8 0.9z"/><path class="b" d="m1287.3 212v5.7h-24.7v17.2h20v5.4h-20v17.6h24.7v5.7h-31.7v-51.6zm-3.2-12.5l-10.6 7.7q-0.6 0.5-1.1 0.6-0.4 0.2-1.2 0.2h-5l7.6-7.3q0.4-0.4 0.7-0.6 0.3-0.2 0.6-0.4 0.4-0.1 0.7-0.2 0.4 0 1.1 0z"/><path class="b" d="m1303.2 215.7q0 0.9-0.4 1.8-0.4 0.8-1 1.4-0.7 0.6-1.5 1-0.8 0.3-1.8 0.3-0.9 0-1.7-0.3-0.8-0.4-1.4-1-0.7-0.6-1-1.4-0.4-0.9-0.4-1.8 0-0.9 0.4-1.8 0.3-0.8 1-1.4 0.6-0.7 1.4-1 0.8-0.4 1.7-0.4 1 0 1.8 0.4 0.8 0.3 1.5 1 0.6 0.6 1 1.4 0.4 0.9 0.4 1.8zm-1.5 11.5v36.4h-6.4v-36.4z"/><path class="b" d="m1311.2 263.6v-36.4h3.7q1 0 1.4 0.4 0.4 0.3 0.6 1.3l0.4 5.7q1.9-3.8 4.6-6 2.8-2.1 6.5-2.1 1.5 0 2.7 0.4 1.2 0.3 2.3 0.9l-0.8 4.8q-0.3 0.9-1.2 0.9-0.5 0-1.5-0.4-1-0.3-2.9-0.3-3.4 0-5.6 2-2.3 1.9-3.8 5.6v23.2z"/><path fill-rule="evenodd" class="b" d="m1352.9 226.6q3.2 0 6 1.1 2.8 1.1 4.8 3.1 2 2.1 3.2 5.2 1.1 3 1.1 6.9 0 1.5-0.3 2-0.4 0.5-1.3 0.5h-24.2q0 3.5 0.9 6 0.9 2.6 2.4 4.3 1.5 1.7 3.6 2.5 2.1 0.9 4.7 0.9 2.4 0 4.1-0.6 1.8-0.5 3-1.2 1.3-0.6 2.1-1.2 0.9-0.5 1.5-0.5 0.8 0 1.2 0.6l1.8 2.3q-1.2 1.5-2.8 2.5-1.7 1.1-3.6 1.8-1.9 0.6-3.9 1-2 0.3-4 0.3-3.8 0-6.9-1.2-3.2-1.3-5.5-3.8-2.4-2.5-3.7-6.1-1.3-3.6-1.3-8.3 0-3.9 1.2-7.2 1.2-3.3 3.4-5.7 2.2-2.4 5.3-3.8 3.2-1.4 7.2-1.4zm0.1 4.7q-4.6 0-7.3 2.7-2.7 2.7-3.3 7.4h19.8q0-2.2-0.6-4.1-0.6-1.8-1.8-3.2-1.2-1.3-2.9-2.1-1.7-0.7-3.9-0.7z"/><path fill-rule="evenodd" class="b" d="m1401.1 263.6h-2.8q-0.9 0-1.5-0.3-0.6-0.3-0.8-1.2l-0.7-3.4q-1.4 1.3-2.8 2.3-1.4 1.1-2.9 1.8-1.5 0.7-3.2 1-1.7 0.4-3.8 0.4-2.1 0-4-0.6-1.8-0.6-3.2-1.8-1.4-1.2-2.2-3-0.8-1.8-0.8-4.3 0-2.2 1.2-4.2 1.2-2 3.8-3.5 2.7-1.6 7-2.6 4.2-1 10.4-1v-2.8q0-4.3-1.8-6.5-1.8-2.2-5.4-2.2-2.3 0-3.9 0.6-1.6 0.6-2.8 1.3-1.1 0.8-2 1.4-0.8 0.5-1.7 0.5-0.6 0-1.1-0.3-0.5-0.3-0.8-0.8l-1.1-2.1q3-2.9 6.5-4.4 3.5-1.4 7.7-1.4 3.1 0 5.5 1 2.3 1 4 2.8 1.6 1.8 2.4 4.4 0.8 2.5 0.8 5.6zm-16.6-3.9q1.7 0 3.1-0.4 1.4-0.3 2.7-0.9 1.2-0.7 2.3-1.6 1.2-0.9 2.2-2v-7.5q-4.4 0-7.5 0.5-3.1 0.6-5 1.5-2 0.9-2.8 2.1-0.9 1.2-0.9 2.8 0 1.4 0.4 2.5 0.5 1 1.3 1.7 0.8 0.7 1.9 1 1 0.3 2.3 0.3z"/><path class="b" d="m1409.1 263.6v-36.4h3.8q1.3 0 1.7 1.3l0.5 3.9q2.4-2.6 5.3-4.2 3-1.6 6.8-1.6 3 0 5.3 1 2.3 1 3.8 2.8 1.5 1.8 2.3 4.4 0.8 2.5 0.8 5.6v23.2h-6.4v-23.2q0-4.1-1.9-6.4-1.9-2.3-5.8-2.3-2.8 0-5.3 1.4-2.4 1.3-4.5 3.7v26.8z"/><path class="b" d="m1447.3 263.6v-36.4h3.8q1.4 0 1.7 1.3l0.5 3.9q2.4-2.6 5.4-4.2 2.9-1.6 6.7-1.6 3 0 5.3 1 2.3 1 3.8 2.8 1.6 1.8 2.3 4.4 0.8 2.5 0.8 5.6v23.2h-6.4v-23.2q0-4.1-1.9-6.4-1.8-2.3-5.7-2.3-2.9 0-5.3 1.4-2.5 1.3-4.6 3.7v26.8z"/><path class="b" d="m399.3 297.2v23.2q0 4.2 1.9 6.4 1.9 2.3 5.7 2.3 2.9 0 5.3-1.3 2.5-1.4 4.6-3.8v-26.8h6.4v36.4h-3.8q-1.4 0-1.7-1.3l-0.5-3.9q-2.4 2.6-5.4 4.2-2.9 1.6-6.7 1.6-3 0-5.3-1-2.3-1-3.8-2.8-1.6-1.8-2.4-4.3-0.7-2.6-0.7-5.7v-23.2z"/><path class="b" d="m432 333.6v-36.4h3.8q1.3 0 1.7 1.3l0.5 3.7q2-2.5 4.5-4 2.5-1.6 5.8-1.6 3.7 0 6 2 2.3 2.1 3.3 5.6 0.8-2 2-3.4 1.2-1.5 2.8-2.4 1.5-1 3.3-1.4 1.7-0.4 3.5-0.4 2.9 0 5.2 0.9 2.2 0.9 3.8 2.7 1.5 1.7 2.4 4.3 0.8 2.6 0.8 5.9v23.2h-6.4v-23.2q0-4.3-1.9-6.5-1.9-2.2-5.4-2.2-1.6 0-3 0.6-1.5 0.5-2.5 1.6-1.1 1.1-1.7 2.7-0.7 1.6-0.7 3.8v23.2h-6.4v-23.2q0-4.4-1.7-6.5-1.8-2.2-5.2-2.2-2.4 0-4.4 1.3-2 1.2-3.7 3.4v27.2z"/><path class="b" d="m528.8 290.1q-0.3 0.5-0.7 0.8-0.3 0.3-0.9 0.3-0.6 0-1.4-0.6-0.9-0.6-2.1-1.4-1.2-0.7-3-1.3-1.7-0.6-4.2-0.6-2.4 0-4.2 0.6-1.8 0.6-3 1.7-1.2 1.1-1.8 2.5-0.6 1.5-0.6 3.2 0 2.1 1.1 3.6 1 1.4 2.8 2.4 1.7 1 3.9 1.7 2.3 0.8 4.6 1.6 2.3 0.8 4.5 1.8 2.2 0.9 4 2.5 1.7 1.5 2.8 3.7 1 2.2 1 5.4 0 3.3-1.1 6.3-1.2 3-3.4 5.2-2.2 2.2-5.4 3.4-3.2 1.3-7.3 1.3-5 0-9.2-1.8-4.1-1.8-7-4.9l2-3.3q0.3-0.4 0.7-0.7 0.4-0.3 0.9-0.3 0.8 0 1.8 0.8 0.9 0.8 2.4 1.8 1.5 1 3.5 1.8 2.1 0.8 5.1 0.8 2.5 0 4.4-0.7 2-0.7 3.3-1.9 1.4-1.2 2.1-3 0.7-1.7 0.7-3.8 0-2.4-1.1-3.9-1-1.5-2.8-2.5-1.7-1-3.9-1.7-2.2-0.7-4.5-1.4-2.4-0.8-4.6-1.7-2.2-1-3.9-2.5-1.7-1.6-2.8-3.9-1.1-2.3-1.1-5.8 0-2.7 1.1-5.2 1.1-2.6 3.1-4.6 2-2 5-3.2 2.9-1.1 6.8-1.1 4.3 0 7.9 1.3 3.5 1.4 6.2 4z"/><path class="b" d="m548.8 334.2q-4.3 0-6.7-2.4-2.3-2.4-2.3-7v-22.3h-4.4q-0.6 0-0.9-0.3-0.4-0.4-0.4-1.1v-2.5l5.9-0.8 1.5-11.3q0.1-0.5 0.5-0.8 0.4-0.4 1-0.4h3.2v12.6h10.5v4.6h-10.5v21.9q0 2.3 1.1 3.4 1.2 1.1 2.9 1.1 1 0 1.8-0.2 0.7-0.3 1.2-0.6 0.6-0.3 1-0.6 0.3-0.3 0.6-0.3 0.5 0 0.9 0.6l1.9 3.1q-1.7 1.5-4 2.4-2.3 0.9-4.8 0.9z"/><path fill-rule="evenodd" class="b" d="m589.6 333.6h-2.9q-0.9 0-1.5-0.3-0.6-0.3-0.7-1.2l-0.8-3.4q-1.4 1.3-2.8 2.3-1.3 1.1-2.9 1.8-1.5 0.7-3.2 1-1.7 0.4-3.8 0.4-2.1 0-3.9-0.6-1.9-0.6-3.3-1.8-1.3-1.2-2.1-3-0.9-1.8-0.9-4.3 0-2.2 1.2-4.2 1.2-2 3.9-3.5 2.6-1.6 6.9-2.6 4.3-1 10.5-1v-2.8q0-4.3-1.8-6.5-1.9-2.2-5.4-2.2-2.4 0-4 0.6-1.6 0.6-2.7 1.3-1.2 0.8-2.1 1.4-0.8 0.5-1.6 0.5-0.7 0-1.2-0.3-0.5-0.3-0.7-0.8l-1.2-2.1q3-2.9 6.5-4.4 3.5-1.4 7.8-1.4 3 0 5.4 1 2.4 1 4 2.8 1.6 1.8 2.4 4.4 0.9 2.5 0.9 5.6zm-16.7-3.9q1.7 0 3.1-0.4 1.4-0.3 2.7-0.9 1.2-0.7 2.4-1.6 1.1-0.9 2.2-2v-7.5q-4.5 0-7.6 0.5-3.1 0.6-5 1.5-1.9 0.9-2.8 2.1-0.9 1.2-0.9 2.8 0 1.4 0.5 2.5 0.4 1 1.2 1.7 0.8 0.7 1.9 1 1.1 0.3 2.3 0.3z"/><path class="b" d="m606.1 285.7q0 0.9-0.4 1.8-0.4 0.8-1 1.4-0.7 0.6-1.5 1-0.8 0.3-1.8 0.3-0.9 0-1.7-0.3-0.8-0.4-1.4-1-0.7-0.6-1-1.4-0.4-0.9-0.4-1.8 0-0.9 0.4-1.8 0.3-0.8 1-1.4 0.6-0.7 1.4-1 0.8-0.4 1.7-0.4 1 0 1.8 0.4 0.8 0.3 1.5 1 0.6 0.6 1 1.4 0.4 0.9 0.4 1.8zm-1.5 11.5v36.4h-6.4v-36.4z"/><path class="b" d="m625.2 334.2q-4.3 0-6.7-2.4-2.3-2.4-2.3-7v-22.3h-4.4q-0.6 0-1-0.3-0.4-0.4-0.4-1.1v-2.5l6-0.8 1.5-11.3q0.1-0.5 0.5-0.8 0.4-0.4 1-0.4h3.2v12.6h10.5v4.6h-10.5v21.9q0 2.3 1.1 3.4 1.1 1.1 2.9 1.1 1 0 1.8-0.2 0.7-0.3 1.2-0.6 0.6-0.3 1-0.6 0.3-0.3 0.6-0.3 0.5 0 0.9 0.6l1.9 3.1q-1.7 1.5-4 2.4-2.3 0.9-4.8 0.9z"/><path class="b" d="m647.7 285.7q0 0.9-0.3 1.8-0.4 0.8-1 1.4-0.7 0.6-1.5 1-0.8 0.3-1.8 0.3-0.9 0-1.7-0.3-0.8-0.4-1.5-1-0.6-0.6-0.9-1.4-0.4-0.9-0.4-1.8 0-0.9 0.4-1.8 0.3-0.8 0.9-1.4 0.7-0.7 1.5-1 0.8-0.4 1.7-0.4 1 0 1.8 0.4 0.8 0.3 1.5 1 0.6 0.6 1 1.4 0.3 0.9 0.3 1.8zm-1.4 11.5v36.4h-6.4v-36.4z"/><path class="b" d="m676.7 303.2q-0.4 0.8-1.3 0.8-0.6 0-1.3-0.4-0.7-0.4-1.6-0.9-1-0.5-2.4-0.9-1.4-0.4-3.2-0.4-1.7 0-3 0.4-1.3 0.4-2.2 1.1-0.9 0.7-1.4 1.7-0.5 0.9-0.5 2.1 0 1.4 0.8 2.3 0.9 0.9 2.2 1.6 1.3 0.7 3 1.2 1.7 0.5 3.5 1.1 1.8 0.6 3.5 1.4 1.7 0.7 3 1.8 1.3 1 2.1 2.6 0.8 1.6 0.8 3.8 0 2.5-0.9 4.6-0.9 2.2-2.6 3.7-1.8 1.6-4.3 2.5-2.6 0.9-5.9 0.9-3.9 0-7-1.2-3.1-1.3-5.2-3.2l1.5-2.5q0.3-0.4 0.7-0.7 0.4-0.2 1-0.2 0.7 0 1.4 0.5 0.7 0.5 1.7 1.1 1.1 0.6 2.5 1.1 1.5 0.5 3.7 0.5 1.8 0 3.3-0.5 1.4-0.5 2.3-1.3 0.9-0.8 1.4-1.9 0.4-1.1 0.4-2.3 0-1.5-0.8-2.5-0.8-1-2.1-1.7-1.4-0.7-3.1-1.2-1.7-0.6-3.5-1.1-1.7-0.6-3.5-1.3-1.7-0.8-3-1.9-1.3-1.1-2.1-2.8-0.8-1.6-0.8-3.9 0-2.1 0.8-4.1 0.9-1.9 2.5-3.3 1.7-1.5 4.1-2.4 2.4-0.8 5.5-0.8 3.6 0 6.5 1.1 2.8 1.1 4.9 3.1z"/><path class="b" d="m696.3 334.2q-4.3 0-6.6-2.4-2.4-2.4-2.4-7v-22.3h-4.4q-0.5 0-0.9-0.3-0.4-0.4-0.4-1.1v-2.5l6-0.8 1.4-11.3q0.1-0.5 0.5-0.8 0.4-0.4 1-0.4h3.2v12.6h10.5v4.6h-10.5v21.9q0 2.3 1.2 3.4 1.1 1.1 2.8 1.1 1.1 0 1.8-0.2 0.7-0.3 1.3-0.6 0.5-0.3 0.9-0.6 0.4-0.3 0.7-0.3 0.5 0 0.9 0.6l1.8 3.1q-1.6 1.5-4 2.4-2.3 0.9-4.8 0.9z"/><path class="b" d="m718.9 285.7q0 0.9-0.4 1.8-0.4 0.8-1 1.4-0.6 0.6-1.5 1-0.8 0.3-1.7 0.3-1 0-1.8-0.3-0.8-0.4-1.4-1-0.6-0.6-1-1.4-0.4-0.9-0.4-1.8 0-0.9 0.4-1.8 0.4-0.8 1-1.4 0.6-0.7 1.4-1 0.8-0.4 1.8-0.4 0.9 0 1.7 0.4 0.9 0.3 1.5 1 0.6 0.6 1 1.4 0.4 0.9 0.4 1.8zm-1.5 11.5v36.4h-6.4v-36.4z"/><path class="b" d="m751.8 303.6q-0.3 0.4-0.6 0.6-0.2 0.3-0.8 0.3-0.5 0-1.2-0.5-0.6-0.4-1.6-1-0.9-0.5-2.3-1-1.4-0.4-3.4-0.4-2.7 0-4.7 0.9-2.1 1-3.5 2.8-1.4 1.8-2.1 4.3-0.7 2.6-0.7 5.8 0 3.3 0.8 5.9 0.7 2.5 2.1 4.3 1.4 1.7 3.3 2.6 2 1 4.5 1 2.3 0 3.8-0.6 1.5-0.6 2.5-1.2 1-0.7 1.7-1.3 0.6-0.5 1.3-0.5 0.8 0 1.2 0.6l1.8 2.3q-2.4 2.9-5.9 4.3-3.6 1.3-7.6 1.3-3.4 0-6.3-1.2-2.9-1.3-5.1-3.7-2.2-2.4-3.4-5.9-1.3-3.5-1.3-7.9 0-4.1 1.2-7.6 1.1-3.4 3.3-5.9 2.2-2.5 5.4-3.9 3.2-1.4 7.3-1.4 3.8 0 6.8 1.2 2.9 1.3 5.2 3.5z"/><path class="b" d="m773.4 281.5l-8.4 9.2q-0.5 0.6-1 0.8-0.5 0.3-1.2 0.3h-3.9l5.4-8.8q0.5-0.8 1.1-1.2 0.6-0.3 1.7-0.3zm-7.5 15.7v36.4h-6.4v-36.4z"/><path fill-rule="evenodd" class="b" d="m814.3 333.6h-2.9q-0.9 0-1.5-0.3-0.6-0.3-0.7-1.2l-0.8-3.4q-1.4 1.3-2.8 2.3-1.3 1.1-2.8 1.8-1.6 0.7-3.3 1-1.7 0.4-3.8 0.4-2.1 0-3.9-0.6-1.9-0.6-3.3-1.8-1.3-1.2-2.1-3-0.9-1.8-0.9-4.3 0-2.2 1.2-4.2 1.2-2 3.9-3.5 2.6-1.6 6.9-2.6 4.3-1 10.5-1v-2.8q0-4.3-1.8-6.5-1.9-2.2-5.4-2.2-2.4 0-4 0.6-1.6 0.6-2.7 1.3-1.2 0.8-2.1 1.4-0.8 0.5-1.6 0.5-0.7 0-1.2-0.3-0.4-0.3-0.7-0.8l-1.2-2.1q3-2.9 6.5-4.4 3.5-1.4 7.8-1.4 3 0 5.4 1 2.4 1 4 2.8 1.6 1.8 2.4 4.4 0.9 2.5 0.9 5.6zm-16.7-3.9q1.7 0 3.1-0.4 1.4-0.3 2.7-0.9 1.2-0.7 2.4-1.6 1.1-0.9 2.2-2v-7.5q-4.5 0-7.5 0.5-3.1 0.6-5.1 1.5-1.9 0.9-2.8 2.1-0.9 1.2-0.9 2.8 0 1.4 0.5 2.5 0.4 1 1.2 1.7 0.8 0.7 1.9 1 1.1 0.3 2.3 0.3z"/><path fill-rule="evenodd" class="b" d="m834.5 296.5q2.3 0 4.4 0.6 2.1 0.5 3.8 1.5h9.9v2.4q0 1.2-1.5 1.5l-4.2 0.6q1.2 2.3 1.2 5.2 0 2.6-1 4.8-1 2.2-2.8 3.7-1.8 1.6-4.3 2.4-2.5 0.9-5.5 0.9-2.6 0-4.9-0.7-1.1 0.8-1.7 1.6-0.6 0.9-0.6 1.7 0 1.4 1 2 1.1 0.7 2.8 1 1.7 0.3 3.9 0.3 2.2 0 4.5 0 2.3 0 4.5 0.4 2.2 0.4 3.9 1.3 1.8 1 2.8 2.6 1 1.6 1 4.1 0 2.4-1.1 4.6-1.2 2.2-3.4 4-2.2 1.7-5.4 2.7-3.1 1.1-7.1 1.1-4 0-7-0.8-3-0.8-5-2.2-2-1.3-3-3-1-1.8-1-3.7 0-2.7 1.7-4.6 1.8-1.9 4.7-3-1.5-0.7-2.4-1.9-0.9-1.2-0.9-3.2 0-0.8 0.2-1.7 0.3-0.8 0.9-1.6 0.6-0.9 1.5-1.6 0.9-0.8 2-1.4-2.7-1.5-4.2-4-1.6-2.5-1.6-5.8 0-2.7 1.1-4.9 1-2.1 2.8-3.7 1.9-1.5 4.4-2.3 2.5-0.9 5.6-0.9zm11.3 39q0-1.4-0.7-2.3-0.8-0.8-2.1-1.3-1.3-0.4-3-0.6-1.6-0.3-3.5-0.3-1.9 0-3.8 0-2 0-3.7-0.5-2.1 1-3.4 2.4-1.2 1.4-1.2 3.4 0 1.2 0.6 2.3 0.6 1 1.9 1.8 1.3 0.8 3.3 1.2 1.9 0.5 4.6 0.5 2.6 0 4.6-0.5 2.1-0.5 3.5-1.4 1.4-0.8 2.2-2 0.7-1.3 0.7-2.7zm-11.3-19.7q1.9 0 3.4-0.5 1.5-0.6 2.5-1.5 1-1 1.5-2.4 0.5-1.3 0.5-2.9 0-3.4-2-5.4-2-1.9-5.9-1.9-3.9 0-5.9 1.9-2.1 2-2.1 5.4 0 1.6 0.6 2.9 0.5 1.4 1.5 2.4 1 0.9 2.5 1.5 1.5 0.5 3.4 0.5z"/><path class="b" d="m862.7 297.2v23.2q0 4.2 1.9 6.4 1.9 2.3 5.8 2.3 2.8 0 5.3-1.3 2.5-1.4 4.6-3.8v-26.8h6.4v36.4h-3.8q-1.4 0-1.8-1.3l-0.5-3.9q-2.4 2.6-5.3 4.2-3 1.6-6.8 1.6-3 0-5.2-1-2.3-1-3.9-2.8-1.5-1.8-2.3-4.3-0.8-2.6-0.8-5.7v-23.2z"/><path class="b" d="m916.3 303.2q-0.4 0.8-1.3 0.8-0.6 0-1.3-0.4-0.6-0.4-1.6-0.9-1-0.5-2.4-0.9-1.4-0.4-3.2-0.4-1.7 0-2.9 0.4-1.3 0.4-2.3 1.1-0.9 0.7-1.4 1.7-0.5 0.9-0.5 2.1 0 1.4 0.9 2.3 0.8 0.9 2.1 1.6 1.3 0.7 3 1.2 1.7 0.5 3.5 1.1 1.8 0.6 3.5 1.4 1.7 0.7 3 1.8 1.3 1 2.1 2.6 0.8 1.6 0.8 3.8 0 2.5-0.9 4.6-0.9 2.2-2.6 3.7-1.8 1.6-4.3 2.5-2.6 0.9-5.9 0.9-3.9 0-7-1.2-3-1.3-5.2-3.2l1.5-2.5q0.3-0.4 0.7-0.7 0.4-0.2 1-0.2 0.7 0 1.4 0.5 0.7 0.5 1.7 1.1 1.1 0.6 2.5 1.1 1.5 0.5 3.7 0.5 1.9 0 3.3-0.5 1.4-0.5 2.3-1.3 0.9-0.8 1.4-1.9 0.4-1.1 0.4-2.3 0-1.5-0.8-2.5-0.8-1-2.1-1.7-1.3-0.7-3.1-1.2-1.7-0.6-3.4-1.1-1.8-0.6-3.5-1.3-1.8-0.8-3.1-1.9-1.3-1.1-2.1-2.8-0.8-1.6-0.8-3.9 0-2.1 0.8-4.1 0.9-1.9 2.5-3.3 1.7-1.5 4.1-2.4 2.4-0.8 5.5-0.8 3.6 0 6.5 1.1 2.8 1.1 4.9 3.1z"/><path class="b" d="m973.1 282v5.9h-16.7v45.7h-6.9v-45.7h-16.8v-5.9z"/><path fill-rule="evenodd" class="b" d="m995.4 333.6h-2.8q-1 0-1.5-0.3-0.6-0.3-0.8-1.2l-0.7-3.4q-1.4 1.3-2.8 2.3-1.4 1.1-2.9 1.8-1.5 0.7-3.2 1-1.7 0.4-3.8 0.4-2.1 0-4-0.6-1.8-0.6-3.2-1.8-1.4-1.2-2.2-3-0.8-1.8-0.8-4.3 0-2.2 1.2-4.2 1.2-2 3.8-3.5 2.7-1.6 6.9-2.6 4.3-1 10.5-1v-2.8q0-4.3-1.8-6.5-1.8-2.2-5.4-2.2-2.3 0-3.9 0.6-1.6 0.6-2.8 1.3-1.2 0.8-2 1.4-0.9 0.5-1.7 0.5-0.6 0-1.1-0.3-0.5-0.3-0.8-0.8l-1.1-2.1q3-2.9 6.5-4.4 3.5-1.4 7.7-1.4 3.1 0 5.5 1 2.3 1 3.9 2.8 1.7 1.8 2.5 4.4 0.8 2.5 0.8 5.6zm-16.6-3.9q1.7 0 3.1-0.4 1.4-0.3 2.6-0.9 1.3-0.7 2.4-1.6 1.1-0.9 2.2-2v-7.5q-4.4 0-7.5 0.5-3.1 0.6-5 1.5-2 0.9-2.9 2.1-0.8 1.2-0.8 2.8 0 1.4 0.4 2.5 0.5 1 1.3 1.7 0.8 0.7 1.9 1 1 0.3 2.3 0.3z"/><path class="b" d="m1011.9 285.7q0 0.9-0.4 1.8-0.3 0.8-1 1.4-0.6 0.6-1.4 1-0.9 0.3-1.8 0.3-0.9 0-1.7-0.3-0.9-0.4-1.5-1-0.6-0.6-1-1.4-0.3-0.9-0.3-1.8 0-0.9 0.3-1.8 0.4-0.8 1-1.4 0.6-0.7 1.5-1 0.8-0.4 1.7-0.4 0.9 0 1.8 0.4 0.8 0.3 1.4 1 0.7 0.6 1 1.4 0.4 0.9 0.4 1.8zm-1.4 11.5v36.4h-6.4v-36.4z"/><path fill-rule="evenodd" class="b" d="m1032.3 296.5q2.3 0 4.4 0.6 2.1 0.5 3.8 1.5h9.9v2.4q0 1.2-1.6 1.5l-4.1 0.6q1.2 2.3 1.2 5.2 0 2.6-1 4.8-1 2.2-2.8 3.7-1.9 1.6-4.4 2.4-2.5 0.9-5.4 0.9-2.6 0-4.9-0.7-1.1 0.8-1.7 1.6-0.6 0.9-0.6 1.7 0 1.4 1 2 1.1 0.7 2.8 1 1.7 0.3 3.9 0.3 2.2 0 4.5 0 2.3 0 4.5 0.4 2.2 0.4 3.9 1.3 1.7 1 2.8 2.6 1 1.6 1 4.1 0 2.4-1.1 4.6-1.2 2.2-3.4 4-2.2 1.7-5.4 2.7-3.1 1.1-7.1 1.1-4 0-7-0.8-3-0.8-5-2.2-2-1.3-3-3-1-1.8-1-3.7 0-2.7 1.7-4.6 1.7-1.9 4.7-3-1.5-0.7-2.4-1.9-1-1.2-1-3.2 0-0.8 0.3-1.7 0.3-0.8 0.9-1.6 0.6-0.9 1.5-1.6 0.8-0.8 2-1.4-2.7-1.5-4.2-4-1.6-2.5-1.6-5.8 0-2.7 1.1-4.9 1-2.1 2.8-3.7 1.9-1.5 4.4-2.3 2.5-0.9 5.6-0.9zm11.3 39q0-1.4-0.7-2.3-0.8-0.8-2.1-1.3-1.3-0.4-3-0.6-1.7-0.3-3.5-0.3-1.9 0-3.8 0-2 0-3.8-0.5-2 1-3.3 2.4-1.3 1.4-1.3 3.4 0 1.2 0.7 2.3 0.6 1 1.9 1.8 1.3 0.8 3.2 1.2 2 0.5 4.7 0.5 2.6 0 4.6-0.5 2.1-0.5 3.5-1.4 1.4-0.8 2.2-2 0.7-1.3 0.7-2.7zm-11.3-19.7q1.9 0 3.4-0.5 1.5-0.6 2.5-1.5 1-1 1.5-2.4 0.5-1.3 0.5-2.9 0-3.4-2-5.4-2.1-1.9-5.9-1.9-3.9 0-5.9 1.9-2.1 2-2.1 5.4 0 1.6 0.6 2.9 0.5 1.4 1.5 2.4 1 0.9 2.5 1.5 1.4 0.5 3.4 0.5z"/><path class="b" d="m1055 333.6v-53h6.4v21.5q2.3-2.5 5.2-4 2.8-1.5 6.5-1.5 3 0 5.3 1 2.3 1 3.8 2.8 1.5 1.8 2.3 4.4 0.8 2.5 0.8 5.6v23.2h-6.4v-23.2q0-4.1-1.9-6.4-1.9-2.3-5.8-2.3-2.8 0-5.3 1.4-2.4 1.3-4.5 3.7v26.8z"/><path fill-rule="evenodd" class="b" d="m1118.9 333.6q-1.4 0-1.8-1.3l-0.5-4.4q-2.4 2.8-5.4 4.5-3 1.7-6.9 1.7-3.1 0-5.7-1.2-2.5-1.2-4.3-3.5-1.8-2.4-2.8-5.9-1-3.4-1-8 0-4 1.1-7.5 1.1-3.5 3.1-6 2.1-2.6 5-4 2.9-1.5 6.6-1.5 3.3 0 5.7 1.1 2.4 1.2 4.3 3.2v-20.2h6.4v53zm-12.4-4.7q3.1 0 5.5-1.4 2.3-1.4 4.3-4.1v-17.6q-1.8-2.4-3.9-3.3-2.1-1-4.6-1-5.2 0-7.9 3.6-2.7 3.7-2.7 10.4 0 3.6 0.6 6.1 0.6 2.6 1.8 4.2 1.2 1.6 2.9 2.4 1.7 0.7 4 0.7z"/><path fill-rule="evenodd" class="b" d="m1146.1 296.6q3.3 0 6 1.1 2.8 1.1 4.8 3.1 2 2.1 3.2 5.2 1.1 3 1.1 6.9 0 1.5-0.3 2-0.3 0.5-1.2 0.5h-24.3q0.1 3.5 0.9 6 0.9 2.6 2.4 4.3 1.5 1.7 3.6 2.5 2.1 0.9 4.7 0.9 2.4 0 4.1-0.6 1.8-0.5 3-1.2 1.3-0.6 2.2-1.2 0.8-0.5 1.4-0.5 0.8 0 1.2 0.6l1.8 2.3q-1.2 1.5-2.8 2.5-1.7 1.1-3.6 1.8-1.8 0.6-3.9 1-2 0.3-4 0.3-3.7 0-6.9-1.2-3.2-1.3-5.5-3.8-2.4-2.5-3.7-6.1-1.2-3.6-1.2-8.3 0-3.9 1.1-7.2 1.2-3.3 3.4-5.7 2.2-2.4 5.4-3.8 3.1-1.4 7.1-1.4zm0.1 4.7q-4.6 0-7.3 2.7-2.6 2.7-3.3 7.4h19.8q0-2.2-0.6-4.1-0.6-1.8-1.8-3.2-1.2-1.3-2.9-2.1-1.7-0.7-3.9-0.7z"/><path class="b" d="m388.5 181.1h1094.4"/><path class="b" d="m1482.9 182.1h-1094.4v-2h1094.4z"/></svg>