<svg id="Layer_1" data-name="Layer 1" xmlns="http://www.w3.org/2000/svg" viewBox="0 0 100 100" width="100px" height="100px" preserveAspectRatio="xMinYMid"><defs><style>.cls-1{fill:#000;fill-rule:evenodd;}</style></defs><title>search-icon</title><path class="cls-1" d="M97.5,77.89a6,6,0,0,1-8.25,1.49L64.89,62.65a5.85,5.85,0,0,1-2.55-5A21.59,21.59,0,0,1,25.4,46.81a21.16,21.16,0,0,1,3.47-16,21.69,21.69,0,0,1,30-5.42,21.36,21.36,0,0,1,7.1,27,6,6,0,0,1,5.67.58L96,69.71A5.86,5.86,0,0,1,97.5,77.89ZM61.38,40.3a14.8,14.8,0,0,0-6.23-9.6,15.12,15.12,0,0,0-20.92,3.77A14.88,14.88,0,0,0,38,55.24,15.12,15.12,0,0,0,59,51.46,14.74,14.74,0,0,0,61.38,40.3Z"/></svg>