<svg xmlns="http://www.w3.org/2000/svg" xmlns:xlink="http://www.w3.org/1999/xlink" width="500" zoomAndPan="magnify" viewBox="0 0 375 374.999991" height="500" preserveAspectRatio="xMidYMid meet" version="1.0"><path fill="#ffffff" d="M 29.605469 219.121094 L 56 219.121094 L 56 182.648438 C 56 171.5625 61.984375 169.359375 66.519531 169.359375 C 74.269531 169.359375 75.152344 174.964844 75.152344 182.964844 L 75.152344 219.1875 L 101.546875 219.1875 L 101.546875 171.75 C 101.546875 155.878906 90.207031 148.316406 77.859375 148.316406 C 65.511719 148.316406 60.789062 152.160156 56.253906 157.515625 L 56 157.515625 L 56 124.066406 L 29.605469 124.066406 L 29.605469 219.1875 Z M 29.605469 219.121094 " fill-opacity="1" fill-rule="nonzero"/><path fill="#ffffff" d="M 169.136719 170.113281 C 168.445312 152.414062 150.492188 148.253906 135.5625 148.253906 C 120.632812 148.253906 102.929688 152.789062 102.929688 170.238281 C 102.929688 187.6875 111.058594 188.507812 131.152344 191.972656 C 143.4375 194.113281 145.640625 195.3125 145.640625 199.28125 C 145.640625 203.25 140.160156 204.632812 136.695312 204.632812 C 133.230469 204.632812 130.964844 203.816406 129.640625 202.617188 C 127.625 200.855469 126.554688 198.902344 126.429688 196.507812 L 101.230469 196.507812 C 101.609375 214.335938 119.5 220.886719 135.75 220.886719 C 152.003906 220.886719 170.902344 215.722656 170.902344 196.507812 C 170.902344 177.296875 163.152344 180.003906 154.398438 177.167969 C 145.578125 174.207031 135.625 173.703125 131.214844 171.816406 C 129.765625 171.121094 128.128906 170.238281 128.128906 168.222656 C 128.128906 163.6875 132.414062 162.871094 136.128906 162.871094 C 139.84375 162.871094 140.414062 163.5625 141.988281 164.886719 C 143.6875 166.082031 144.949219 167.847656 145.074219 170.050781 L 169.074219 170.050781 Z M 169.136719 170.113281 " fill-opacity="1" fill-rule="nonzero"/><path fill="#ffffff" d="M 193.265625 176.792969 C 194.460938 169.359375 198.996094 165.199219 206.871094 165.199219 C 214.746094 165.199219 218.460938 170.367188 218.460938 176.792969 Z M 243.722656 190.523438 C 243.722656 163.625 231.878906 148.316406 204.414062 148.316406 C 176.949219 148.316406 167.941406 164.695312 167.941406 184.792969 C 167.941406 204.886719 184.570312 220.886719 206.679688 220.886719 C 228.792969 220.886719 236.917969 213.957031 242.273438 199.027344 L 217.640625 199.027344 C 215.5 202.367188 210.839844 203.941406 206.554688 203.941406 C 198.304688 203.941406 193.769531 198.335938 193.074219 190.460938 L 243.722656 190.460938 Z M 243.722656 190.523438 " fill-opacity="1" fill-rule="evenodd"/><path fill="#ffffff" d="M 246.746094 219.121094 L 273.140625 219.121094 L 273.140625 182.648438 C 273.140625 171.5625 279.125 169.359375 283.660156 169.359375 C 291.40625 169.359375 292.289062 174.964844 292.289062 182.964844 L 292.289062 219.1875 L 318.683594 219.1875 L 318.683594 171.75 C 318.683594 155.878906 307.34375 148.316406 295 148.316406 C 282.652344 148.316406 277.421875 151.910156 272.507812 158.839844 L 272.257812 158.839844 L 272.257812 150.019531 L 246.808594 150.019531 L 246.808594 219.1875 Z M 246.746094 219.121094 " fill-opacity="1" fill-rule="nonzero"/><path fill="#ffffff" d="M 323.34375 150.019531 L 349.738281 150.019531 L 349.738281 219.121094 L 323.34375 219.121094 Z M 323.34375 150.019531 " fill-opacity="1" fill-rule="evenodd"/><path fill="#ffffff" d="M 349.675781 146.429688 L 349.675781 123.75 L 322.90625 123.75 Z M 349.675781 146.429688 " fill-opacity="1" fill-rule="nonzero"/><path fill="#ffffff" d="M 42.394531 240.097656 C 42.078125 237.074219 39.621094 235.375 36.472656 235.375 C 32.316406 235.375 29.796875 238.714844 29.796875 242.683594 C 29.796875 246.652344 32.316406 249.988281 36.472656 249.988281 C 40.628906 249.988281 42.207031 247.722656 42.394531 244.382812 L 40 244.382812 C 39.8125 246.398438 38.613281 248.035156 36.472656 248.035156 C 34.332031 248.035156 32.253906 245.390625 32.253906 242.746094 C 32.253906 240.097656 33.511719 237.453125 36.472656 237.453125 C 39.433594 237.453125 39.558594 238.652344 39.9375 240.226562 L 42.394531 240.226562 Z M 42.394531 240.097656 " fill-opacity="1" fill-rule="nonzero"/><path fill="#ffffff" d="M 51.464844 235.375 C 47.308594 235.375 44.789062 238.714844 44.789062 242.683594 C 44.789062 246.652344 47.308594 249.988281 51.464844 249.988281 C 55.625 249.988281 58.144531 246.652344 58.144531 242.683594 C 58.144531 238.714844 55.625 235.375 51.464844 235.375 Z M 51.464844 237.328125 C 54.425781 237.328125 55.6875 239.972656 55.6875 242.621094 C 55.6875 245.265625 54.425781 247.910156 51.464844 247.910156 C 48.503906 247.910156 47.246094 245.265625 47.246094 242.621094 C 47.246094 239.972656 48.503906 237.328125 51.464844 237.328125 Z M 51.464844 237.328125 " fill-opacity="1" fill-rule="evenodd"/><path fill="#ffffff" d="M 61.167969 249.613281 L 63.496094 249.613281 L 63.496094 239.34375 L 69.859375 249.613281 L 72.441406 249.613281 L 72.441406 235.691406 L 70.113281 235.691406 L 70.113281 245.894531 L 70.046875 245.894531 L 63.75 235.691406 L 61.167969 235.691406 Z M 61.167969 249.613281 " fill-opacity="1" fill-rule="nonzero"/><path fill="#ffffff" d="M 74.898438 237.769531 L 79.308594 237.769531 L 79.308594 249.613281 L 81.703125 249.613281 L 81.703125 237.769531 L 86.113281 237.769531 L 86.113281 235.691406 L 74.898438 235.691406 Z M 74.898438 237.769531 " fill-opacity="1" fill-rule="nonzero"/><path fill="#ffffff" d="M 91.089844 237.707031 L 95.058594 237.707031 C 96.316406 237.707031 97.449219 238.082031 97.449219 239.847656 C 97.449219 241.613281 96.632812 242.050781 95.058594 242.050781 L 91.089844 242.050781 Z M 88.632812 249.613281 L 91.089844 249.613281 L 91.089844 243.878906 L 94.679688 243.878906 C 96.945312 243.878906 97.449219 245.011719 97.449219 247.53125 C 97.449219 250.050781 97.449219 248.980469 97.828125 249.546875 L 100.410156 249.546875 C 99.90625 248.980469 99.65625 247.53125 99.65625 245.894531 C 99.65625 244.257812 98.457031 243.058594 97.578125 242.933594 C 98.019531 242.746094 99.84375 242.050781 99.84375 239.40625 C 99.84375 236.761719 98.269531 235.628906 95.246094 235.628906 L 88.632812 235.628906 Z M 88.632812 249.613281 " fill-opacity="1" fill-rule="evenodd"/><path fill="#ffffff" d="M 109.167969 235.375 C 105.011719 235.375 102.492188 238.714844 102.492188 242.683594 C 102.492188 246.652344 105.011719 249.988281 109.167969 249.988281 C 113.324219 249.988281 115.84375 246.652344 115.84375 242.683594 C 115.84375 238.714844 113.324219 235.375 109.167969 235.375 Z M 109.167969 237.328125 C 112.128906 237.328125 113.386719 239.972656 113.386719 242.621094 C 113.386719 245.265625 112.128906 247.910156 109.167969 247.910156 C 106.207031 247.910156 104.945312 245.265625 104.945312 242.621094 C 104.945312 239.972656 106.207031 237.328125 109.167969 237.328125 Z M 109.167969 237.328125 " fill-opacity="1" fill-rule="evenodd"/><path fill="#ffffff" d="M 118.929688 249.613281 L 128.445312 249.613281 L 128.445312 247.46875 L 121.386719 247.46875 L 121.386719 235.691406 L 118.929688 235.691406 Z M 118.929688 249.613281 " fill-opacity="1" fill-rule="nonzero"/><path fill="#ffffff" d="M 131.027344 249.613281 L 140.539062 249.613281 L 140.539062 247.46875 L 133.484375 247.46875 L 133.484375 235.691406 L 131.027344 235.691406 Z M 131.027344 249.613281 " fill-opacity="1" fill-rule="nonzero"/><path fill="#ffffff" d="M 143.121094 249.613281 L 145.515625 249.613281 L 145.515625 235.691406 L 143.121094 235.691406 Z M 143.121094 249.613281 " fill-opacity="1" fill-rule="nonzero"/><path fill="#ffffff" d="M 149.359375 249.613281 L 151.625 249.613281 L 151.625 239.34375 L 151.6875 239.34375 L 158.050781 249.613281 L 160.570312 249.613281 L 160.570312 235.691406 L 158.300781 235.691406 L 158.300781 245.894531 L 158.238281 245.894531 L 151.878906 235.691406 L 149.359375 235.691406 Z M 149.359375 249.613281 " fill-opacity="1" fill-rule="nonzero"/><path fill="#ffffff" d="M 176.507812 242.242188 L 170.585938 242.242188 L 170.585938 244.066406 L 174.304688 244.066406 C 174.304688 246.398438 172.917969 247.910156 170.398438 247.910156 C 167.4375 247.910156 166.175781 245.265625 166.175781 242.621094 C 166.175781 239.972656 167.4375 237.328125 170.398438 237.328125 C 173.359375 237.328125 173.734375 238.273438 173.988281 240.097656 L 176.382812 240.097656 C 176.003906 236.949219 173.484375 235.375 170.398438 235.375 C 167.3125 235.375 163.71875 238.714844 163.71875 242.683594 C 163.71875 246.652344 166.238281 249.988281 170.398438 249.988281 C 174.554688 249.988281 173.296875 249.484375 174.554688 248.035156 L 174.933594 249.675781 L 176.507812 249.675781 Z M 176.507812 242.242188 " fill-opacity="1" fill-rule="nonzero"/><path fill="#ffffff" d="M 188.792969 237.707031 L 192.761719 237.707031 C 194.019531 237.707031 195.152344 238.082031 195.152344 239.847656 C 195.152344 241.613281 194.335938 242.050781 192.761719 242.050781 L 188.792969 242.050781 Z M 186.398438 249.613281 L 188.855469 249.613281 L 188.855469 243.878906 L 192.445312 243.878906 C 194.710938 243.878906 195.214844 245.011719 195.214844 247.53125 C 195.214844 250.050781 195.214844 248.980469 195.59375 249.546875 L 198.175781 249.546875 C 197.671875 248.980469 197.421875 247.53125 197.421875 245.894531 C 197.421875 244.257812 196.222656 243.058594 195.34375 242.933594 C 195.785156 242.746094 197.609375 242.050781 197.609375 239.40625 C 197.609375 236.761719 196.035156 235.628906 193.011719 235.628906 L 186.398438 235.628906 Z M 186.398438 249.613281 " fill-opacity="1" fill-rule="evenodd"/><path fill="#ffffff" d="M 201.011719 249.613281 L 203.40625 249.613281 L 203.40625 235.691406 L 201.011719 235.691406 Z M 201.011719 249.613281 " fill-opacity="1" fill-rule="nonzero"/><path fill="#ffffff" d="M 206.492188 244.949219 C 206.492188 248.414062 209.136719 249.925781 212.289062 249.925781 C 215.4375 249.925781 217.832031 248.667969 217.832031 245.578125 C 217.832031 242.492188 216.949219 242.554688 215.121094 242.050781 C 214.429688 241.863281 211.34375 241.042969 211.089844 240.980469 C 210.082031 240.730469 209.453125 240.164062 209.453125 239.21875 C 209.453125 237.832031 210.902344 237.390625 211.972656 237.390625 C 213.671875 237.390625 214.871094 238.082031 214.996094 239.847656 L 217.453125 239.847656 C 217.453125 236.949219 214.996094 235.4375 212.097656 235.4375 C 209.203125 235.4375 206.996094 236.761719 206.996094 239.53125 C 206.996094 242.304688 207.6875 242.429688 210.082031 243.058594 C 211.972656 243.5625 213.234375 243.816406 214.242188 244.195312 C 214.808594 244.382812 215.375 244.824219 215.375 245.894531 C 215.375 246.964844 214.554688 247.972656 212.414062 247.972656 C 210.273438 247.972656 208.886719 247.15625 208.886719 245.011719 L 206.429688 245.011719 Z M 206.492188 244.949219 " fill-opacity="1" fill-rule="nonzero"/><path fill="#ffffff" d="M 220.855469 249.613281 L 223.25 249.613281 L 223.25 244.886719 L 225.265625 242.933594 L 229.800781 249.613281 L 232.824219 249.613281 L 226.902344 241.234375 L 232.445312 235.691406 L 229.421875 235.691406 L 223.25 241.988281 L 223.25 235.691406 L 220.855469 235.691406 Z M 220.855469 249.613281 " fill-opacity="1" fill-rule="nonzero"/><path fill="#ffffff" d="M 240.066406 237.769531 L 244.476562 237.769531 L 244.476562 249.613281 L 246.871094 249.613281 L 246.871094 237.769531 L 251.28125 237.769531 L 251.28125 235.691406 L 240.066406 235.691406 Z M 240.066406 237.769531 " fill-opacity="1" fill-rule="nonzero"/><path fill="#ffffff" d="M 259.722656 235.375 C 255.5625 235.375 253.042969 238.714844 253.042969 242.683594 C 253.042969 246.652344 255.5625 249.988281 259.722656 249.988281 C 263.878906 249.988281 266.398438 246.652344 266.398438 242.683594 C 266.398438 238.714844 263.878906 235.375 259.722656 235.375 Z M 259.722656 237.328125 C 262.683594 237.328125 263.941406 239.972656 263.941406 242.621094 C 263.941406 245.265625 262.683594 247.910156 259.722656 247.910156 C 256.761719 247.910156 255.5 245.265625 255.5 242.621094 C 255.5 239.972656 256.761719 237.328125 259.722656 237.328125 Z M 259.722656 237.328125 " fill-opacity="1" fill-rule="evenodd"/><path fill="#ffffff" d="M 281.644531 242.242188 L 275.722656 242.242188 L 275.722656 244.066406 L 279.4375 244.066406 C 279.4375 246.398438 278.054688 247.910156 275.535156 247.910156 C 272.574219 247.910156 271.3125 245.265625 271.3125 242.621094 C 271.3125 239.972656 272.574219 237.328125 275.535156 237.328125 C 278.492188 237.328125 278.871094 238.273438 279.125 240.097656 L 281.519531 240.097656 C 281.140625 236.949219 278.621094 235.375 275.535156 235.375 C 272.445312 235.375 268.855469 238.714844 268.855469 242.683594 C 268.855469 246.652344 271.375 249.988281 275.535156 249.988281 C 279.691406 249.988281 278.429688 249.484375 279.691406 248.035156 L 280.070312 249.675781 L 281.644531 249.675781 Z M 281.644531 242.242188 " fill-opacity="1" fill-rule="nonzero"/><path fill="#ffffff" d="M 285.171875 249.613281 L 295.3125 249.613281 L 295.3125 247.46875 L 287.628906 247.46875 L 287.628906 243.4375 L 294.621094 243.4375 L 294.621094 241.421875 L 287.628906 241.421875 L 287.628906 237.769531 L 295.1875 237.769531 L 295.1875 235.691406 L 285.171875 235.691406 Z M 285.171875 249.613281 " fill-opacity="1" fill-rule="nonzero"/><path fill="#ffffff" d="M 297.015625 237.769531 L 301.421875 237.769531 L 301.421875 249.613281 L 303.878906 249.613281 L 303.878906 237.769531 L 308.289062 237.769531 L 308.289062 235.691406 L 297.015625 235.691406 Z M 297.015625 237.769531 " fill-opacity="1" fill-rule="nonzero"/><path fill="#ffffff" d="M 310.746094 249.613281 L 313.203125 249.613281 L 313.203125 243.3125 L 319.503906 243.3125 L 319.503906 249.613281 L 321.960938 249.613281 L 321.960938 235.691406 L 319.503906 235.691406 L 319.503906 241.234375 L 313.203125 241.234375 L 313.203125 235.691406 L 310.746094 235.691406 Z M 310.746094 249.613281 " fill-opacity="1" fill-rule="nonzero"/><path fill="#ffffff" d="M 325.738281 249.613281 L 335.882812 249.613281 L 335.882812 247.46875 L 328.195312 247.46875 L 328.195312 243.4375 L 335.1875 243.4375 L 335.1875 241.421875 L 328.195312 241.421875 L 328.195312 237.769531 L 335.753906 237.769531 L 335.753906 235.691406 L 325.738281 235.691406 Z M 325.738281 249.613281 " fill-opacity="1" fill-rule="nonzero"/><path fill="#ffffff" d="M 341.363281 237.707031 L 345.328125 237.707031 C 346.589844 237.707031 347.722656 238.082031 347.722656 239.847656 C 347.722656 241.613281 346.90625 242.050781 345.328125 242.050781 L 341.363281 242.050781 Z M 338.90625 249.613281 L 341.363281 249.613281 L 341.363281 243.878906 L 344.953125 243.878906 C 347.21875 243.878906 347.722656 245.011719 347.722656 247.53125 C 347.722656 250.050781 347.722656 248.980469 348.101562 249.546875 L 350.683594 249.546875 C 350.179688 248.980469 349.929688 247.53125 349.929688 245.894531 C 349.929688 244.257812 348.730469 243.058594 347.851562 242.933594 C 348.289062 242.746094 350.117188 242.050781 350.117188 239.40625 C 350.117188 236.761719 348.542969 235.628906 345.519531 235.628906 L 338.90625 235.628906 Z M 338.90625 249.613281 " fill-opacity="1" fill-rule="evenodd"/></svg>