<svg viewBox="0 0 303.81 85" xmlns="http://www.w3.org/2000/svg" xmlns:xlink="http://www.w3.org/1999/xlink"><linearGradient id="a" gradientUnits="userSpaceOnUse" x1="27.52" x2="27.52" y1="43.85" y2="1.04"><stop offset="0" stop-color="#488cc9"/><stop offset="1" stop-color="#005ea3"/></linearGradient><linearGradient id="b" x1="50.11" x2="50.11" xlink:href="#a" y1="85" y2="20.23"/><linearGradient id="c" x1="40.83" x2="40.83" xlink:href="#a" y1="45.88" y2="16.12"/><path d="m55.03 6.44-9.68-5.4-36.63 12.29s-19.62 10.79 0 23.68 7.85 3.6 7.85 3.6-12.04-8.69.78-20.08z" fill="url(#a)"/><path d="m60.53 20.23s17.53 10.14 2.62 22.16l-46.31 27 14.91 15.61 48.93-35.4s13.62-16.43-20.15-29.38z" fill="url(#b)"/><ellipse cx="40.83" cy="31" fill="url(#c)" rx="26.36" ry="14.88"/><path d="m92.88 13.34v-12.35h1.52l3.46 6.25c.8 1.45 1.42 2.75 1.94 4.02l.03-.02c-.13-1.65-.16-3.15-.16-5.08v-5.17h1.31v12.36h-1.41l-3.43-6.27c-.75-1.38-1.47-2.79-2.02-4.13l-.05.02c.08 1.56.11 3.04.11 5.1v5.28h-1.31z" fill="#488cc9"/><path d="m110.37 8.83c0 3.28-1.98 4.71-3.86 4.71-2.1 0-3.71-1.76-3.71-4.57 0-2.97 1.7-4.71 3.84-4.71s3.73 1.85 3.73 4.57zm-6.15.1c0 1.94.98 3.41 2.35 3.41s2.35-1.45 2.35-3.45c0-1.5-.66-3.41-2.32-3.41s-2.39 1.76-2.39 3.45z" fill="#488cc9"/><path d="m112.14 7.24c0-1.05-.02-1.94-.06-2.77h1.23l.05 1.74h.06c.35-1.19 1.2-1.94 2.14-1.94.16 0 .27.02.4.06v1.52c-.14-.04-.29-.05-.48-.05-.99 0-1.7.86-1.89 2.07-.03.22-.06.48-.06.75v4.73h-1.39z" fill="#488cc9"/><path d="m119.46 1.92v2.55h2.02v1.23h-2.02v4.79c0 1.1.27 1.72 1.06 1.72.37 0 .64-.06.82-.11l.06 1.21c-.27.13-.7.22-1.25.22-.66 0-1.18-.24-1.52-.68-.4-.48-.54-1.27-.54-2.31v-4.84h-1.2v-1.23h1.2v-2.13l1.38-.42z" fill="#488cc9"/><path d="m123.06.33h1.41v5.54h.03c.22-.46.58-.86 1.01-1.14.42-.28.91-.46 1.44-.46 1.04 0 2.71.73 2.71 3.8v5.28h-1.41v-5.1c0-1.43-.46-2.64-1.79-2.64-.91 0-1.63.73-1.89 1.61-.08.22-.1.46-.1.77v5.35h-1.41z" fill="#488cc9"/><path d="m134.24 9.13 1.43-.14c.07.66.23 1.19.47 1.62.25.42.63.76 1.15 1.02s1.11.39 1.76.39c.58 0 1.09-.1 1.53-.3s.77-.47.99-.81.32-.72.32-1.12-.1-.77-.31-1.08-.55-.56-1.03-.77c-.31-.14-.99-.35-2.04-.64s-1.79-.56-2.21-.82c-.55-.33-.95-.74-1.22-1.22-.27-.49-.4-1.03-.4-1.63 0-.66.16-1.28.49-1.86s.81-1.01 1.44-1.31 1.33-.45 2.1-.45c.85 0 1.6.16 2.25.47s1.15.77 1.5 1.38.54 1.3.56 2.07l-1.45.13c-.08-.83-.34-1.46-.79-1.88s-1.12-.64-2-.64-1.58.19-2 .58c-.42.38-.63.85-.63 1.39 0 .47.15.86.45 1.16.29.3 1.05.62 2.29.94 1.23.32 2.08.6 2.54.84.67.35 1.16.8 1.48 1.34s.48 1.16.48 1.87-.17 1.36-.52 1.97c-.35.62-.85 1.1-1.5 1.44s-1.39.51-2.21.51c-1.04 0-1.91-.17-2.61-.52s-1.25-.87-1.65-1.56-.61-1.48-.63-2.36z" fill="#488cc9"/><path d="m152.37 8.83c0 3.28-1.98 4.71-3.86 4.71-2.1 0-3.71-1.76-3.71-4.57 0-2.97 1.7-4.71 3.84-4.71s3.73 1.85 3.73 4.57zm-6.15.1c0 1.94.98 3.41 2.35 3.41s2.35-1.45 2.35-3.45c0-1.5-.66-3.41-2.32-3.41s-2.39 1.76-2.39 3.45z" fill="#488cc9"/><path d="m160.63 10.92c0 .92.02 1.72.06 2.42h-1.25l-.08-1.45h-.03c-.37.72-1.18 1.65-2.56 1.65-1.22 0-2.67-.77-2.67-3.89v-5.19h1.41v4.91c0 1.69.45 2.82 1.73 2.82.94 0 1.6-.75 1.86-1.47.08-.24.13-.53.13-.83v-5.45h1.41v6.45z" fill="#488cc9"/><path d="m164.66 1.92v2.55h2.02v1.23h-2.02v4.79c0 1.1.27 1.72 1.06 1.72.37 0 .64-.06.82-.11l.06 1.21c-.27.13-.7.22-1.25.22-.66 0-1.18-.24-1.52-.68-.4-.48-.54-1.27-.54-2.31v-4.84h-1.2v-1.23h1.2v-2.13l1.38-.42z" fill="#488cc9"/><path d="m168.26.33h1.41v5.54h.03c.22-.46.58-.86 1.01-1.14.42-.28.91-.46 1.44-.46 1.04 0 2.71.73 2.71 3.8v5.28h-1.41v-5.1c0-1.43-.46-2.64-1.79-2.64-.91 0-1.63.73-1.89 1.61-.08.22-.1.46-.1.77v5.35h-1.41z" fill="#488cc9"/><path d="m189.67 7.92c-.08-1.72-.18-3.8-.16-5.34h-.05c-.37 1.45-.82 2.99-1.36 4.69l-1.9 6h-1.06l-1.75-5.89c-.51-1.74-.94-3.34-1.25-4.8h-.03c-.03 1.54-.11 3.61-.21 5.46l-.29 5.3h-1.33l.75-12.36h1.78l1.84 5.98c.45 1.52.82 2.88 1.09 4.16h.05c.27-1.25.66-2.6 1.14-4.16l1.92-5.98h1.78l.67 12.36h-1.36l-.27-5.43z" fill="#488cc9"/><path d="m195.15 1.98c.02.55-.34.99-.9.99-.5 0-.85-.44-.85-.99s.37-1.01.88-1.01.86.44.86 1.01zm-1.57 11.36v-8.87h1.41v8.88h-1.41z" fill="#488cc9"/><path d="m197.33 6.87c0-.92-.02-1.67-.06-2.4h1.25l.08 1.47h.03c.38-.84 1.28-1.67 2.56-1.67 1.07 0 2.74.73 2.74 3.78v5.3h-1.41v-5.12c0-1.43-.46-2.62-1.79-2.62-.93 0-1.65.75-1.89 1.65-.06.2-.1.48-.1.75v5.34h-1.41v-6.47z" fill="#488cc9"/><path d="m207.78 1.98c.02.55-.34.99-.9.99-.5 0-.85-.44-.85-.99s.37-1.01.88-1.01.86.44.86 1.01zm-1.57 11.36v-8.87h1.41v8.88h-1.41z" fill="#488cc9"/><path d="m209.76 11.69c.42.31 1.15.64 1.86.64 1.02 0 1.5-.59 1.5-1.32 0-.77-.4-1.19-1.44-1.63-1.39-.57-2.05-1.45-2.05-2.51 0-1.43 1.01-2.6 2.67-2.6.78 0 1.47.26 1.9.55l-.35 1.17c-.3-.22-.86-.51-1.58-.51-.83 0-1.3.55-1.3 1.21 0 .73.46 1.06 1.47 1.5 1.34.59 2.03 1.36 2.03 2.68 0 1.56-1.06 2.66-2.9 2.66-.85 0-1.63-.24-2.18-.61l.35-1.23z" fill="#488cc9"/><path d="m217.98 1.92v2.55h2.02v1.23h-2.02v4.79c0 1.1.27 1.72 1.06 1.72.37 0 .64-.06.82-.11l.06 1.21c-.27.13-.7.22-1.25.22-.66 0-1.18-.24-1.52-.68-.4-.48-.54-1.27-.54-2.31v-4.84h-1.2v-1.23h1.2v-2.13l1.38-.42z" fill="#488cc9"/><path d="m222.27 9.2c.03 2.18 1.25 3.08 2.66 3.08 1.01 0 1.62-.2 2.15-.46l.24 1.16c-.5.26-1.34.55-2.58.55-2.38 0-3.81-1.8-3.81-4.47s1.38-4.79 3.63-4.79c2.53 0 3.2 2.55 3.2 4.18 0 .33-.03.59-.05.75zm4.13-1.15c.02-1.03-.37-2.62-1.95-2.62-1.42 0-2.05 1.5-2.16 2.62z" fill="#488cc9"/><path d="m229.5 7.24c0-1.05-.02-1.94-.06-2.77h1.23l.05 1.74h.06c.35-1.19 1.2-1.94 2.14-1.94.16 0 .27.02.4.06v1.52c-.14-.04-.29-.05-.48-.05-.99 0-1.7.86-1.89 2.07-.03.22-.06.48-.06.75v4.73h-1.39z" fill="#488cc9"/><path d="m236.37 1.98c.02.55-.34.99-.9.99-.5 0-.85-.44-.85-.99s.37-1.01.88-1.01.86.44.86 1.01zm-1.57 11.36v-8.87h1.41v8.88h-1.41z" fill="#488cc9"/><path d="m242.83 13.34-.11-1.12h-.05c-.43.7-1.26 1.32-2.37 1.32-1.57 0-2.37-1.27-2.37-2.55 0-2.15 1.66-3.32 4.66-3.3v-.18c0-.73-.18-2.05-1.76-2.05-.72 0-1.47.26-2.02.66l-.32-1.06c.64-.48 1.57-.79 2.54-.79 2.37 0 2.95 1.85 2.95 3.63v3.32c0 .77.03 1.52.13 2.13h-1.28zm-.21-4.52c-1.54-.04-3.28.28-3.28 2 0 1.05.61 1.54 1.33 1.54 1.01 0 1.65-.73 1.87-1.49.05-.17.08-.35.08-.51z" fill="#488cc9"/><path d="m246.26.33h1.41v13.02h-1.41z" fill="#488cc9"/><path d="m260.86 8.74 1.52.44c-.32 1.43-.89 2.51-1.71 3.26-.83.75-1.83 1.12-3.03 1.12s-2.24-.29-3.01-.86c-.77-.58-1.36-1.41-1.77-2.5s-.61-2.26-.61-3.52c0-1.37.23-2.56.68-3.58.46-1.02 1.1-1.79 1.95-2.32s1.77-.79 2.78-.79c1.15 0 2.11.33 2.89 1s1.33 1.61 1.63 2.82l-1.49.4c-.27-.95-.65-1.65-1.16-2.09-.5-.44-1.14-.65-1.91-.65-.88 0-1.62.24-2.21.72s-1.01 1.13-1.25 1.95-.36 1.65-.36 2.52c0 1.12.14 2.09.43 2.92s.73 1.45 1.32 1.87 1.25.62 1.95.62c.85 0 1.57-.28 2.16-.84s.99-1.39 1.2-2.5z" fill="#488cc9"/><path d="m271.19 8.83c0 3.28-1.99 4.71-3.86 4.71-2.1 0-3.71-1.76-3.71-4.57 0-2.97 1.7-4.71 3.84-4.71s3.73 1.85 3.73 4.57zm-6.15.1c0 1.94.98 3.41 2.35 3.41s2.35-1.45 2.35-3.45c0-1.5-.66-3.41-2.32-3.41s-2.38 1.76-2.38 3.45z" fill="#488cc9"/><path d="m279.44 10.92c0 .92.02 1.72.06 2.42h-1.25l-.08-1.45h-.03c-.37.72-1.18 1.65-2.56 1.65-1.22 0-2.67-.77-2.67-3.89v-5.19h1.41v4.91c0 1.69.45 2.82 1.73 2.82.94 0 1.6-.75 1.86-1.47.08-.24.13-.53.13-.83v-5.45h1.41v6.45z" fill="#488cc9"/><path d="m281.78 6.87c0-.92-.02-1.67-.06-2.4h1.25l.08 1.47h.03c.38-.84 1.28-1.67 2.56-1.67 1.07 0 2.74.73 2.74 3.78v5.3h-1.41v-5.12c0-1.43-.46-2.62-1.79-2.62-.93 0-1.65.75-1.89 1.65-.06.2-.1.48-.1.75v5.34h-1.41v-6.47z" fill="#488cc9"/><path d="m295.96 9.86 1.38.21c-.15 1.09-.54 1.95-1.16 2.56s-1.39.93-2.29.93c-1.14 0-2.05-.43-2.74-1.28s-1.04-2.07-1.04-3.66c0-1.03.15-1.92.45-2.69s.75-1.35 1.36-1.73 1.27-.58 1.98-.58c.9 0 1.64.26 2.21.78s.94 1.26 1.1 2.22l-1.37.24c-.13-.64-.36-1.12-.69-1.44s-.73-.48-1.2-.48c-.71 0-1.28.29-1.73.87s-.66 1.5-.66 2.76.21 2.21.64 2.78c.43.58.98.87 1.67.87.55 0 1.01-.19 1.38-.58s.6-.98.7-1.79z" fill="#488cc9"/><path d="m300.23 1.98c.02.55-.34.99-.9.99-.5 0-.85-.44-.85-.99s.37-1.01.88-1.01.86.44.86 1.01zm-1.57 11.36v-8.87h1.41v8.88h-1.41z" fill="#488cc9"/><path d="m302.4.33h1.41v13.02h-1.41z" fill="#488cc9"/><g fill="#005ea3"><path d="m94.63 34-1.12 3.89h-1.44l3.67-12.36h1.68l3.68 12.36h-1.49l-1.15-3.89zm3.53-1.25-1.06-3.56c-.24-.81-.4-1.54-.56-2.26h-.03c-.16.73-.34 1.49-.54 2.24l-1.06 3.58z"/><path d="m102.58 31.42c0-.92-.02-1.67-.06-2.4h1.25l.08 1.47h.03c.38-.84 1.28-1.67 2.56-1.67 1.07 0 2.74.73 2.74 3.78v5.3h-1.41v-5.12c0-1.43-.46-2.62-1.79-2.62-.93 0-1.65.75-1.89 1.65-.06.2-.1.48-.1.75v5.34h-1.41v-6.47z"/><path d="m123.09 33.29 1.52.44c-.32 1.43-.89 2.51-1.71 3.26-.83.75-1.83 1.12-3.03 1.12s-2.24-.29-3.01-.86c-.77-.58-1.36-1.41-1.77-2.5-.4-1.09-.61-2.26-.61-3.52 0-1.37.23-2.56.68-3.58.46-1.02 1.1-1.79 1.95-2.32.84-.53 1.77-.79 2.78-.79 1.15 0 2.11.33 2.89 1s1.33 1.61 1.63 2.82l-1.49.4c-.27-.95-.65-1.65-1.16-2.09s-1.14-.65-1.91-.65c-.88 0-1.62.24-2.21.72s-1.01 1.13-1.25 1.95c-.24.81-.36 1.65-.36 2.52 0 1.12.14 2.09.43 2.92.28.83.73 1.45 1.32 1.87.6.41 1.25.62 1.95.62.85 0 1.57-.28 2.16-.84s.99-1.39 1.2-2.5z"/><path d="m126.4 24.87h1.41v5.54h.03c.22-.46.58-.86 1.01-1.14.42-.28.91-.46 1.44-.46 1.04 0 2.71.73 2.71 3.8v5.28h-1.41v-5.1c0-1.43-.46-2.64-1.79-2.64-.91 0-1.63.73-1.89 1.61-.08.22-.1.46-.1.77v5.35h-1.41v-13.02z"/><path d="m142.29 33.38c0 3.28-1.98 4.71-3.86 4.71-2.1 0-3.71-1.76-3.71-4.57 0-2.97 1.7-4.71 3.84-4.71s3.73 1.85 3.73 4.57zm-6.14.09c0 1.94.98 3.41 2.35 3.41s2.35-1.45 2.35-3.45c0-1.5-.66-3.41-2.32-3.41s-2.39 1.76-2.39 3.45z"/><path d="m144.07 31.42c0-.92-.02-1.67-.06-2.4h1.23l.06 1.43h.05c.43-.84 1.15-1.63 2.43-1.63 1.06 0 1.86.73 2.19 1.78h.03c.24-.5.54-.88.86-1.16.46-.4.98-.62 1.71-.62 1.02 0 2.54.77 2.54 3.85v5.23h-1.38v-5.02c0-1.71-.54-2.73-1.68-2.73-.8 0-1.42.68-1.67 1.47-.06.22-.11.51-.11.81v5.48h-1.38v-5.32c0-1.41-.54-2.44-1.62-2.44-.88 0-1.52.81-1.74 1.61-.08.24-.11.51-.11.79v5.35h-1.38v-6.47z"/><path d="m157.41 24.87h1.41v5.54h.03c.22-.46.58-.86 1.01-1.14.42-.28.91-.46 1.44-.46 1.04 0 2.71.73 2.71 3.8v5.28h-1.41v-5.1c0-1.43-.46-2.64-1.79-2.64-.91 0-1.63.73-1.89 1.61-.08.22-.1.46-.1.77v5.35h-1.41v-13.02z"/><path d="m170.58 37.89-.11-1.12h-.05c-.43.7-1.26 1.32-2.37 1.32-1.57 0-2.37-1.27-2.37-2.55 0-2.15 1.66-3.32 4.66-3.3v-.18c0-.73-.18-2.05-1.76-2.05-.72 0-1.47.26-2.02.66l-.32-1.06c.64-.48 1.57-.79 2.54-.79 2.37 0 2.95 1.85 2.95 3.63v3.32c0 .77.03 1.52.13 2.13h-1.28zm-.21-4.53c-1.54-.04-3.28.28-3.28 2 0 1.05.61 1.54 1.33 1.54 1.01 0 1.65-.73 1.87-1.49.05-.17.08-.35.08-.51z"/><path d="m175.57 26.52c.02.55-.34.99-.9.99-.5 0-.85-.44-.85-.99s.37-1.01.88-1.01.86.44.86 1.01zm-1.57 11.37v-8.88h1.41v8.88z"/><path d="m177.75 31.78c0-1.05-.02-1.94-.06-2.77h1.23l.05 1.74h.06c.35-1.19 1.2-1.94 2.14-1.94.16 0 .27.02.4.06v1.52c-.14-.04-.29-.05-.48-.05-.99 0-1.7.86-1.89 2.07-.03.22-.06.48-.06.75v4.73h-1.39z"/><path d="m183.04 24.87h1.41v13.02h-1.41z"/><path d="m187.6 33.74c.03 2.18 1.25 3.08 2.66 3.08 1.01 0 1.62-.2 2.15-.46l.24 1.16c-.5.26-1.34.55-2.58.55-2.38 0-3.81-1.8-3.81-4.47s1.38-4.79 3.63-4.79c2.53 0 3.2 2.55 3.2 4.18 0 .33-.03.59-.05.75zm4.13-1.15c.02-1.03-.37-2.62-1.95-2.62-1.42 0-2.05 1.5-2.16 2.62z"/><path d="m200.82 34-1.12 3.89h-1.44l3.67-12.36h1.68l3.68 12.36h-1.49l-1.15-3.89zm3.54-1.25-1.06-3.56c-.24-.81-.4-1.54-.56-2.26h-.03c-.16.73-.34 1.49-.54 2.24l-1.06 3.58z"/><path d="m210.34 26.52c.02.55-.34.99-.9.99-.5 0-.85-.44-.85-.99s.37-1.01.88-1.01.86.44.86 1.01zm-1.57 11.37v-8.88h1.41v8.88z"/><path d="m212.51 31.78c0-1.05-.02-1.94-.06-2.77h1.23l.05 1.74h.06c.35-1.19 1.2-1.94 2.14-1.94.16 0 .27.02.4.06v1.52c-.14-.04-.29-.05-.48-.05-.99 0-1.7.86-1.89 2.07-.03.22-.06.48-.06.75v4.73h-1.39z"/><path d="m218.37 33.74c.03 2.18 1.25 3.08 2.66 3.08 1.01 0 1.62-.2 2.15-.46l.24 1.16c-.5.26-1.34.55-2.58.55-2.38 0-3.81-1.8-3.81-4.47s1.38-4.79 3.63-4.79c2.53 0 3.2 2.55 3.2 4.18 0 .33-.03.59-.05.75zm4.13-1.15c.02-1.03-.37-2.62-1.95-2.62-1.42 0-2.05 1.5-2.16 2.62z"/><path d="m229.89 37.89-.11-1.12h-.05c-.43.7-1.26 1.32-2.37 1.32-1.57 0-2.37-1.27-2.37-2.55 0-2.15 1.66-3.32 4.66-3.3v-.18c0-.73-.18-2.05-1.76-2.05-.72 0-1.47.26-2.02.66l-.32-1.06c.64-.48 1.57-.79 2.54-.79 2.37 0 2.95 1.85 2.95 3.63v3.32c0 .77.03 1.52.13 2.13h-1.28zm-.21-4.53c-1.54-.04-3.28.28-3.28 2 0 1.05.61 1.54 1.33 1.54 1.01 0 1.65-.73 1.87-1.49.05-.17.08-.35.08-.51z"/><path d="m238.61 34.41 1.38.21c-.15 1.09-.54 1.95-1.16 2.56s-1.39.93-2.29.93c-1.14 0-2.05-.43-2.74-1.28s-1.04-2.07-1.04-3.66c0-1.03.15-1.92.45-2.69s.75-1.35 1.36-1.73 1.27-.58 1.98-.58c.9 0 1.64.26 2.21.78s.94 1.26 1.1 2.22l-1.37.24c-.13-.64-.36-1.12-.69-1.44s-.73-.48-1.2-.48c-.71 0-1.28.29-1.73.87s-.66 1.5-.66 2.76.21 2.21.64 2.78c.43.58.98.87 1.67.87.55 0 1.01-.19 1.38-.58s.6-.98.7-1.79z"/><path d="m241.31 24.87h1.41v5.54h.03c.22-.46.58-.86 1.01-1.14.42-.28.91-.46 1.44-.46 1.04 0 2.71.73 2.71 3.8v5.28h-1.41v-5.1c0-1.43-.46-2.64-1.79-2.64-.91 0-1.63.73-1.89 1.61-.08.22-.1.46-.1.77v5.35h-1.41v-13.02z"/><path d="m251.83 26.46v2.55h2.02v1.23h-2.02v4.79c0 1.1.27 1.72 1.06 1.72.37 0 .64-.06.82-.11l.06 1.21c-.27.13-.7.22-1.25.22-.66 0-1.18-.24-1.52-.68-.4-.48-.54-1.27-.54-2.31v-4.84h-1.2v-1.23h1.2v-2.13l1.38-.42z"/><path d="m259.72 37.89-.11-1.12h-.05c-.43.7-1.26 1.32-2.37 1.32-1.57 0-2.37-1.27-2.37-2.55 0-2.15 1.66-3.32 4.66-3.3v-.18c0-.73-.18-2.05-1.76-2.05-.72 0-1.47.26-2.02.66l-.32-1.06c.64-.48 1.57-.79 2.54-.79 2.37 0 2.95 1.85 2.95 3.63v3.32c0 .77.03 1.52.13 2.13h-1.28zm-.21-4.53c-1.54-.04-3.28.28-3.28 2 0 1.05.61 1.54 1.33 1.54 1.01 0 1.65-.73 1.87-1.49.05-.17.08-.35.08-.51z"/><path d="m94.93 44.5h-3.28v-1.36h7.99v1.36h-3.3v11h-1.41z"/><path d="m100.67 42.49h1.41v5.54h.03c.22-.46.58-.86 1.01-1.14.42-.28.91-.46 1.44-.46 1.04 0 2.71.73 2.71 3.8v5.28h-1.41v-5.1c0-1.43-.46-2.64-1.79-2.64-.91 0-1.63.73-1.89 1.61-.08.22-.1.46-.1.77v5.35h-1.41v-13.02z"/><path d="m116.03 53.09c0 .92.02 1.72.06 2.42h-1.25l-.08-1.45h-.03c-.37.72-1.18 1.65-2.56 1.65-1.22 0-2.67-.77-2.67-3.89v-5.19h1.41v4.91c0 1.69.45 2.82 1.73 2.82.94 0 1.6-.75 1.86-1.47.08-.24.13-.53.13-.83v-5.45h1.41v6.46z"/><path d="m122.66 55.51-.11-1.12h-.05c-.43.7-1.26 1.32-2.37 1.32-1.57 0-2.37-1.27-2.37-2.55 0-2.14 1.67-3.32 4.66-3.3v-.18c0-.73-.18-2.05-1.76-2.05-.72 0-1.47.26-2.02.66l-.32-1.06c.64-.48 1.57-.79 2.54-.79 2.37 0 2.95 1.85 2.95 3.63v3.32c0 .77.03 1.52.13 2.13h-1.28zm-.21-4.53c-1.54-.04-3.28.28-3.28 2 0 1.05.61 1.54 1.33 1.54 1.01 0 1.65-.73 1.87-1.48.05-.17.08-.35.08-.51v-1.54z"/><path d="m127.65 44.14c.02.55-.34.99-.9.99-.5 0-.85-.44-.85-.99s.37-1.01.88-1.01.86.44.86 1.01zm-1.57 11.37v-8.88h1.41v8.88z"/><path d="m136.51 42.49v10.73c0 .79.02 1.69.06 2.29h-1.26l-.06-1.54h-.03c-.43.99-1.38 1.74-2.64 1.74-1.87 0-3.31-1.82-3.31-4.51-.02-2.95 1.58-4.77 3.47-4.77 1.18 0 1.98.64 2.34 1.36h.03v-5.3h1.41zm-1.4 7.75c0-.2-.02-.48-.06-.68-.21-1.03-.98-1.87-2.03-1.87-1.46 0-2.32 1.47-2.32 3.43 0 1.8.77 3.28 2.29 3.28.94 0 1.81-.71 2.06-1.93.05-.22.06-.44.06-.7v-1.54z"/><path d="m138.85 42.49h1.41v5.54h.03c.22-.46.58-.86 1.01-1.14.42-.28.91-.46 1.44-.46 1.04 0 2.71.73 2.71 3.8v5.28h-1.41v-5.1c0-1.43-.46-2.64-1.79-2.64-.91 0-1.63.73-1.89 1.61-.08.22-.1.46-.1.77v5.35h-1.41v-13.02z"/><path d="m155.76 44.5h-3.28v-1.36h7.99v1.36h-3.3v11h-1.41z"/><path d="m161.51 42.49h1.41v5.54h.03c.22-.46.58-.86 1.01-1.14.42-.28.91-.46 1.44-.46 1.04 0 2.71.73 2.71 3.8v5.28h-1.41v-5.1c0-1.43-.46-2.64-1.79-2.64-.91 0-1.63.73-1.89 1.61-.08.22-.1.46-.1.77v5.35h-1.41v-13.02z"/><path d="m171.17 51.36c.03 2.18 1.25 3.08 2.66 3.08 1.01 0 1.62-.2 2.14-.46l.24 1.15c-.5.26-1.34.55-2.58.55-2.38 0-3.81-1.8-3.81-4.47s1.38-4.79 3.63-4.79c2.53 0 3.2 2.55 3.2 4.18 0 .33-.03.59-.05.75h-5.44zm4.13-1.15c.02-1.03-.37-2.62-1.95-2.62-1.42 0-2.05 1.5-2.16 2.62z"/><path d="m182.69 55.51-.11-1.12h-.05c-.43.7-1.26 1.32-2.37 1.32-1.57 0-2.37-1.27-2.37-2.55 0-2.14 1.66-3.32 4.66-3.3v-.18c0-.73-.18-2.05-1.76-2.05-.72 0-1.47.26-2.02.66l-.32-1.06c.64-.48 1.57-.79 2.54-.79 2.37 0 2.95 1.85 2.95 3.63v3.32c0 .77.03 1.52.13 2.13h-1.28zm-.21-4.53c-1.54-.04-3.28.28-3.28 2 0 1.05.61 1.54 1.33 1.54 1.01 0 1.65-.73 1.87-1.48.05-.17.08-.35.08-.51v-1.54z"/><path d="m185.44 52.67 1.39-.25c.08.64.3 1.13.65 1.47s.86.51 1.5.51 1.12-.15 1.44-.45c.31-.3.47-.65.47-1.06 0-.36-.14-.65-.41-.86-.19-.14-.67-.32-1.44-.55-1.03-.3-1.75-.56-2.14-.77-.4-.22-.7-.52-.91-.9s-.31-.81-.31-1.28c0-.42.08-.82.25-1.18s.4-.66.69-.9c.22-.18.52-.34.89-.47.38-.13.78-.19 1.21-.19.65 0 1.22.11 1.71.32s.86.51 1.09.87.4.86.48 1.47l-1.38.21c-.06-.49-.24-.87-.54-1.15-.3-.27-.72-.41-1.27-.41-.65 0-1.11.12-1.38.37-.28.25-.41.53-.41.86 0 .21.06.4.17.56.11.17.29.32.54.43.14.06.55.2 1.24.41 1 .3 1.69.55 2.08.75.39.19.7.48.93.85.22.37.34.83.34 1.38s-.14 1.04-.41 1.52-.67.84-1.18 1.1-1.1.39-1.75.39c-1.08 0-1.9-.26-2.46-.77-.57-.51-.93-1.27-1.08-2.28z"/></g></svg>