<svg version="1.2" xmlns="http://www.w3.org/2000/svg" viewBox="0 0 556 125" width="556" height="125"><defs><clipPath clipPathUnits="userSpaceOnUse" id="cp1"><path d="m59.22 25.09c0 0-2.34-24.78-5.74-21.46l-50.54 49.84c-3.28 3.24-3.79 8.32-0.08 11.78l49.55 49.88c3.83 3.71 8.79 3.97 12.07 0.74"/></clipPath><clipPath clipPathUnits="userSpaceOnUse" id="cp2"><path d="m58.95 0.7l0.02 24.48 11.21 11.03h27.09l-38.32-40.43z"/></clipPath></defs><style>.a{fill:#008497}.b{fill:#01364e}.c{fill:#de2a8a}.d{fill:#17b0c0}</style><path class="a" d="m85.5 67.7l-26.5 26.5-34.5-34.5 34.5-34.5 11.2 11-24.9 24.9 13.6 13.6 38.4-38.5-10.4-10.4-1-1-20.6-21.1c-3.4-3.3-8.5-3.3-11.8-0.1l-50.9 50.7c-3.3 3.3-3 7.7 0.3 10.9l50 50.2c3.2 3.3 8.2 3.8 11.6 0.5l34.5-34.6z"/><path class="b" d="m138.4 1h18.3v3.8h-14.3v8.8h13.2v3.7h-13.2v9.3h14.3v3.8h-18.3z"/><path fill-rule="evenodd" class="b" d="m182.5 0.3v30.1h-3.8v-3c-1.9 2.2-4.4 3.5-7.4 3.5-6.3 0-10.7-5-10.7-11.2 0-6.2 4.5-11.1 10.6-11.1 3.1 0 5.6 1.3 7.5 3.6v-11.9zm-3.6 19.4c0-4.2-2.8-7.6-7.2-7.6-4.5 0-7.3 3.4-7.3 7.6 0 4.2 2.8 7.7 7.3 7.7 4.4 0 7.2-3.5 7.2-7.7z"/><path class="b" d="m188.1 21.8v-12.7h3.8v12.6c0 3.4 1.9 5.6 5.3 5.6 3.4 0 5.4-2.2 5.4-5.6v-12.6h3.7v12.7c0 5.6-3.4 9.1-9.1 9.1-5.6 0-9.1-3.6-9.1-9.1z"/><path class="b" d="m210.7 19.7c0-6.5 4.7-11.1 11.4-11.1 4.2 0 8 2.1 9.6 5.5l-3.1 1.8c-1.4-2.3-3.8-3.8-6.5-3.8-4.4 0-7.6 3.2-7.6 7.6 0 4.3 3.1 7.6 7.4 7.6 2.6 0 5.4-1.6 6.6-3.8l3.2 1.9c-1.8 3.2-5.6 5.4-9.8 5.4-6.6 0-11.2-4.6-11.2-11.1z"/><path fill-rule="evenodd" class="b" d="m256.2 9.1v21.3h-3.6v-3.1c-1.9 2.3-4.4 3.6-7.5 3.6-6.1 0-10.7-5-10.7-11.3 0-6.4 4.6-11 10.7-11 3.1 0 5.6 1.3 7.5 3.6v-3.1zm-3.4 10.6c0-4.2-2.9-7.6-7.3-7.6-4.5 0-7.3 3.4-7.3 7.6 0 4.2 2.8 7.7 7.3 7.7 4.4 0 7.3-3.5 7.3-7.7z"/><path class="b" d="m276 29.1c-1.5 1.2-3.6 1.8-5.6 1.8-4.7 0-6.8-3-6.8-8v-10.6h-3.8v-3.2h3.8v-7.6h3.7v7.6h7.6v3.2h-7.6v10.9c0 2.5 0.9 4.2 3.5 4.2 1.3 0 2.6-0.5 3.8-1.3z"/><path class="b" d="m278.3 3.3c0-1.5 1.2-2.6 2.8-2.6 1.4 0 2.7 1.1 2.7 2.6 0 1.6-1.3 2.8-2.7 2.8-1.6 0-2.8-1.2-2.8-2.8zm0.8 27.1v-21.3h3.8v21.3z"/><path fill-rule="evenodd" class="b" d="m287.5 19.7c0-6.1 4.6-11.2 11.2-11.2 6.5 0 11.1 5.1 11.1 11.2 0 6.2-4.6 11.2-11.1 11.2-6.6 0-11.2-5-11.2-11.2zm18.5 0c0-4.2-3.2-7.6-7.3-7.6-4.1 0-7.4 3.4-7.4 7.6 0 4.2 3.3 7.7 7.4 7.7 4.1 0 7.3-3.5 7.3-7.7z"/><path class="b" d="m314.4 9.1h3.7v3c1.3-2.3 3.8-3.6 6.8-3.6 4.4 0 8.4 2.9 8.4 9v12.9h-3.8v-11.9c0-4.3-2.3-6.4-5.4-6.4-3.5 0-5.9 2.7-5.9 6.5v11.8h-3.8z"/><path fill-rule="evenodd" class="b" d="m369.2 9.1v21.3h-3.6v-3.1c-1.8 2.3-4.4 3.6-7.5 3.6-6.1 0-10.7-5-10.7-11.3 0-6.4 4.6-11 10.7-11 3.1 0 5.6 1.3 7.5 3.6v-3.1zm-3.4 10.6c0-4.2-2.9-7.6-7.3-7.6-4.5 0-7.3 3.4-7.3 7.6 0 4.2 2.8 7.7 7.3 7.7 4.4 0 7.3-3.5 7.3-7.7z"/><path class="b" d="m375.1 9.1h3.8v3c1.2-2.3 3.7-3.6 6.7-3.6 4.4 0 8.4 2.9 8.4 9v12.9h-3.7v-11.9c0-4.3-2.4-6.4-5.5-6.4-3.4 0-5.8 2.7-5.8 6.5v11.8h-3.9z"/><path fill-rule="evenodd" class="b" d="m420.3 0.3v30.1h-3.8v-3c-1.9 2.2-4.4 3.5-7.4 3.5-6.3 0-10.7-5-10.7-11.2 0-6.2 4.5-11.1 10.6-11.1 3.1 0 5.6 1.3 7.5 3.6v-11.9zm-3.6 19.4c0-4.2-2.8-7.6-7.2-7.6-4.5 0-7.3 3.4-7.3 7.6 0 4.2 2.8 7.7 7.3 7.7 4.4 0 7.2-3.5 7.2-7.7z"/><path class="b" d="m135.3 52.5v-3.9h21.4v3.9h-8.7v25.5h-4v-25.5z"/><path class="b" d="m158.7 56.7h3.6v3.1c1.3-2.5 3.3-3.7 6.1-3.7 0.8 0 1.6 0.1 2.5 0.4l-0.3 3.7c-0.8-0.3-1.5-0.4-2.3-0.4-3.1 0-5.8 2.1-5.8 6.9v11.3h-3.8z"/><path fill-rule="evenodd" class="b" d="m194.6 56.7v21.3h-3.6v-3c-1.9 2.2-4.4 3.5-7.5 3.5-6.1 0-10.7-4.9-10.7-11.3 0-6.4 4.6-11 10.7-11 3.1 0 5.6 1.3 7.5 3.6v-3.1zm-3.4 10.6c0-4.1-2.9-7.6-7.4-7.6-4.4 0-7.2 3.5-7.2 7.6 0 4.2 2.8 7.7 7.2 7.7 4.5 0 7.4-3.5 7.4-7.7z"/><path class="b" d="m199.7 50.9c0-1.5 1.2-2.6 2.8-2.6 1.5 0 2.7 1.1 2.7 2.6 0 1.6-1.2 2.8-2.7 2.8-1.6 0-2.8-1.2-2.8-2.8zm0.8 27.1v-21.3h3.8v21.3z"/><path class="b" d="m210.3 56.7h3.7v3c1.3-2.2 3.7-3.6 6.7-3.6 4.4 0 8.5 2.9 8.5 9v12.9h-3.8v-11.8c0-4.3-2.4-6.5-5.5-6.5-3.4 0-5.8 2.7-5.8 6.5v11.8h-3.8z"/><path class="b" d="m234 50.9c0-1.5 1.2-2.6 2.8-2.6 1.4 0 2.7 1.1 2.7 2.6 0 1.6-1.3 2.8-2.7 2.8-1.6 0-2.8-1.2-2.8-2.8zm0.8 27.1v-21.3h3.8v21.3z"/><path class="b" d="m244.5 56.7h3.7v3c1.3-2.2 3.8-3.6 6.8-3.6 4.4 0 8.4 2.9 8.4 9v12.9h-3.8v-11.8c0-4.3-2.3-6.5-5.4-6.5-3.5 0-5.9 2.7-5.9 6.5v11.8h-3.8z"/><path fill-rule="evenodd" class="b" d="m289.6 56.7v19.1c0 7-4.5 11.2-11.3 11.2-3.7 0-7-1.2-9.5-3l1.8-3c1.9 1.4 4.8 2.6 7.6 2.6 4.8 0 7.7-3 7.7-7.2v-1.7c-1.9 2.1-4.4 3.3-7.5 3.3-6.1 0-10.7-4.7-10.7-10.9 0-6.3 4.8-10.9 10.9-10.9 3 0 5.5 1.2 7.3 3.3v-2.8zm-3.6 10.4c0-4.3-3.1-7.5-7.2-7.5-4.2 0-7.3 3.2-7.3 7.5 0 4.3 3.1 7.5 7.3 7.5 4.1 0 7.2-3.2 7.2-7.5z"/><path class="b" d="m310 48.6v29.4h-3.9v-29.4z"/><path class="b" d="m316.7 56.7h3.7v3c1.3-2.2 3.7-3.6 6.8-3.6 4.4 0 8.4 2.9 8.4 9v12.9h-3.8v-11.8c0-4.3-2.3-6.5-5.4-6.5-3.5 0-5.9 2.7-5.9 6.5v11.8h-3.8z"/><path class="b" d="m339.3 73.9l2.7-2.1c1.3 2.3 3.4 3.3 5.3 3.3 2.3 0 3.7-1.4 3.7-2.9 0-1.3-0.8-2.1-1.9-2.7-1.3-0.7-3.9-1.7-5.3-2.4-2.2-1.2-3.2-3.2-3.2-5.2 0-3.3 2.6-5.9 6.9-5.9 2.6 0 5.3 1.1 6.8 3.4l-2.5 2.3c-1.2-1.8-2.9-2.5-4.5-2.5-2 0-3.1 1.2-3.1 2.6 0 0.9 0.5 1.9 1.8 2.5 1.4 0.7 3.5 1.5 5.2 2.3 2.2 1.2 3.6 2.9 3.6 5.4 0 3.6-3.1 6.5-7.6 6.5-3 0-6.2-1.4-7.9-4.6z"/><path fill-rule="evenodd" class="b" d="m381.3 67.3c0 6.2-4.6 11.2-10.7 11.2-3.2 0-5.7-1.3-7.6-3.6v11.9h-3.8v-30.1h3.8v3.2c1.9-2.3 4.5-3.7 7.6-3.7 6.1 0 10.7 5 10.7 11.1zm-3.9 0c0-4.2-2.8-7.6-7.3-7.6-4.4 0-7.2 3.5-7.2 7.6 0 4.2 2.8 7.7 7.2 7.7 4.5 0 7.3-3.5 7.3-7.7z"/><path fill-rule="evenodd" class="b" d="m405.5 68.9h-17c0.6 3.3 2.8 6.1 7.5 6.1 2.5 0 5.5-1 7.4-2.4l1.6 2.9c-1.9 1.5-5.3 3-9.1 3-8.1 0-11.4-5.7-11.4-11.2 0-6.3 4.4-11.1 10.8-11.1 5.9 0 10.3 4 10.3 10.7 0 0.9-0.1 1.5-0.1 2zm-17-3.3h13.2c-0.3-3.8-3-6-6.4-6-3.6 0-6.1 2.5-6.8 6z"/><path class="b" d="m408.8 67.3c0-6.5 4.7-11.1 11.4-11.1 4.2 0 8 2.1 9.6 5.5l-3.1 1.9c-1.4-2.4-3.8-3.9-6.5-3.9-4.4 0-7.6 3.3-7.6 7.6 0 4.3 3.1 7.7 7.4 7.7 2.7 0 5.4-1.7 6.6-3.8l3.2 1.8c-1.8 3.2-5.6 5.5-9.8 5.5-6.6 0-11.2-4.7-11.2-11.2z"/><path class="b" d="m447.7 76.7c-1.5 1.2-3.6 1.8-5.6 1.8-4.6 0-6.8-3-6.8-8v-10.5h-3.8v-3.3h3.8v-7.5h3.7v7.5h7.6v3.3h-7.6v10.8c0 2.6 1 4.2 3.5 4.2 1.4 0 2.7-0.5 3.8-1.2z"/><path fill-rule="evenodd" class="b" d="m449.5 67.3c0-6.1 4.6-11.2 11.2-11.2 6.5 0 11.1 5.1 11.1 11.2 0 6.2-4.6 11.2-11.1 11.2-6.6 0-11.2-5-11.2-11.2zm18.5 0c0-4.1-3.2-7.6-7.3-7.6-4.1 0-7.4 3.5-7.4 7.6 0 4.2 3.3 7.7 7.4 7.7 4.1 0 7.3-3.5 7.3-7.7z"/><path class="b" d="m476.4 56.7h3.6v3.1c1.3-2.5 3.3-3.7 6.1-3.7 0.8 0 1.6 0.1 2.5 0.4l-0.3 3.7c-0.8-0.3-1.5-0.4-2.3-0.4-3.1 0-5.8 2.1-5.8 6.9v11.3h-3.8z"/><path fill-rule="evenodd" class="b" d="m512.3 56.7v21.3h-3.6v-3c-1.9 2.2-4.4 3.5-7.5 3.5-6.1 0-10.7-4.9-10.7-11.3 0-6.4 4.6-11 10.7-11 3.1 0 5.6 1.3 7.5 3.6v-3.1zm-3.4 10.6c0-4.1-2.9-7.6-7.3-7.6-4.5 0-7.3 3.5-7.3 7.6 0 4.2 2.8 7.7 7.3 7.7 4.4 0 7.3-3.5 7.3-7.7z"/><path class="b" d="m532.1 76.7c-1.5 1.2-3.6 1.8-5.6 1.8-4.7 0-6.8-3-6.8-8v-10.5h-3.8v-3.3h3.8v-7.5h3.7v7.5h7.6v3.3h-7.6v10.8c0 2.6 0.9 4.2 3.5 4.2 1.3 0 2.6-0.5 3.8-1.2z"/><path fill-rule="evenodd" class="b" d="m554.8 68.9h-16.9c0.5 3.3 2.7 6.1 7.4 6.1 2.6 0 5.5-1 7.5-2.4l1.6 2.9c-1.9 1.5-5.4 3-9.1 3-8.1 0-11.4-5.7-11.4-11.2 0-6.3 4.3-11.1 10.8-11.1 5.9 0 10.3 4 10.3 10.7 0 0.9-0.1 1.5-0.2 2zm-16.9-3.3h13.1c-0.2-3.8-2.9-6-6.3-6-3.6 0-6.2 2.5-6.8 6z"/><path class="c" d="m137.7 94.4h14.6v3h-11.4v7h10.5v3h-10.5v7.3h11.4v3h-14.6z"/><path class="c" d="m182.7 107.6v10.1h-3v-9.6c0-3.2-1.6-4.9-4.1-4.9-2.6 0-4.5 2-4.5 5v9.5h-3v-9.5c0-3.2-1.6-5-4.1-5-2.7 0-4.6 1.9-4.6 5v9.5h-3v-16.9h3v2.5c0.9-1.8 2.8-3 5.1-3 2.2 0 4.3 1.1 5.3 3.2 1.1-1.9 3.5-3.2 6.2-3.2 4.1 0 6.7 2.9 6.7 7.3z"/><path fill-rule="evenodd" class="c" d="m204.8 109.3c0 4.9-3.6 8.9-8.5 8.9-2.5 0-4.6-1.1-6.1-2.9v9.4h-3v-23.9h3v2.5c1.5-1.8 3.6-2.9 6.1-2.9 4.9 0 8.5 4 8.5 8.9zm-3.1-0.1c0-3.3-2.2-6-5.8-6-3.5 0-5.8 2.7-5.8 6 0 3.4 2.3 6.2 5.8 6.2 3.6 0 5.8-2.8 5.8-6.2z"/><path fill-rule="evenodd" class="c" d="m207.4 109.2c0-4.8 3.6-8.9 8.9-8.9 5.2 0 8.9 4.1 8.9 8.9 0 5-3.7 9-8.9 9-5.3 0-8.9-4-8.9-9zm14.8 0c0-3.3-2.6-6-5.9-6-3.3 0-5.9 2.7-5.9 6 0 3.4 2.6 6.2 5.9 6.2 3.3 0 5.9-2.8 5.9-6.2z"/><path class="c" d="m226.8 100.8h3.2l4.1 12.7 4.6-12.7h2.1l4.8 12.7 3.9-12.7h3.1l-5.6 16.9h-2.6l-4.6-12.7-4.6 12.7h-2.5z"/><path fill-rule="evenodd" class="c" d="m271.1 110.5h-13.5c0.4 2.6 2.2 4.8 5.9 4.8 2.1 0 4.4-0.7 5.9-1.9l1.3 2.3c-1.5 1.3-4.2 2.4-7.2 2.4-6.5 0-9.1-4.5-9.1-8.9 0-5 3.5-8.8 8.6-8.8 4.7 0 8.2 3.2 8.2 8.5 0 0.7-0.1 1.2-0.1 1.6zm-13.5-2.6h10.5c-0.2-3-2.4-4.8-5.1-4.8-2.9 0-4.9 2-5.4 4.8z"/><path class="c" d="m274.8 100.8h2.8v2.5c1.1-2 2.7-3 4.9-3 0.7 0 1.3 0.1 2 0.3l-0.3 2.9q-0.9-0.3-1.7-0.3c-2.6 0-4.7 1.7-4.7 5.6v8.9h-3z"/><path class="c" d="m286.4 96.2c0-1.2 1-2.1 2.3-2.1 1.1 0 2.1 0.9 2.1 2.1 0 1.3-1 2.2-2.1 2.2-1.3 0-2.3-0.9-2.3-2.2zm0.7 21.5v-16.9h3v16.9z"/><path class="c" d="m294.8 100.8h3v2.4c1-1.8 3-2.9 5.4-2.9 3.5 0 6.7 2.3 6.7 7.2v10.2h-3v-9.4c0-3.4-1.9-5.1-4.3-5.1-2.8 0-4.7 2.1-4.7 5.1v9.4h-3.1z"/><path fill-rule="evenodd" class="c" d="m330.8 100.8v15.2c0 5.5-3.6 9-9.1 9-2.9 0-5.5-1.1-7.5-2.4l1.5-2.5c1.4 1.2 3.7 2.1 6 2.1 3.8 0 6.1-2.4 6.1-5.7v-1.4c-1.4 1.7-3.5 2.7-5.9 2.7-4.9 0-8.5-3.8-8.5-8.8 0-4.9 3.8-8.6 8.6-8.6 2.4 0 4.4 0.9 5.8 2.6v-2.2zm-2.8 8.3c0-3.4-2.5-6-5.8-6-3.3 0-5.8 2.6-5.8 6 0 3.4 2.5 6 5.8 6 3.3 0 5.8-2.6 5.8-6z"/><path class="c" d="m347.1 94.4v23.3h-3.2v-23.3z"/><path class="c" d="m378.7 107.6v10.1h-3v-9.6c0-3.2-1.6-4.9-4.1-4.9-2.6 0-4.5 2-4.5 5v9.5h-3v-9.5c0-3.2-1.6-5-4.1-5-2.6 0-4.6 1.9-4.6 5v9.5h-3v-16.9h3v2.5c0.9-1.8 2.8-3 5.1-3 2.2 0 4.4 1.1 5.3 3.2 1.1-1.9 3.5-3.2 6.2-3.2 4.1 0 6.7 2.9 6.7 7.3z"/><path fill-rule="evenodd" class="c" d="m400.8 109.3c0 4.9-3.6 8.9-8.5 8.9-2.5 0-4.6-1.1-6-2.9v9.4h-3.1v-23.9h3.1v2.5c1.4-1.8 3.5-2.9 6-2.9 4.9 0 8.5 4 8.5 8.9zm-3.1-0.1c0-3.3-2.2-6-5.8-6-3.5 0-5.8 2.7-5.8 6 0 3.4 2.3 6.2 5.8 6.2 3.6 0 5.8-2.8 5.8-6.2z"/><path class="c" d="m404.4 100.8h2.9v2.5c1-2 2.7-3 4.9-3 0.6 0 1.2 0.1 2 0.3l-0.3 2.9c-0.6-0.2-1.2-0.3-1.8-0.3-2.5 0-4.6 1.7-4.6 5.6v8.9h-3.1z"/><path fill-rule="evenodd" class="c" d="m415.7 109.2c0-4.8 3.7-8.9 8.9-8.9 5.2 0 8.9 4.1 8.9 8.9 0 5-3.7 9-8.9 9-5.2 0-8.9-4-8.9-9zm14.8 0c0-3.3-2.6-6-5.9-6-3.3 0-5.8 2.7-5.8 6 0 3.4 2.5 6.2 5.8 6.2 3.3 0 5.9-2.8 5.9-6.2z"/><path class="c" d="m452.2 100.8l-7.4 16.9h-2.1l-7.5-16.9h3.4l5.2 12.7 5.1-12.7z"/><path fill-rule="evenodd" class="c" d="m470.6 110.5h-13.5c0.5 2.6 2.2 4.8 6 4.8 2 0 4.3-0.7 5.9-1.9l1.3 2.3c-1.5 1.3-4.3 2.4-7.3 2.4-6.4 0-9-4.5-9-8.9 0-5 3.4-8.8 8.5-8.8 4.8 0 8.2 3.2 8.2 8.5 0 0.7 0 1.2-0.1 1.6zm-13.5-2.6h10.5c-0.2-3-2.3-4.8-5.1-4.8-2.8 0-4.9 2-5.4 4.8z"/><path class="c" d="m500.7 107.6v10.1h-3.1v-9.6c0-3.2-1.6-4.9-4-4.9-2.7 0-4.6 2-4.6 5v9.5h-3v-9.5c0-3.2-1.6-5-4.1-5-2.6 0-4.5 1.9-4.5 5v9.5h-3.1v-16.9h3v2.5c1-1.8 2.8-3 5.1-3 2.2 0 4.4 1.1 5.3 3.2 1.2-1.9 3.5-3.2 6.2-3.2 4.1 0 6.8 2.9 6.8 7.3z"/><path fill-rule="evenodd" class="c" d="m520.8 110.5h-13.5c0.4 2.6 2.2 4.8 5.9 4.8 2.1 0 4.4-0.7 6-1.9l1.3 2.3c-1.6 1.3-4.3 2.4-7.3 2.4-6.4 0-9.1-4.5-9.1-8.9 0-5 3.5-8.8 8.6-8.8 4.7 0 8.2 3.2 8.2 8.5 0 0.7-0.1 1.2-0.1 1.6zm-13.5-2.6h10.5c-0.2-3-2.4-4.8-5.1-4.8-2.8 0-4.9 2-5.4 4.8z"/><path class="c" d="m524.5 100.8h3v2.4c1-1.8 2.9-2.9 5.3-2.9 3.6 0 6.8 2.3 6.8 7.2v10.2h-3.1v-9.4c0-3.4-1.8-5.1-4.3-5.1-2.7 0-4.7 2.1-4.7 5.1v9.4h-3z"/><path class="c" d="m555.1 116.7c-1.2 1-2.9 1.5-4.5 1.5-3.7 0-5.4-2.5-5.4-6.4v-8.4h-3v-2.6h3v-6h3v6h6v2.6h-6v8.6c0 2.1 0.7 3.4 2.7 3.4 1.1 0 2.2-0.4 3.1-1z"/><path class="c" d="m93.3 59.9l13.5 13.5 13.8-13.5-13.6-13.7z"/><g clip-path="url(#cp1)"><path class="d" d="m24.5 59.7l-27.5-0.1 61.9 63.1 0.1-28.5"/></g><g clip-path="url(#cp2)"><path class="d" d="m79.2 74l-20.8 20.4-34.6-34.9 35.2-34.3 11.2 11 28.3 1.2-12-12.1-21.3-21.6c-3.3-3.3-8.8-3.3-12.1-0.1l-50.9 49.9c-3.3 3.2-3.3 8.5-0.1 11.7l50.3 50.6c3.2 3.3 8.5 3.3 11.8 0.1l34.9-34.4-7.5-7.5c-3.4-3.4-9-3.4-12.4 0z"/></g></svg>