<?xml version="1.0" encoding="UTF-8"?>
<svg id="Layer_1" xmlns="http://www.w3.org/2000/svg" xmlns:xlink="http://www.w3.org/1999/xlink" version="1.1" viewBox="0 0 277.4 64.6">
  <title>Education and Training Inspectorate</title>
  <defs>
    <style>
      .st0, .st1 {
        fill: none;
      }

      .st2 {
        fill: #008498;
      }

      .st2, .st3, .st4 {
        fill-rule: evenodd;
      }

      .st5 {
        fill: #00364e;
      }

      .st6, .st3 {
        fill: #dc3189;
      }

      .st7 {
        clip-path: url(#clippath-1);
      }

      .st1 {
        clip-rule: evenodd;
      }

      .st4 {
        fill: #0cb0c1;
      }

      .st8 {
        clip-path: url(#clippath);
      }
    </style>
    <clipPath id="clippath">
      <path class="st0" d="M29.5,14.7s-1.2-12.4-2.9-10.7L1.3,28.8c-1.6,1.6-1.9,4.2,0,5.9l24.8,24.9c1.9,1.9,4.4,2,6,.4"/>
    </clipPath>
    <clipPath id="clippath-1">
      <polygon class="st1" points="29.3 2.5 29.3 14.7 35 20.2 48.5 20.2 29.3 0 29.3 2.5"/>
    </clipPath>
  </defs>
  <path class="st2" d="M42.6,36l-13.3,13.2L12.1,32,29.4,14.7l5.6,5.5-12.5,12.4,6.8,6.8,19.2-19.2-5.2-5.2-.5-.5-10.3-10.5c-1.7-1.7-4.3-1.7-5.9,0L1.2,29.3c-1.6,1.6-1.5,3.8.1,5.4l25,25.1c1.6,1.6,4.1,1.9,5.8.2l17.3-17.3-6.8-6.8Z"/>
  <g>
    <g>
      <path class="st5" d="M69.1,2.6h9.1v1.9h-7.1v4.4h6.6v1.9h-6.6v4.6h7.1v1.9h-9.1V2.6Z"/>
      <path class="st5" d="M91.1,2.3v15h-1.9v-1.5c-.9,1.1-2.2,1.7-3.7,1.7-3.1,0-5.4-2.5-5.4-5.6s2.3-5.6,5.3-5.6,2.8.7,3.7,1.8V2.3h1.9ZM89.3,11.9c0-2.1-1.4-3.8-3.6-3.8s-3.6,1.7-3.6,3.8,1.4,3.9,3.6,3.9,3.6-1.7,3.6-3.9Z"/>
      <path class="st5" d="M93.9,13v-6.4h1.9v6.3c0,1.7,1,2.8,2.7,2.8s2.7-1.1,2.7-2.8v-6.3h1.9v6.4c0,2.8-1.7,4.5-4.6,4.5s-4.6-1.8-4.6-4.5Z"/>
      <path class="st5" d="M105.2,12c0-3.3,2.4-5.6,5.7-5.6s4,1.1,4.8,2.8l-1.6.9c-.7-1.2-1.9-1.9-3.3-1.9-2.2,0-3.8,1.6-3.8,3.8s1.5,3.8,3.7,3.8,2.7-.8,3.3-1.9l1.6.9c-.9,1.6-2.8,2.7-4.9,2.7-3.3,0-5.6-2.3-5.6-5.6Z"/>
      <path class="st5" d="M128,6.6v10.6h-1.8v-1.5c-.9,1.1-2.2,1.8-3.8,1.8-3.1,0-5.3-2.5-5.3-5.7s2.3-5.5,5.3-5.5,2.8.7,3.8,1.8v-1.5h1.8ZM126.3,11.9c0-2.1-1.4-3.8-3.7-3.8s-3.6,1.7-3.6,3.8,1.4,3.8,3.6,3.8,3.7-1.7,3.7-3.9Z"/>
      <path class="st5" d="M137.9,16.7c-.8.6-1.8.9-2.8.9-2.3,0-3.4-1.5-3.4-4v-5.3h-1.9v-1.6h1.9v-3.8h1.9v3.8h3.8v1.6h-3.8v5.4c0,1.3.5,2.1,1.7,2.1s1.3-.3,1.9-.6l.7,1.5Z"/>
      <path class="st5" d="M139,3.8c0-.8.6-1.3,1.4-1.3s1.4.6,1.4,1.3-.6,1.4-1.4,1.4-1.4-.6-1.4-1.4ZM139.4,17.3V6.6h1.9v10.6h-1.9Z"/>
      <path class="st5" d="M143.6,11.9c0-3.1,2.3-5.6,5.6-5.6s5.6,2.5,5.6,5.6-2.3,5.6-5.6,5.6-5.6-2.5-5.6-5.6ZM152.9,11.9c0-2.1-1.6-3.8-3.7-3.8s-3.7,1.7-3.7,3.8,1.6,3.9,3.7,3.9,3.7-1.7,3.7-3.9Z"/>
      <path class="st5" d="M157.1,6.6h1.9v1.5c.6-1.1,1.9-1.8,3.4-1.8,2.2,0,4.2,1.4,4.2,4.5v6.5h-1.9v-5.9c0-2.1-1.2-3.2-2.7-3.2s-2.9,1.4-2.9,3.3v5.9h-1.9V6.6Z"/>
      <path class="st5" d="M184.5,6.6v10.6h-1.8v-1.5c-.9,1.1-2.2,1.8-3.8,1.8-3.1,0-5.3-2.5-5.3-5.7s2.3-5.5,5.3-5.5,2.8.7,3.8,1.8v-1.5h1.8ZM182.8,11.9c0-2.1-1.4-3.8-3.7-3.8s-3.6,1.7-3.6,3.8,1.4,3.8,3.6,3.8,3.7-1.7,3.7-3.9Z"/>
      <path class="st5" d="M187.4,6.6h1.9v1.5c.6-1.1,1.9-1.8,3.4-1.8,2.2,0,4.2,1.4,4.2,4.5v6.5h-1.9v-5.9c0-2.1-1.2-3.2-2.7-3.2s-2.9,1.4-2.9,3.3v5.9h-1.9V6.6Z"/>
      <path class="st5" d="M210,2.3v15h-1.9v-1.5c-.9,1.1-2.2,1.7-3.7,1.7-3.1,0-5.4-2.5-5.4-5.6s2.3-5.6,5.3-5.6,2.8.7,3.7,1.8V2.3h1.9ZM208.2,11.9c0-2.1-1.4-3.8-3.6-3.8s-3.6,1.7-3.6,3.8,1.4,3.9,3.6,3.9,3.6-1.7,3.6-3.9Z"/>
      <path class="st5" d="M67.5,28.4v-1.9h10.7v1.9h-4.3v12.7h-2v-12.7h-4.3Z"/>
      <path class="st5" d="M79.2,30.5h1.8v1.6c.6-1.3,1.7-1.8,3.1-1.8s.8,0,1.3.2l-.2,1.8c-.4-.1-.7-.2-1.1-.2-1.6,0-2.9,1.1-2.9,3.5v5.6h-1.9v-10.6Z"/>
      <path class="st5" d="M97.2,30.5v10.6h-1.8v-1.5c-.9,1.1-2.2,1.8-3.8,1.8-3.1,0-5.3-2.5-5.3-5.7s2.3-5.5,5.3-5.5,2.8.7,3.8,1.8v-1.5h1.8ZM95.5,35.8c0-2.1-1.4-3.8-3.7-3.8s-3.6,1.7-3.6,3.8,1.4,3.8,3.6,3.8,3.7-1.7,3.7-3.9Z"/>
      <path class="st5" d="M99.7,27.6c0-.8.6-1.3,1.4-1.3s1.4.6,1.4,1.3-.6,1.4-1.4,1.4-1.4-.6-1.4-1.4ZM100.1,41.1v-10.6h1.9v10.6h-1.9Z"/>
      <path class="st5" d="M105,30.5h1.9v1.5c.6-1.1,1.9-1.8,3.4-1.8,2.2,0,4.2,1.4,4.2,4.5v6.5h-1.9v-5.9c0-2.1-1.2-3.2-2.7-3.2s-2.9,1.4-2.9,3.3v5.9h-1.9v-10.6Z"/>
      <path class="st5" d="M116.9,27.6c0-.8.6-1.3,1.4-1.3s1.4.6,1.4,1.3-.6,1.4-1.4,1.4-1.4-.6-1.4-1.4ZM117.3,41.1v-10.6h1.9v10.6h-1.9Z"/>
      <path class="st5" d="M122.1,30.5h1.9v1.5c.6-1.1,1.9-1.8,3.4-1.8,2.2,0,4.2,1.4,4.2,4.5v6.5h-1.9v-5.9c0-2.1-1.2-3.2-2.7-3.2s-2.9,1.4-2.9,3.3v5.9h-1.9v-10.6Z"/>
      <path class="st5" d="M144.7,30.5v9.5c0,3.5-2.3,5.6-5.7,5.6s-3.5-.6-4.7-1.5l.9-1.5c.9.7,2.4,1.3,3.8,1.3,2.4,0,3.8-1.5,3.8-3.6v-.9c-.9,1.1-2.2,1.7-3.7,1.7-3.1,0-5.3-2.4-5.3-5.5s2.4-5.4,5.4-5.4,2.7.6,3.6,1.6v-1.4h1.9ZM142.9,35.7c0-2.1-1.5-3.7-3.6-3.7s-3.6,1.6-3.6,3.7,1.5,3.8,3.6,3.8,3.6-1.6,3.6-3.8Z"/>
      <path class="st5" d="M154.9,26.4v14.7h-2v-14.7h2Z"/>
      <path class="st5" d="M158.2,30.5h1.9v1.5c.6-1.1,1.9-1.8,3.4-1.8,2.2,0,4.2,1.4,4.2,4.5v6.5h-1.9v-5.9c0-2.1-1.2-3.2-2.7-3.2s-2.9,1.4-2.9,3.3v5.9h-1.9v-10.6Z"/>
      <path class="st5" d="M169.5,39l1.4-1.1c.7,1.2,1.7,1.7,2.6,1.7s1.9-.7,1.9-1.5-.4-1.1-1-1.3c-.7-.4-2-.8-2.6-1.2-1.1-.6-1.6-1.6-1.6-2.6,0-1.7,1.3-3,3.5-3s2.6.5,3.4,1.7l-1.2,1.2c-.6-.9-1.5-1.2-2.3-1.2s-1.5.6-1.5,1.3.2.9.9,1.3c.7.3,1.8.7,2.6,1.2,1.1.6,1.8,1.4,1.8,2.7s-1.5,3.2-3.8,3.2-3.1-.7-4-2.3Z"/>
      <path class="st5" d="M190.5,35.8c0,3.1-2.3,5.6-5.3,5.6s-2.9-.7-3.8-1.8v5.9h-1.9v-15h1.9v1.6c.9-1.2,2.2-1.9,3.8-1.9,3.1,0,5.3,2.5,5.3,5.6ZM188.6,35.8c0-2.1-1.4-3.8-3.7-3.8s-3.6,1.7-3.6,3.8,1.4,3.9,3.6,3.9,3.7-1.7,3.7-3.9Z"/>
      <path class="st5" d="M202.6,36.6h-8.5c.3,1.6,1.4,3,3.7,3s2.7-.5,3.7-1.2l.8,1.4c-1,.8-2.7,1.5-4.6,1.5-4,0-5.7-2.8-5.7-5.6s2.2-5.5,5.4-5.5,5.1,2,5.1,5.4,0,.7,0,1ZM194.1,34.9h6.6c-.1-1.9-1.5-3-3.2-3s-3.1,1.3-3.4,3Z"/>
      <path class="st5" d="M204.2,35.8c0-3.3,2.4-5.6,5.7-5.6s4,1.1,4.8,2.8l-1.6.9c-.7-1.2-1.9-1.9-3.3-1.9-2.2,0-3.8,1.6-3.8,3.8s1.5,3.8,3.7,3.8,2.7-.8,3.3-1.9l1.6.9c-.9,1.6-2.8,2.7-4.9,2.7-3.3,0-5.6-2.3-5.6-5.6Z"/>
      <path class="st5" d="M223.7,40.5c-.8.6-1.8.9-2.8.9-2.3,0-3.4-1.5-3.4-4v-5.3h-1.9v-1.6h1.9v-3.8h1.9v3.8h3.8v1.6h-3.8v5.4c0,1.3.5,2.1,1.7,2.1s1.3-.3,1.9-.6l.7,1.5Z"/>
      <path class="st5" d="M224.6,35.8c0-3.1,2.3-5.6,5.6-5.6s5.6,2.5,5.6,5.6-2.3,5.6-5.6,5.6-5.6-2.5-5.6-5.6ZM233.9,35.8c0-2.1-1.6-3.8-3.7-3.8s-3.7,1.7-3.7,3.8,1.6,3.9,3.7,3.9,3.7-1.7,3.7-3.9Z"/>
      <path class="st5" d="M238.1,30.5h1.8v1.6c.6-1.3,1.7-1.8,3.1-1.8s.8,0,1.3.2l-.2,1.8c-.4-.1-.7-.2-1.1-.2-1.6,0-2.9,1.1-2.9,3.5v5.6h-1.9v-10.6Z"/>
      <path class="st5" d="M256,30.5v10.6h-1.8v-1.5c-.9,1.1-2.2,1.8-3.8,1.8-3.1,0-5.3-2.5-5.3-5.7s2.3-5.5,5.3-5.5,2.8.7,3.8,1.8v-1.5h1.8ZM254.3,35.8c0-2.1-1.4-3.8-3.7-3.8s-3.6,1.7-3.6,3.8,1.4,3.8,3.6,3.8,3.7-1.7,3.7-3.9Z"/>
      <path class="st5" d="M265.9,40.5c-.8.6-1.8.9-2.8.9-2.3,0-3.4-1.5-3.4-4v-5.3h-1.9v-1.6h1.9v-3.8h1.9v3.8h3.8v1.6h-3.8v5.4c0,1.3.5,2.1,1.7,2.1s1.3-.3,1.9-.6l.7,1.5Z"/>
      <path class="st5" d="M277.3,36.6h-8.5c.3,1.6,1.4,3,3.7,3s2.7-.5,3.7-1.2l.8,1.4c-1,.8-2.7,1.5-4.6,1.5-4,0-5.7-2.8-5.7-5.6s2.2-5.5,5.4-5.5,5.1,2,5.1,5.4,0,.7,0,1ZM268.8,34.9h6.6c-.1-1.9-1.5-3-3.2-3s-3.1,1.3-3.4,3Z"/>
    </g>
    <g>
      <path class="st6" d="M68.7,49.3h7.3v1.5h-5.7v3.5h5.3v1.5h-5.3v3.7h5.7v1.5h-7.3v-11.7Z"/>
      <path class="st6" d="M91.2,55.9v5h-1.5v-4.8c0-1.6-.8-2.5-2-2.5s-2.3,1-2.3,2.5v4.8h-1.5v-4.8c0-1.6-.8-2.5-2.1-2.5s-2.3,1-2.3,2.5v4.7h-1.5v-8.5h1.5v1.2c.5-.9,1.4-1.5,2.6-1.5,1.1,0,2.2.6,2.7,1.6.6-.9,1.7-1.6,3.1-1.6,2.1,0,3.4,1.4,3.4,3.7Z"/>
      <path class="st6" d="M102.2,56.7c0,2.5-1.8,4.4-4.3,4.4s-2.3-.5-3-1.4v4.7h-1.5v-12h1.5v1.3c.7-.9,1.8-1.5,3-1.5,2.4,0,4.2,2,4.2,4.4ZM100.7,56.7c0-1.7-1.1-3-2.9-3s-2.9,1.4-2.9,3,1.1,3.1,2.9,3.1,2.9-1.4,2.9-3.1Z"/>
      <path class="st6" d="M103.5,56.7c0-2.4,1.8-4.4,4.5-4.4s4.4,2,4.4,4.4-1.8,4.5-4.4,4.5-4.5-2-4.5-4.5ZM110.9,56.7c0-1.6-1.3-3-2.9-3s-2.9,1.4-2.9,3,1.3,3.1,2.9,3.1,2.9-1.4,2.9-3.1Z"/>
      <path class="st6" d="M113.3,52.5h1.6l2,6.4,2.3-6.4h1.1l2.4,6.4,1.9-6.4h1.6l-2.8,8.5h-1.3l-2.3-6.3-2.3,6.3h-1.2l-2.9-8.5Z"/>
      <path class="st6" d="M135.4,57.4h-6.8c.2,1.3,1.1,2.4,3,2.4s2.2-.4,3-.9l.6,1.2c-.8.6-2.1,1.2-3.6,1.2-3.2,0-4.5-2.2-4.5-4.5s1.7-4.4,4.3-4.4,4.1,1.6,4.1,4.3,0,.6,0,.8ZM128.6,56h5.2c0-1.5-1.2-2.4-2.5-2.4s-2.5,1-2.7,2.4Z"/>
      <path class="st6" d="M137.2,52.5h1.4v1.2c.5-1,1.3-1.5,2.4-1.5s.6,0,1,.1v1.5c-.4,0-.7-.1-1-.1-1.3,0-2.3.8-2.3,2.8v4.5h-1.5v-8.5Z"/>
      <path class="st6" d="M143.1,50.2c0-.6.5-1.1,1.1-1.1s1.1.5,1.1,1.1-.5,1.1-1.1,1.1-1.1-.5-1.1-1.1ZM143.4,61v-8.5h1.5v8.5h-1.5Z"/>
      <path class="st6" d="M147.3,52.5h1.5v1.2c.5-.9,1.5-1.4,2.7-1.4,1.8,0,3.4,1.1,3.4,3.6v5.1h-1.5v-4.7c0-1.7-.9-2.6-2.2-2.6s-2.3,1.1-2.3,2.6v4.7h-1.5v-8.5Z"/>
      <path class="st6" d="M165.3,52.5v7.6c0,2.8-1.8,4.5-4.5,4.5s-2.8-.5-3.8-1.2l.7-1.2c.7.6,1.9,1,3,1,1.9,0,3.1-1.2,3.1-2.8v-.7c-.7.9-1.8,1.3-3,1.3-2.4,0-4.3-1.9-4.3-4.4s1.9-4.3,4.3-4.3,2.2.5,2.9,1.3v-1.1h1.5ZM163.9,56.6c0-1.7-1.2-3-2.9-3s-2.9,1.3-2.9,3,1.2,3,2.9,3,2.9-1.3,2.9-3Z"/>
      <path class="st6" d="M173.4,49.3v11.7h-1.6v-11.7h1.6Z"/>
      <path class="st6" d="M189.2,55.9v5h-1.5v-4.8c0-1.6-.8-2.5-2-2.5s-2.3,1-2.3,2.5v4.8h-1.5v-4.8c0-1.6-.8-2.5-2.1-2.5s-2.3,1-2.3,2.5v4.7h-1.5v-8.5h1.5v1.2c.5-.9,1.4-1.5,2.6-1.5,1.1,0,2.2.6,2.7,1.6.6-.9,1.7-1.6,3.1-1.6,2.1,0,3.4,1.4,3.4,3.7Z"/>
      <path class="st6" d="M200.3,56.7c0,2.5-1.8,4.4-4.3,4.4s-2.3-.5-3-1.4v4.7h-1.5v-12h1.5v1.3c.7-.9,1.8-1.5,3-1.5,2.4,0,4.2,2,4.2,4.4ZM198.7,56.7c0-1.7-1.1-3-2.9-3s-2.9,1.4-2.9,3,1.1,3.1,2.9,3.1,2.9-1.4,2.9-3.1Z"/>
      <path class="st6" d="M202.1,52.5h1.4v1.2c.5-1,1.3-1.5,2.4-1.5s.6,0,1,.1v1.5c-.4,0-.7-.1-1-.1-1.3,0-2.3.8-2.3,2.8v4.5h-1.5v-8.5Z"/>
      <path class="st6" d="M207.7,56.7c0-2.4,1.8-4.4,4.5-4.4s4.4,2,4.4,4.4-1.8,4.5-4.4,4.5-4.5-2-4.5-4.5ZM215.1,56.7c0-1.6-1.3-3-2.9-3s-2.9,1.4-2.9,3,1.3,3.1,2.9,3.1,2.9-1.4,2.9-3.1Z"/>
      <path class="st6" d="M226,52.5l-3.7,8.5h-1.1l-3.7-8.5h1.7l2.6,6.3,2.6-6.3h1.7Z"/>
      <path class="st6" d="M235.2,57.4h-6.8c.2,1.3,1.1,2.4,3,2.4s2.2-.4,3-.9l.6,1.2c-.8.6-2.1,1.2-3.6,1.2-3.2,0-4.5-2.2-4.5-4.5s1.7-4.4,4.3-4.4,4.1,1.6,4.1,4.3,0,.6,0,.8ZM228.4,56h5.2c0-1.5-1.2-2.4-2.5-2.4s-2.5,1-2.7,2.4Z"/>
      <path class="st6" d="M250.2,55.9v5h-1.5v-4.8c0-1.6-.8-2.5-2-2.5s-2.3,1-2.3,2.5v4.8h-1.5v-4.8c0-1.6-.8-2.5-2.1-2.5s-2.3,1-2.3,2.5v4.7h-1.5v-8.5h1.5v1.2c.5-.9,1.4-1.5,2.6-1.5,1.1,0,2.2.6,2.7,1.6.6-.9,1.7-1.6,3.1-1.6,2.1,0,3.4,1.4,3.4,3.7Z"/>
      <path class="st6" d="M260.3,57.4h-6.8c.2,1.3,1.1,2.4,3,2.4s2.2-.4,3-.9l.6,1.2c-.8.6-2.1,1.2-3.6,1.2-3.2,0-4.5-2.2-4.5-4.5s1.7-4.4,4.3-4.4,4.1,1.6,4.1,4.3,0,.6,0,.8ZM253.5,56h5.2c0-1.5-1.2-2.4-2.5-2.4s-2.5,1-2.7,2.4Z"/>
      <path class="st6" d="M262.1,52.5h1.5v1.2c.5-.9,1.5-1.4,2.7-1.4,1.8,0,3.4,1.1,3.4,3.6v5.1h-1.5v-4.7c0-1.7-.9-2.6-2.2-2.6s-2.3,1.1-2.3,2.6v4.7h-1.5v-8.5Z"/>
      <path class="st6" d="M277.4,60.5c-.6.5-1.5.7-2.3.7-1.8,0-2.7-1.2-2.7-3.2v-4.2h-1.5v-1.3h1.5v-3h1.5v3h3v1.3h-3v4.3c0,1,.4,1.7,1.4,1.7s1.1-.2,1.5-.5l.6,1.2Z"/>
    </g>
  </g>
  <path class="st3" d="M46.5,32.1l6.7,6.8,6.9-6.8-6.8-6.8-6.8,6.8Z"/>
  <g class="st8">
    <polyline class="st4" points="12.1 32 -1.6 31.9 29.3 63.5 29.3 49.2"/>
  </g>
  <g class="st7">
    <path class="st4" d="M39.5,39.1l-10.4,10.2L11.7,31.9,29.3,14.7l5.6,5.5,14.1.6-6-6-10.7-10.8c-1.6-1.6-4.4-1.6-6,0L1,28.8c-1.6,1.6-1.7,4.3,0,5.9l25.1,25.3c1.6,1.6,4.3,1.7,5.9,0l17.4-17.2-3.7-3.8c-1.7-1.7-4.5-1.7-6.2,0Z"/>
  </g>
</svg>
