<?xml version="1.0" encoding="UTF-8"?>
<svg id="Layer_1" xmlns="http://www.w3.org/2000/svg" version="1.1" viewBox="0 0 595.3 267.4">
  <!-- Generator: Adobe Illustrator 29.3.1, SVG Export Plug-In . SVG Version: 2.1.0 Build 151)  -->
  <defs>
    <style>
      .st0 {
        fill-rule: evenodd;
      }

      .st0, .st1 {
        fill: #fff;
      }

      .st2 {
        fill: #004996;
      }
    </style>
  </defs>
  <g>
    <path class="st1" d="M47,183.9h41.9v-57.9c0-17.6,9.5-21.1,16.7-21.1,12.3,0,13.7,8.9,13.7,21.6v57.5h41.9v-75.3c0-25.2-18-37.2-37.6-37.2s-27.1,6.1-34.3,14.6h-.4v-53.1h-41.9v151h0Z"/>
    <path class="st1" d="M268.5,106.1c-1.1-28.1-29.6-34.7-53.3-34.7s-51.8,7.2-51.8,34.9,12.9,29,44.8,34.5c19.5,3.4,23,5.3,23,11.6s-8.7,8.5-14.2,8.5-9.1-1.3-11.2-3.2c-3.2-2.8-4.9-5.9-5.1-9.7h-40c.6,28.3,29,38.7,54.8,38.7s55.8-8.2,55.8-38.7-12.3-26.2-26.2-30.7c-14-4.7-29.8-5.5-36.8-8.5-2.3-1.1-4.9-2.5-4.9-5.7,0-7.2,6.8-8.5,12.7-8.5s6.8,1.1,9.3,3.2c2.7,1.9,4.7,4.7,4.9,8.2h38.1Z"/>
    <path class="st0" d="M306.8,116.7c1.9-11.8,9.1-18.4,21.6-18.4s18.4,8.2,18.4,18.4h-40ZM386.9,138.5c0-42.7-18.8-67-62.4-67s-57.9,26-57.9,57.9,26.4,57.3,61.5,57.3,48-11,56.5-34.7h-39.1c-3.4,5.3-10.8,7.8-17.6,7.8-13.1,0-20.3-8.9-21.4-21.4h80.4Z"/>
    <path class="st1" d="M391.7,183.9h41.9v-57.9c0-17.6,9.5-21.1,16.7-21.1,12.3,0,13.7,8.9,13.7,21.6v57.5h41.9v-75.3c0-25.2-18-37.2-37.6-37.2s-27.9,5.7-35.7,16.7h-.4v-14h-40.4v109.8h0Z"/>
    <polygon class="st0" points="513.3 183.9 555.2 183.9 555.2 74.2 513.3 74.2 513.3 183.9 513.3 183.9"/>
    <polygon class="st1" points="555.1 68.5 555.1 32.5 512.6 32.5 555.1 68.5 555.1 68.5"/>
    <path class="st1" d="M67.3,217.2c-.5-4.8-4.4-7.5-9.4-7.5-6.6,0-10.6,5.3-10.6,11.6s4,11.6,10.6,11.6,9.1-3.6,9.4-8.9h-3.8c-.3,3.2-2.2,5.8-5.6,5.8s-6.7-4.2-6.7-8.4,2-8.4,6.7-8.4,4.9,1.9,5.5,4.4h3.9Z"/>
    <path class="st0" d="M81.7,209.7c-6.6,0-10.6,5.3-10.6,11.6s4,11.6,10.6,11.6,10.6-5.3,10.6-11.6-4-11.6-10.6-11.6h0ZM81.7,212.8c4.7,0,6.7,4.2,6.7,8.4s-2,8.4-6.7,8.4-6.7-4.2-6.7-8.4,2-8.4,6.7-8.4h0Z"/>
    <polygon class="st1" points="97.1 232.3 100.8 232.3 100.8 216 100.8 216 110.9 232.3 115 232.3 115 210.2 111.3 210.2 111.3 226.4 111.2 226.4 101.2 210.2 97.1 210.2 97.1 232.3 97.1 232.3"/>
    <polygon class="st1" points="118.9 213.5 125.9 213.5 125.9 232.3 129.7 232.3 129.7 213.5 136.7 213.5 136.7 210.2 118.9 210.2 118.9 213.5 118.9 213.5"/>
    <path class="st0" d="M144.6,213.4h6.3c2,0,3.8.6,3.8,3.4s-1.3,3.5-3.8,3.5h-6.3v-6.9h0ZM140.7,232.3h3.9v-9.1h5.7c3.6,0,4.4,1.8,4.4,5.8s0,2.3.6,3.2h4.1c-.8-.9-1.2-3.2-1.2-5.8s-1.9-4.5-3.3-4.7h0c.7-.3,3.6-1.4,3.6-5.6s-2.5-6-7.3-6h-10.5v22.1h0Z"/>
    <path class="st0" d="M173.3,209.7c-6.6,0-10.6,5.3-10.6,11.6s4,11.6,10.6,11.6,10.6-5.3,10.6-11.6-4-11.6-10.6-11.6h0ZM173.3,212.8c4.7,0,6.7,4.2,6.7,8.4s-2,8.4-6.7,8.4-6.7-4.2-6.7-8.4,2-8.4,6.7-8.4h0Z"/>
    <polygon class="st1" points="188.8 232.3 203.9 232.3 203.9 228.9 192.7 228.9 192.7 210.2 188.8 210.2 188.8 232.3 188.8 232.3"/>
    <polygon class="st1" points="208 232.3 223.1 232.3 223.1 228.9 211.9 228.9 211.9 210.2 208 210.2 208 232.3 208 232.3"/>
    <polygon class="st1" points="227.2 232.3 231 232.3 231 210.2 227.2 210.2 227.2 232.3 227.2 232.3"/>
    <polygon class="st1" points="237.1 232.3 240.7 232.3 240.7 216 240.8 216 250.9 232.3 254.9 232.3 254.9 210.2 251.3 210.2 251.3 226.4 251.2 226.4 241.1 210.2 237.1 210.2 237.1 232.3 237.1 232.3"/>
    <path class="st1" d="M280.2,220.6h-9.4v2.9h5.9c0,3.7-2.2,6.1-6.2,6.1-4.7,0-6.7-4.2-6.7-8.4s2-8.4,6.7-8.4,5.3,1.5,5.7,4.4h3.8c-.6-5-4.6-7.5-9.5-7.5s-10.6,5.3-10.6,11.6,4,11.6,10.6,11.6,4.6-.8,6.6-3.1l.6,2.6h2.5v-11.6h0Z"/>
    <path class="st0" d="M299.7,213.4h6.3c2,0,3.8.6,3.8,3.4s-1.3,3.5-3.8,3.5h-6.3v-6.9h0ZM295.9,232.3h3.9v-9.1h5.7c3.6,0,4.4,1.8,4.4,5.8s0,2.3.6,3.2h4.1c-.8-.9-1.2-3.2-1.2-5.8s-1.9-4.5-3.3-4.7h0c.7-.3,3.6-1.4,3.6-5.6s-2.5-6-7.3-6h-10.5v22.1h0Z"/>
    <polygon class="st1" points="319.1 232.3 322.9 232.3 322.9 210.2 319.1 210.2 319.1 232.3 319.1 232.3"/>
    <path class="st1" d="M327.8,224.9c0,5.5,4.2,7.9,9.2,7.9s8.8-2,8.8-6.9-1.4-4.8-4.3-5.6c-1.1-.3-6-1.6-6.4-1.7-1.6-.4-2.6-1.3-2.6-2.8,0-2.2,2.3-2.9,4-2.9,2.7,0,4.6,1.1,4.8,3.9h3.9c0-4.6-3.9-7-8.5-7s-8.1,2.1-8.1,6.5,1.1,4.6,4.9,5.6c3,.8,5,1.2,6.6,1.8.9.3,1.8,1,1.8,2.7s-1.3,3.3-4.7,3.3-5.6-1.3-5.6-4.7h-3.9Z"/>
    <polygon class="st1" points="350.6 232.3 354.4 232.3 354.4 224.8 357.6 221.7 364.8 232.3 369.6 232.3 360.2 219 369 210.2 364.2 210.2 354.4 220.2 354.4 210.2 350.6 210.2 350.6 232.3 350.6 232.3"/>
    <polygon class="st1" points="381.1 213.5 388.1 213.5 388.1 232.3 391.9 232.3 391.9 213.5 398.9 213.5 398.9 210.2 381.1 210.2 381.1 213.5 381.1 213.5"/>
    <path class="st0" d="M412.3,209.7c-6.6,0-10.6,5.3-10.6,11.6s4,11.6,10.6,11.6,10.6-5.3,10.6-11.6-4-11.6-10.6-11.6h0ZM412.3,212.8c4.7,0,6.7,4.2,6.7,8.4s-2,8.4-6.7,8.4-6.7-4.2-6.7-8.4,2-8.4,6.7-8.4h0Z"/>
    <path class="st1" d="M447.1,220.6h-9.4v2.9h5.9c0,3.7-2.2,6.1-6.2,6.1-4.7,0-6.7-4.2-6.7-8.4s2-8.4,6.7-8.4,5.3,1.5,5.7,4.4h3.8c-.6-5-4.6-7.5-9.5-7.5s-10.6,5.3-10.6,11.6,4,11.6,10.6,11.6,4.6-.8,6.6-3.1l.6,2.6h2.5v-11.6h0Z"/>
    <polygon class="st1" points="452.7 232.3 468.8 232.3 468.8 228.9 456.6 228.9 456.6 222.5 467.7 222.5 467.7 219.3 456.6 219.3 456.6 213.5 468.6 213.5 468.6 210.2 452.7 210.2 452.7 232.3 452.7 232.3"/>
    <polygon class="st1" points="471.5 213.5 478.5 213.5 478.5 232.3 482.4 232.3 482.4 213.5 489.4 213.5 489.4 210.2 471.5 210.2 471.5 213.5 471.5 213.5"/>
    <polygon class="st1" points="493.3 232.3 497.2 232.3 497.2 222.3 507.2 222.3 507.2 232.3 511.1 232.3 511.1 210.2 507.2 210.2 507.2 219 497.2 219 497.2 210.2 493.3 210.2 493.3 232.3 493.3 232.3"/>
    <polygon class="st1" points="517.1 232.3 533.2 232.3 533.2 228.9 521 228.9 521 222.5 532.1 222.5 532.1 219.3 521 219.3 521 213.5 533 213.5 533 210.2 517.1 210.2 517.1 232.3 517.1 232.3"/>
    <path class="st0" d="M541.9,213.4h6.3c2,0,3.8.6,3.8,3.4s-1.3,3.5-3.8,3.5h-6.3v-6.9h0ZM538,232.3h3.9v-9.1h5.7c3.6,0,4.4,1.8,4.4,5.8s0,2.3.6,3.2h4.1c-.8-.9-1.2-3.2-1.2-5.8s-1.9-4.5-3.3-4.7h0c.7-.3,3.6-1.4,3.6-5.6s-2.5-6-7.3-6h-10.5v22.1h0Z"/>
  </g>
</svg>
