<?xml version="1.0" encoding="UTF-8"?>
<svg id="Layer_1" xmlns="http://www.w3.org/2000/svg" version="1.1" viewBox="0 0 283.5 63.8">
  <title>Agri-Food and Biosciences Institute</title>
  <defs>
    <style>
      .st0 {
        fill: #00343a;
      }

      .st1 {
        fill: #0a9ca6;
      }
    </style>
  </defs>
  <path class="st0" d="M168.2,62.6v-11.7h-1.9v11.7h1.9ZM181,50.9h-1.7v6.1c0,.4,0,1,0,1.8,0,.8,0,1.2,0,1.3h0l-5.7-9.3h-2.3v11.7h1.7v-6.1c0-.8,0-1.7-.1-2.7v-.5s0,0,0,0l5.7,9.3h2.3v-11.7h0ZM190.5,58c-.2-.4-.5-.7-.9-1.1-.4-.3-1-.6-1.9-1-.8-.3-1.3-.6-1.6-.8-.3-.2-.5-.4-.6-.6-.1-.2-.2-.5-.2-.8,0-.4.2-.8.5-1.1.3-.3.8-.4,1.4-.4s1.7.2,2.8.7l.6-1.6c-1.1-.5-2.2-.7-3.3-.7s-2.1.3-2.8.8c-.7.6-1,1.3-1,2.3s.2,1.4.7,2c.4.6,1.2,1.1,2.2,1.5,1,.4,1.7.8,2,1.1.3.3.5.7.5,1.1s-.2.9-.5,1.2c-.4.3-.9.4-1.7.4s-1.1,0-1.7-.2c-.6-.1-1.2-.3-1.7-.6v1.8c.8.4,1.9.6,3.2.6s2.3-.3,3.1-.9c.7-.6,1.1-1.4,1.1-2.5s0-1-.3-1.4h0ZM197,52.5h3.4v-1.6h-8.8v1.6h3.4v10.1h1.9v-10.1h0ZM204.1,62.6v-11.7h-1.9v11.7h1.9ZM211.2,52.5h3.4v-1.6h-8.8v1.6h3.4v10.1h1.9v-10.1h0ZM223.7,50.9v7.4c0,1.9-.9,2.8-2.7,2.8s-1.6-.2-2.1-.7c-.4-.5-.7-1.2-.7-2.1v-7.4h-1.9v7.6c0,1.3.4,2.4,1.2,3.2.8.8,1.9,1.2,3.4,1.2s1.8-.2,2.5-.5c.7-.4,1.2-.9,1.6-1.5.4-.6.6-1.4.6-2.3v-7.6h-1.9ZM232.6,52.5h3.4v-1.6h-8.8v1.6h3.4v10.1h1.9v-10.1h0ZM244.3,61h-4.7v-3.7h4.4v-1.6h-4.4v-3.2h4.7v-1.6h-6.6v11.7h6.6v-1.6h0Z"/>
  <path class="st0" d="M168.7,36.2c.2-.2.6-.3,1-.3s.7.1.9.3c.2.2.3.5.3.8s-.1.7-.4,1c-.2.3-.7.6-1.3,1-.3-.3-.6-.7-.7-1-.2-.3-.3-.6-.3-1s.1-.7.4-.9h0ZM168,44.3c-.4-.3-.6-.8-.6-1.3s.1-.8.3-1.1c.2-.3.6-.7,1.2-1l3,3c-.7.6-1.5.9-2.5.9s-1.1-.2-1.5-.5h0ZM166.6,45.5c.7.6,1.7.9,2.9.9s1.4-.1,2-.3c.6-.2,1.2-.6,1.7-1l1.2,1.2h2.4l-2.4-2.3c.8-1,1.4-2.2,1.8-3.7h-1.9c-.3,1.1-.6,1.9-1.1,2.5l-2.8-2.7c.8-.5,1.4-1,1.8-1.5.4-.5.5-1.1.5-1.7s-.3-1.4-.8-1.8c-.5-.5-1.3-.7-2.2-.7s-1.7.2-2.3.7c-.6.5-.9,1.1-.9,1.9s0,.9.3,1.3c.2.4.5.9,1,1.5-.9.5-1.5,1-1.8,1.6-.3.5-.5,1.1-.5,1.8,0,1,.3,1.8,1,2.4h0ZM182.6,46.2h4.2c1.3,0,2.3-.3,3-.9.7-.6,1.1-1.4,1.1-2.5s-.2-1.4-.6-1.9c-.4-.5-1-.8-1.8-.9h0c.7-.2,1.2-.5,1.5-.9.3-.5.5-1,.5-1.7,0-1-.4-1.8-1.1-2.2-.7-.5-1.9-.7-3.5-.7h-3.5v11.7h0ZM184.5,36.1h1.6c.9,0,1.5.1,1.9.4.4.2.6.6.6,1.2s-.2,1-.6,1.3c-.4.3-.9.4-1.7.4h-1.8v-3.2h0ZM186.4,40.9c.8,0,1.5.1,1.9.4.4.3.6.7.6,1.4s-.2,1.1-.6,1.5c-.4.3-1,.5-1.8.5h-2v-3.7h1.9ZM195.3,46.2v-11.7h-1.9v11.7h1.9ZM207.3,35.9c-.9-1.1-2.3-1.6-4-1.6s-3.1.5-4.1,1.6c-.9,1-1.4,2.5-1.4,4.5s.5,3.4,1.4,4.5c.9,1.1,2.3,1.6,4,1.6s3.1-.5,4-1.6c.9-1.1,1.4-2.5,1.4-4.5s-.5-3.4-1.4-4.5h0ZM200.7,37.1c.6-.7,1.4-1.1,2.6-1.1s2,.4,2.6,1.1c.6.7.9,1.8.9,3.3s-.3,2.6-.9,3.3c-.6.7-1.4,1.1-2.6,1.1s-2-.4-2.6-1.1c-.6-.7-.9-1.8-.9-3.3s.3-2.5.9-3.3h0ZM217.6,41.7c-.2-.4-.5-.7-.9-1.1-.4-.3-1-.6-1.9-1-.8-.3-1.3-.6-1.6-.8-.3-.2-.5-.4-.6-.6-.1-.2-.2-.5-.2-.8,0-.4.2-.8.5-1.1.3-.3.8-.4,1.4-.4s1.7.2,2.8.7l.6-1.6c-1.1-.5-2.2-.7-3.3-.7s-2.1.3-2.8.8c-.7.6-1,1.3-1,2.3s.2,1.4.7,2c.4.6,1.2,1.1,2.2,1.5,1,.4,1.7.8,2,1.1.3.3.5.7.5,1.1s-.2.9-.5,1.2c-.4.3-.9.4-1.7.4s-1.1,0-1.7-.2-1.2-.3-1.7-.6v1.8c.8.4,1.9.6,3.2.6s2.3-.3,3.1-.9c.7-.6,1.1-1.4,1.1-2.5s0-1-.3-1.4h0ZM226.5,36.2c.4.1.9.3,1.2.5l.7-1.6c-1-.5-2.1-.8-3.3-.8s-2.1.2-3,.7c-.8.5-1.5,1.2-1.9,2.1-.4.9-.7,2-.7,3.2,0,1.9.5,3.4,1.4,4.5.9,1,2.2,1.6,3.9,1.6s2.2-.2,3.1-.5v-1.6c-.5.2-1,.3-1.4.4-.5,0-.9.1-1.4.1-1.1,0-2-.4-2.6-1.1-.6-.7-.9-1.8-.9-3.3s.3-2.5.9-3.2c.6-.8,1.5-1.2,2.6-1.2s.9,0,1.4.2h0ZM232.4,46.2v-11.7h-1.9v11.7h1.9ZM242,44.6h-4.7v-3.7h4.4v-1.6h-4.4v-3.2h4.7v-1.6h-6.6v11.7h6.6v-1.6h0ZM254.2,34.5h-1.7v6.1c0,.4,0,1,0,1.8,0,.8,0,1.2,0,1.3h0l-5.7-9.3h-2.3v11.7h1.7v-6.1c0-.8,0-1.7-.1-2.7v-.5s0,0,0,0l5.7,9.3h2.3v-11.7h0ZM263.7,36.2c.4.1.9.3,1.2.5l.7-1.6c-1-.5-2.1-.8-3.3-.8s-2.1.2-3,.7c-.8.5-1.5,1.2-1.9,2.1-.4.9-.7,2-.7,3.2,0,1.9.5,3.4,1.4,4.5.9,1,2.2,1.6,3.9,1.6s2.2-.2,3.1-.5v-1.6c-.5.2-1,.3-1.4.4-.5,0-.9.1-1.4.1-1.1,0-2-.4-2.6-1.1-.6-.7-.9-1.8-.9-3.3s.3-2.5.9-3.2,1.5-1.2,2.6-1.2.9,0,1.4.2h0ZM274.2,44.6h-4.7v-3.7h4.4v-1.6h-4.4v-3.2h4.7v-1.6h-6.6v11.7h6.6v-1.6h0ZM283.2,41.7c-.2-.4-.5-.7-.9-1.1-.4-.3-1-.6-1.9-1-.8-.3-1.3-.6-1.6-.8-.3-.2-.5-.4-.6-.6-.1-.2-.2-.5-.2-.8,0-.4.2-.8.5-1.1.3-.3.8-.4,1.4-.4s1.7.2,2.8.7l.6-1.6c-1.1-.5-2.2-.7-3.3-.7s-2.1.3-2.8.8c-.7.6-1,1.3-1,2.3s.2,1.4.7,2c.4.6,1.2,1.1,2.2,1.5,1,.4,1.7.8,2,1.1.3.3.5.7.5,1.1s-.2.9-.5,1.2c-.4.3-.9.4-1.7.4s-1.1,0-1.7-.2c-.6-.1-1.2-.3-1.7-.6v1.8c.8.4,1.9.6,3.2.6s2.3-.3,3.1-.9c.7-.6,1.1-1.4,1.1-2.5s0-1-.3-1.4h0Z"/>
  <path class="st0" d="M175.5,29.9l-4.4-11.8h-2.1l-4.4,11.8h2l1.1-3.3h4.5l1.2,3.3h2ZM168.5,25l1.1-3.1c.3-.8.5-1.5.6-2.2,0,.2.1.6.3,1,.1.5.3.8.3,1l1.1,3.2h-3.4ZM181.8,25.2h2.4v3c-.7.2-1.4.2-2,.2-1.2,0-2.2-.4-2.8-1.1-.6-.7-1-1.8-1-3.3s.4-2.4,1.1-3.2c.7-.8,1.7-1.2,2.9-1.2s1.9.2,2.8.7l.7-1.6c-1.1-.5-2.2-.7-3.5-.7-1.9,0-3.4.5-4.5,1.6-1.1,1.1-1.6,2.5-1.6,4.4s.5,3.4,1.4,4.4c1,1.1,2.3,1.6,4.1,1.6s1.4,0,2.1-.1c.6,0,1.3-.3,2-.5v-5.9h-4.3v1.6h0ZM190.8,19.8h1.3c.9,0,1.5.1,1.9.4.4.3.6.8.6,1.4s-.2,1.1-.6,1.5c-.4.3-1,.5-1.9.5h-1.3v-3.8h0ZM192.7,25.2l2.8,4.7h2.2l-3.3-5.2c1.5-.6,2.3-1.7,2.3-3.1s-.4-2-1.1-2.6c-.7-.6-1.8-.9-3.3-.9h-3.3v11.7h1.9v-4.7h1.9ZM201.2,29.9v-11.7h-1.9v11.7h1.9ZM207.4,26.3v-1.6h-4.1v1.6h4.1ZM211.4,25.1h4.4v-1.6h-4.4v-3.7h4.7v-1.6h-6.6v11.7h1.9v-4.8h0ZM227.2,19.6c-.9-1.1-2.3-1.6-4-1.6s-3.1.5-4.1,1.6c-.9,1-1.4,2.5-1.4,4.5s.5,3.4,1.4,4.5c.9,1.1,2.3,1.6,4,1.6s3.1-.5,4-1.6c.9-1.1,1.4-2.5,1.4-4.5s-.5-3.4-1.4-4.5h0ZM220.6,20.7c.6-.7,1.4-1.1,2.6-1.1s2,.4,2.6,1.1c.6.7.9,1.8.9,3.3s-.3,2.6-.9,3.3c-.6.7-1.4,1.1-2.6,1.1s-2-.4-2.6-1.1c-.6-.7-.9-1.8-.9-3.3s.3-2.5.9-3.3h0ZM240,19.6c-.9-1.1-2.3-1.6-4-1.6s-3.1.5-4.1,1.6c-.9,1-1.4,2.5-1.4,4.5s.5,3.4,1.4,4.5c.9,1.1,2.3,1.6,4,1.6s3.1-.5,4-1.6c.9-1.1,1.4-2.5,1.4-4.5s-.5-3.4-1.4-4.5h0ZM233.4,20.7c.6-.7,1.4-1.1,2.6-1.1s2,.4,2.6,1.1c.6.7.9,1.8.9,3.3s-.3,2.6-.9,3.3c-.6.7-1.4,1.1-2.6,1.1s-2-.4-2.6-1.1c-.6-.7-.9-1.8-.9-3.3s.3-2.5.9-3.3h0ZM251.8,19.7c-1-1-2.5-1.5-4.3-1.5h-3.6v11.7h3.3c2,0,3.5-.5,4.6-1.5,1.1-1,1.6-2.5,1.6-4.4s-.5-3.2-1.5-4.2h0ZM247.2,28.3h-1.4v-8.5h1.6c2.6,0,3.9,1.4,3.9,4.2s-1.4,4.3-4.2,4.3h0Z"/>
  <path class="st1" d="M0,49.8c0,9,7.2,14,15.2,14s13.4-7.9,13.4-7.9h.2s0,.8,0,1.9c0,2.6,1.6,4.9,5.7,4.9h9.9v-9.4h-3.5c-1.2,0-1.9-.7-1.9-1.9v-16.7c0-10-4.4-17.8-19.2-17.8s-16.3.9-16.3,9.2v4.7h10.3v-2.4c0-2.5,3.9-3,5.9-3,5.7,0,8.2,2.4,8.2,8.8v.4h-1.4c-7.2,0-26.4,1.1-26.4,15.2h0ZM11.2,49.3c0-6.2,9.2-7,14.9-7h1.9v1.1c0,5.4-4.2,11.8-10.1,11.8s-6.7-2.8-6.7-5.8h0ZM77.6,62.8h10.5v-2.3c0-1.8-.2-3-.2-3h.2s4,6.3,13.3,6.3,20.4-9.2,20.4-23.5-7.7-23.5-19.7-23.5-13.3,6.2-13.3,6.2h-.2s.2-1.6.2-3.8V6.3c0-4.1-1.8-6-5.9-6h-7.9v9.5h.8c1.2,0,1.9.6,1.9,1.9v51h0ZM88.3,40.6c0-9.9,5.4-14.2,11.2-14.2s11.1,5.5,11.1,14.1-5.1,13.9-11.2,13.9-11.1-6.9-11.1-13.8h0ZM129.2,56.8c0,4.2,1.7,6,5.8,6h10.6v-9.4h-3.5c-1.2,0-1.9-.7-1.9-1.9v-27.5c0-4.1-1.7-6-5.8-6h-10.6v9.5h3.5c1.2,0,1.9.6,1.9,1.9v27.4h0Z"/>
  <path class="st1" d="M49.9,16.6v1.3h-5.5v8.9h5.5v36h11.1V26.8h9.5v-8.9h-9.5v-1.1c0-7.3,10.8-7.1,10.8-7.1V.4s-21.9.5-21.9,16.2h0Z"/>
  <path class="st1" d="M134.6,12.8c3.5,0,6.3-2.9,6.3-6.4s-2.8-6.4-6.3-6.4-6.3,2.9-6.3,6.4,2.8,6.4,6.3,6.4h0Z"/>
</svg>
