<svg version="1.2" xmlns="http://www.w3.org/2000/svg" viewBox="0 0 250 250"><style>.a{fill:#152b53}.b{fill:none;stroke:#152b53;stroke-width:.4}.c{fill:#3e7cbf}.d{fill:#c0d732}</style><path class="c" d="m0.2 140.6c9.6 16.7 21.7 28.8 38.5 38.5 16.6 9.6 34.6 14.1 52.5 14.1 24.9 0 49.3-8.9 68.5-25.3q1.7-1.4 3.3-2.9c7.5-6.9 14.1-15.1 19.4-24.4l-54.3-31.4-4.1-2.4-30.5-17.6-2.2-1.3-2 1.2-66.3 38.3-3.8 2.2z"/><path class="a" d="m89.2 84.4l0.1-0.1v-64.6-4.2h4.2c11.1 0 22 1.7 32.5 4.9v-19.9c-19.4 0-35.9 4.4-52.7 14.1-39.1 22.5-58.2 66.4-51.2 108.5z"/><path class="d" d="m130.1 26.2q-2.1-0.7-4.1-1.4c-10.3-3.3-21.2-5.1-32.5-5.1v64.7l32.5 18.8 4.1 2.4 54.4 31.4 3.6 2-2.1 3.6c-5.2 9.1-11.8 17.4-19.3 24.6l17.9 10.3c9.7-16.7 14.1-33.2 14.1-52.6 0-45.2-28.5-83.8-68.6-98.7z"/></svg>
