<svg xmlns="http://www.w3.org/2000/svg" xmlns:xlink="http://www.w3.org/1999/xlink" width="500" zoomAndPan="magnify" viewBox="0 0 375 374.999991" height="500" preserveAspectRatio="xMidYMid meet" version="1.0"><defs><clipPath id="cca02214bd"><path d="M 2 107 L 373 107 L 373 268.347656 L 2 268.347656 Z M 2 107 " clip-rule="nonzero"/></clipPath><clipPath id="d5797903f2"><path d="M 328 106.347656 L 361 106.347656 L 361 139 L 328 139 Z M 328 106.347656 " clip-rule="nonzero"/></clipPath></defs><g clip-path="url(#cca02214bd)"><path fill="#0a9ca6" d="M 2.277344 232.796875 C 2.277344 255.648438 20.597656 268.347656 40.957031 268.347656 C 61.316406 268.347656 75.058594 248.285156 75.058594 248.285156 L 75.566406 248.285156 C 75.566406 248.285156 75.566406 250.316406 75.566406 253.109375 C 75.566406 259.710938 79.636719 265.554688 90.070312 265.554688 L 115.265625 265.554688 L 115.265625 241.683594 L 106.359375 241.683594 C 103.304688 241.683594 101.523438 239.90625 101.523438 236.859375 L 101.523438 194.457031 C 101.523438 169.0625 90.328125 149.257812 52.664062 149.257812 C 15 149.257812 11.183594 151.542969 11.183594 172.617188 L 11.183594 184.554688 L 37.394531 184.554688 L 37.394531 178.457031 C 37.394531 172.109375 47.320312 170.839844 52.410156 170.839844 C 66.914062 170.839844 73.277344 176.933594 73.277344 193.1875 L 73.277344 194.203125 L 69.714844 194.203125 C 51.390625 194.203125 2.53125 196.996094 2.53125 232.796875 Z M 30.777344 231.527344 C 30.777344 215.785156 54.191406 213.753906 68.695312 213.753906 L 73.53125 213.753906 L 73.53125 216.546875 C 73.53125 230.257812 62.84375 246.507812 47.828125 246.507812 C 32.816406 246.507812 30.777344 239.398438 30.777344 231.78125 Z M 199.753906 265.808594 L 226.472656 265.808594 L 226.472656 259.964844 C 226.472656 255.394531 225.964844 252.347656 225.964844 252.347656 L 226.472656 252.347656 C 226.472656 252.347656 236.652344 268.347656 260.316406 268.347656 C 283.984375 268.347656 312.230469 244.984375 312.230469 208.675781 C 312.230469 172.363281 292.636719 149.003906 262.097656 149.003906 C 231.5625 149.003906 228.253906 164.746094 228.253906 164.746094 L 227.746094 164.746094 C 227.746094 164.746094 228.253906 160.683594 228.253906 155.097656 L 228.253906 122.34375 C 228.253906 111.933594 223.671875 107.109375 213.238281 107.109375 L 193.136719 107.109375 L 193.136719 131.230469 L 195.171875 131.230469 C 198.226562 131.230469 200.007812 132.753906 200.007812 136.054688 L 200.007812 265.554688 Z M 226.980469 209.4375 C 226.980469 184.300781 240.722656 173.378906 255.484375 173.378906 C 270.242188 173.378906 283.730469 187.347656 283.730469 209.183594 C 283.730469 231.019531 270.75 244.476562 255.226562 244.476562 C 239.707031 244.476562 226.980469 226.957031 226.980469 209.4375 Z M 331.0625 250.570312 C 331.0625 261.234375 335.390625 265.808594 345.824219 265.808594 L 372.796875 265.808594 L 372.796875 241.9375 L 363.890625 241.9375 C 360.835938 241.9375 359.054688 240.160156 359.054688 237.113281 L 359.054688 167.285156 C 359.054688 156.875 354.730469 152.050781 344.296875 152.050781 L 317.320312 152.050781 L 317.320312 176.171875 L 326.226562 176.171875 C 329.28125 176.171875 331.0625 177.695312 331.0625 180.996094 Z M 331.0625 250.570312 " fill-opacity="1" fill-rule="nonzero"/></g><path fill="#0a9ca6" d="M 129.261719 148.496094 L 129.261719 151.796875 L 115.265625 151.796875 L 115.265625 174.394531 L 129.261719 174.394531 L 129.261719 265.808594 L 157.507812 265.808594 L 157.507812 174.394531 L 181.683594 174.394531 L 181.683594 151.796875 L 157.507812 151.796875 L 157.507812 149.003906 C 157.507812 130.46875 184.992188 130.976562 184.992188 130.976562 L 184.992188 107.363281 C 184.992188 107.363281 129.261719 108.632812 129.261719 148.496094 Z M 129.261719 148.496094 " fill-opacity="1" fill-rule="nonzero"/><g clip-path="url(#d5797903f2)"><path fill="#0a9ca6" d="M 344.804688 138.847656 C 353.710938 138.847656 360.835938 131.484375 360.835938 122.597656 C 360.835938 113.710938 353.710938 106.347656 344.804688 106.347656 C 335.898438 106.347656 328.773438 113.710938 328.773438 122.597656 C 328.773438 131.484375 335.898438 138.847656 344.804688 138.847656 Z M 344.804688 138.847656 " fill-opacity="1" fill-rule="nonzero"/></g></svg>