<svg xmlns="http://www.w3.org/2000/svg" xmlns:xlink="http://www.w3.org/1999/xlink" width="500" zoomAndPan="magnify" viewBox="0 0 375 374.999991" height="500" preserveAspectRatio="xMidYMid meet" version="1.0"><defs><clipPath id="55f4f00ce3"><path d="M 3.441406 6 L 307 6 L 307 365 L 3.441406 365 Z M 3.441406 6 " clip-rule="nonzero"/></clipPath><clipPath id="4ea6b3bd95"><path d="M 3.441406 184 L 184 184 L 184 365 L 3.441406 365 Z M 3.441406 184 " clip-rule="nonzero"/></clipPath><clipPath id="423f647095"><path d="M 184.335938 79.519531 C 184.335938 79.519531 176.976562 3.511719 166.554688 13.929688 L 11.414062 165.945312 C 1.605469 175.753906 -0.234375 191.691406 11.414062 202.109375 L 163.488281 354.738281 C 175.136719 366.386719 190.46875 366.996094 200.277344 357.191406 " clip-rule="nonzero"/></clipPath><clipPath id="76e88a60f7"><path d="M 183 6 L 301 6 L 301 114 L 183 114 Z M 183 6 " clip-rule="nonzero"/></clipPath><clipPath id="35b67fda63"><path d="M 183.109375 4.738281 L 183.109375 79.519531 L 218.0625 113.230469 L 300.84375 113.230469 L 183.109375 -10.585938 Z M 183.109375 4.738281 " clip-rule="evenodd"/></clipPath></defs><g clip-path="url(#55f4f00ce3)"><path fill="#008498" d="M 264.664062 210.078125 L 183.109375 290.992188 L 77.640625 185.5625 L 183.722656 79.519531 L 218.0625 113.230469 L 141.410156 189.238281 L 183.109375 230.921875 L 300.84375 113.230469 L 268.957031 81.355469 L 265.890625 78.292969 L 202.730469 13.929688 C 192.308594 3.511719 176.363281 3.511719 166.554688 13.929688 L 10.800781 169.011719 C 0.992188 178.816406 1.605469 192.304688 11.414062 202.109375 L 164.714844 355.964844 C 174.523438 365.773438 189.855469 367.609375 200.277344 357.191406 L 306.359375 251.148438 L 264.664062 209.464844 Z M 264.664062 210.078125 " fill-opacity="1" fill-rule="evenodd"/></g><path fill="#dc3189" d="M 288.578125 186.171875 L 329.664062 227.855469 L 371.972656 186.171875 L 330.277344 144.492188 Z M 288.578125 186.171875 " fill-opacity="1" fill-rule="evenodd"/><g clip-path="url(#4ea6b3bd95)"><g clip-path="url(#423f647095)"><path fill="#0cb0c1" d="M 77.640625 185.5625 L -6.367188 184.949219 L 183.109375 378.644531 L 183.109375 290.992188 " fill-opacity="1" fill-rule="evenodd"/></g></g><g clip-path="url(#76e88a60f7)"><g clip-path="url(#35b67fda63)"><path fill="#0cb0c1" d="M 245.65625 229.082031 L 181.882812 291.601562 L 75.1875 184.949219 L 183.109375 79.519531 L 217.449219 113.230469 L 303.910156 116.910156 L 267.117188 80.132812 L 201.503906 13.929688 C 191.695312 4.125 174.523438 4.125 164.714844 13.929688 L 9.574219 165.945312 C -0.234375 175.753906 -0.847656 192.304688 9.574219 202.109375 L 163.488281 357.191406 C 173.296875 366.996094 189.855469 367.609375 199.664062 357.191406 L 306.359375 251.761719 L 283.671875 228.46875 C 273.25 218.046875 256.078125 218.046875 245.65625 228.46875 Z M 245.65625 229.082031 " fill-opacity="1" fill-rule="evenodd"/></g></g></svg>